%TF.GenerationSoftware,KiCad,Pcbnew,9.0.2*%
%TF.CreationDate,2025-05-17T12:02:21-04:00*%
%TF.ProjectId,ModularPSU,4d6f6475-6c61-4725-9053-552e6b696361,rev?*%
%TF.SameCoordinates,Original*%
%TF.FileFunction,Paste,Top*%
%TF.FilePolarity,Positive*%
%FSLAX46Y46*%
G04 Gerber Fmt 4.6, Leading zero omitted, Abs format (unit mm)*
G04 Created by KiCad (PCBNEW 9.0.2) date 2025-05-17 12:02:21*
%MOMM*%
%LPD*%
G01*
G04 APERTURE LIST*
G04 Aperture macros list*
%AMRoundRect*
0 Rectangle with rounded corners*
0 $1 Rounding radius*
0 $2 $3 $4 $5 $6 $7 $8 $9 X,Y pos of 4 corners*
0 Add a 4 corners polygon primitive as box body*
4,1,4,$2,$3,$4,$5,$6,$7,$8,$9,$2,$3,0*
0 Add four circle primitives for the rounded corners*
1,1,$1+$1,$2,$3*
1,1,$1+$1,$4,$5*
1,1,$1+$1,$6,$7*
1,1,$1+$1,$8,$9*
0 Add four rect primitives between the rounded corners*
20,1,$1+$1,$2,$3,$4,$5,0*
20,1,$1+$1,$4,$5,$6,$7,0*
20,1,$1+$1,$6,$7,$8,$9,0*
20,1,$1+$1,$8,$9,$2,$3,0*%
%AMOutline4P*
0 Free polygon, 4 corners , with rotation*
0 The origin of the aperture is its center*
0 number of corners: always 4*
0 $1 to $8 corner X, Y*
0 $9 Rotation angle, in degrees counterclockwise*
0 create outline with 4 corners*
4,1,4,$1,$2,$3,$4,$5,$6,$7,$8,$1,$2,$9*%
G04 Aperture macros list end*
%ADD10C,0.000000*%
%ADD11C,0.010000*%
%ADD12RoundRect,0.250001X-0.462499X-0.624999X0.462499X-0.624999X0.462499X0.624999X-0.462499X0.624999X0*%
%ADD13RoundRect,0.225000X-0.250000X0.225000X-0.250000X-0.225000X0.250000X-0.225000X0.250000X0.225000X0*%
%ADD14RoundRect,0.250000X-0.337500X-0.475000X0.337500X-0.475000X0.337500X0.475000X-0.337500X0.475000X0*%
%ADD15RoundRect,0.250000X-0.475000X0.337500X-0.475000X-0.337500X0.475000X-0.337500X0.475000X0.337500X0*%
%ADD16RoundRect,0.250000X-1.000000X0.375000X-1.000000X-0.375000X1.000000X-0.375000X1.000000X0.375000X0*%
%ADD17RoundRect,0.237500X0.237500X-0.250000X0.237500X0.250000X-0.237500X0.250000X-0.237500X-0.250000X0*%
%ADD18R,1.400000X1.200000*%
%ADD19RoundRect,0.237500X0.300000X0.237500X-0.300000X0.237500X-0.300000X-0.237500X0.300000X-0.237500X0*%
%ADD20RoundRect,0.250000X0.337500X0.475000X-0.337500X0.475000X-0.337500X-0.475000X0.337500X-0.475000X0*%
%ADD21RoundRect,0.200000X0.275000X-0.200000X0.275000X0.200000X-0.275000X0.200000X-0.275000X-0.200000X0*%
%ADD22RoundRect,0.250000X-0.830000X-0.310000X0.830000X-0.310000X0.830000X0.310000X-0.830000X0.310000X0*%
%ADD23RoundRect,0.237500X-0.237500X0.250000X-0.237500X-0.250000X0.237500X-0.250000X0.237500X0.250000X0*%
%ADD24RoundRect,0.150000X-0.825000X-0.150000X0.825000X-0.150000X0.825000X0.150000X-0.825000X0.150000X0*%
%ADD25RoundRect,0.150000X0.250000X-0.150000X0.250000X0.150000X-0.250000X0.150000X-0.250000X-0.150000X0*%
%ADD26RoundRect,0.075000X0.075000X-0.100000X0.075000X0.100000X-0.075000X0.100000X-0.075000X-0.100000X0*%
%ADD27RoundRect,0.058750X0.058750X-0.376250X0.058750X0.376250X-0.058750X0.376250X-0.058750X-0.376250X0*%
%ADD28R,0.400000X0.425000*%
%ADD29R,0.950000X1.150000*%
%ADD30R,0.480000X0.800000*%
%ADD31RoundRect,0.237500X-0.237500X0.300000X-0.237500X-0.300000X0.237500X-0.300000X0.237500X0.300000X0*%
%ADD32RoundRect,0.250000X0.475000X-0.337500X0.475000X0.337500X-0.475000X0.337500X-0.475000X-0.337500X0*%
%ADD33RoundRect,0.250000X0.700000X-1.950000X0.700000X1.950000X-0.700000X1.950000X-0.700000X-1.950000X0*%
%ADD34RoundRect,0.150000X-0.150000X0.512500X-0.150000X-0.512500X0.150000X-0.512500X0.150000X0.512500X0*%
%ADD35RoundRect,0.250000X0.450000X-0.350000X0.450000X0.350000X-0.450000X0.350000X-0.450000X-0.350000X0*%
%ADD36RoundRect,0.237500X0.237500X-0.300000X0.237500X0.300000X-0.237500X0.300000X-0.237500X-0.300000X0*%
%ADD37RoundRect,0.100000X0.637500X0.100000X-0.637500X0.100000X-0.637500X-0.100000X0.637500X-0.100000X0*%
%ADD38RoundRect,0.225000X0.250000X-0.225000X0.250000X0.225000X-0.250000X0.225000X-0.250000X-0.225000X0*%
%ADD39RoundRect,0.200000X-0.275000X0.200000X-0.275000X-0.200000X0.275000X-0.200000X0.275000X0.200000X0*%
%ADD40RoundRect,0.218750X0.256250X-0.218750X0.256250X0.218750X-0.256250X0.218750X-0.256250X-0.218750X0*%
%ADD41RoundRect,0.237500X-0.300000X-0.237500X0.300000X-0.237500X0.300000X0.237500X-0.300000X0.237500X0*%
%ADD42RoundRect,0.150000X-0.425000X0.150000X-0.425000X-0.150000X0.425000X-0.150000X0.425000X0.150000X0*%
%ADD43RoundRect,0.075000X-0.500000X0.075000X-0.500000X-0.075000X0.500000X-0.075000X0.500000X0.075000X0*%
%ADD44O,2.100000X1.000000*%
%ADD45O,1.800000X1.000000*%
%ADD46RoundRect,0.237500X-0.287500X-0.237500X0.287500X-0.237500X0.287500X0.237500X-0.287500X0.237500X0*%
%ADD47RoundRect,0.237500X-0.250000X-0.237500X0.250000X-0.237500X0.250000X0.237500X-0.250000X0.237500X0*%
%ADD48RoundRect,0.250000X0.450000X-0.325000X0.450000X0.325000X-0.450000X0.325000X-0.450000X-0.325000X0*%
%ADD49RoundRect,0.250000X-0.450000X0.350000X-0.450000X-0.350000X0.450000X-0.350000X0.450000X0.350000X0*%
%ADD50R,0.800000X1.450000*%
%ADD51R,0.600000X0.300000*%
%ADD52R,0.300000X1.725000*%
%ADD53RoundRect,0.150000X-0.587500X-0.150000X0.587500X-0.150000X0.587500X0.150000X-0.587500X0.150000X0*%
%ADD54RoundRect,0.250000X-0.450000X0.325000X-0.450000X-0.325000X0.450000X-0.325000X0.450000X0.325000X0*%
%ADD55RoundRect,0.250000X-0.700000X1.950000X-0.700000X-1.950000X0.700000X-1.950000X0.700000X1.950000X0*%
%ADD56RoundRect,0.250000X-0.650000X1.000000X-0.650000X-1.000000X0.650000X-1.000000X0.650000X1.000000X0*%
%ADD57RoundRect,0.250000X-0.350000X-0.450000X0.350000X-0.450000X0.350000X0.450000X-0.350000X0.450000X0*%
%ADD58R,1.600000X1.000000*%
%ADD59RoundRect,0.150000X0.150000X-0.587500X0.150000X0.587500X-0.150000X0.587500X-0.150000X-0.587500X0*%
%ADD60RoundRect,0.250000X0.350000X0.450000X-0.350000X0.450000X-0.350000X-0.450000X0.350000X-0.450000X0*%
%ADD61R,0.350000X0.950000*%
%ADD62R,0.650000X0.350000*%
%ADD63R,0.650001X0.350000*%
%ADD64R,0.650000X0.350001*%
%ADD65R,0.350000X0.999996*%
%ADD66R,0.350000X0.999990*%
%ADD67R,1.349994X0.499996*%
%ADD68R,0.350000X0.999998*%
%ADD69R,0.350012X1.567002*%
%ADD70R,0.950000X0.350000*%
%ADD71R,1.100000X3.400001*%
%ADD72R,2.700000X1.099998*%
%ADD73R,0.970000X1.520000*%
%ADD74R,1.744998X2.100000*%
%ADD75RoundRect,0.150000X0.587500X0.150000X-0.587500X0.150000X-0.587500X-0.150000X0.587500X-0.150000X0*%
%ADD76RoundRect,0.250000X-0.335000X-0.335000X0.335000X-0.335000X0.335000X0.335000X-0.335000X0.335000X0*%
%ADD77RoundRect,0.050000X-0.300000X-0.050000X0.300000X-0.050000X0.300000X0.050000X-0.300000X0.050000X0*%
%ADD78RoundRect,0.050000X-0.050000X-0.300000X0.050000X-0.300000X0.050000X0.300000X-0.050000X0.300000X0*%
%ADD79R,0.425000X0.400000*%
%ADD80R,1.150000X0.950000*%
%ADD81R,0.800000X0.480000*%
%ADD82RoundRect,0.250001X1.074999X-0.462499X1.074999X0.462499X-1.074999X0.462499X-1.074999X-0.462499X0*%
%ADD83RoundRect,0.237500X0.250000X0.237500X-0.250000X0.237500X-0.250000X-0.237500X0.250000X-0.237500X0*%
%ADD84RoundRect,0.056250X-0.243750X-0.068750X0.243750X-0.068750X0.243750X0.068750X-0.243750X0.068750X0*%
%ADD85RoundRect,0.056250X-0.068750X-0.268750X0.068750X-0.268750X0.068750X0.268750X-0.068750X0.268750X0*%
%ADD86RoundRect,0.056250X-0.068750X-0.243750X0.068750X-0.243750X0.068750X0.243750X-0.068750X0.243750X0*%
%ADD87RoundRect,0.062500X0.337500X0.062500X-0.337500X0.062500X-0.337500X-0.062500X0.337500X-0.062500X0*%
%ADD88RoundRect,0.062500X0.062500X0.337500X-0.062500X0.337500X-0.062500X-0.337500X0.062500X-0.337500X0*%
%ADD89Outline4P,-1.800000X-1.150000X1.800000X-0.550000X1.800000X0.550000X-1.800000X1.150000X270.000000*%
%ADD90Outline4P,-1.800000X-1.150000X1.800000X-0.550000X1.800000X0.550000X-1.800000X1.150000X90.000000*%
%ADD91RoundRect,0.250000X0.650000X-1.500000X0.650000X1.500000X-0.650000X1.500000X-0.650000X-1.500000X0*%
%ADD92RoundRect,0.249999X-0.512501X-1.425001X0.512501X-1.425001X0.512501X1.425001X-0.512501X1.425001X0*%
%ADD93RoundRect,0.250000X0.650000X-0.412500X0.650000X0.412500X-0.650000X0.412500X-0.650000X-0.412500X0*%
%ADD94RoundRect,0.250001X-0.462499X-1.074999X0.462499X-1.074999X0.462499X1.074999X-0.462499X1.074999X0*%
%ADD95RoundRect,0.150000X0.150000X-0.512500X0.150000X0.512500X-0.150000X0.512500X-0.150000X-0.512500X0*%
%ADD96RoundRect,0.250000X-0.970000X-0.310000X0.970000X-0.310000X0.970000X0.310000X-0.970000X0.310000X0*%
%ADD97RoundRect,0.150000X0.512500X0.150000X-0.512500X0.150000X-0.512500X-0.150000X0.512500X-0.150000X0*%
%ADD98RoundRect,0.225000X0.225000X0.250000X-0.225000X0.250000X-0.225000X-0.250000X0.225000X-0.250000X0*%
%ADD99RoundRect,0.075000X-0.662500X-0.075000X0.662500X-0.075000X0.662500X0.075000X-0.662500X0.075000X0*%
%ADD100RoundRect,0.075000X-0.075000X-0.662500X0.075000X-0.662500X0.075000X0.662500X-0.075000X0.662500X0*%
%ADD101R,5.000000X3.100000*%
%ADD102RoundRect,0.250000X-0.325000X-0.450000X0.325000X-0.450000X0.325000X0.450000X-0.325000X0.450000X0*%
%ADD103RoundRect,0.200000X-0.200000X-0.275000X0.200000X-0.275000X0.200000X0.275000X-0.200000X0.275000X0*%
%ADD104RoundRect,0.250000X0.830000X0.310000X-0.830000X0.310000X-0.830000X-0.310000X0.830000X-0.310000X0*%
%ADD105R,3.150000X12.500000*%
%ADD106RoundRect,0.250000X-0.440000X0.255000X-0.440000X-0.255000X0.440000X-0.255000X0.440000X0.255000X0*%
%ADD107RoundRect,0.150000X-0.150000X0.825000X-0.150000X-0.825000X0.150000X-0.825000X0.150000X0.825000X0*%
%ADD108RoundRect,0.250000X-0.650000X0.325000X-0.650000X-0.325000X0.650000X-0.325000X0.650000X0.325000X0*%
%ADD109R,1.680000X1.680000*%
%ADD110R,1.680000X2.950000*%
%ADD111R,0.560000X0.280000*%
%ADD112C,0.280000*%
%ADD113R,0.280000X0.560000*%
%ADD114C,0.304800*%
%ADD115RoundRect,0.250000X0.335000X-0.335000X0.335000X0.335000X-0.335000X0.335000X-0.335000X-0.335000X0*%
%ADD116RoundRect,0.050000X0.050000X-0.300000X0.050000X0.300000X-0.050000X0.300000X-0.050000X-0.300000X0*%
%ADD117RoundRect,0.050000X0.300000X-0.050000X0.300000X0.050000X-0.300000X0.050000X-0.300000X-0.050000X0*%
%ADD118R,1.800000X2.100000*%
%ADD119RoundRect,0.250000X-0.425000X-0.425000X0.425000X-0.425000X0.425000X0.425000X-0.425000X0.425000X0*%
%ADD120RoundRect,0.075000X-0.325000X-0.075000X0.325000X-0.075000X0.325000X0.075000X-0.325000X0.075000X0*%
%ADD121RoundRect,0.075000X-0.075000X-0.325000X0.075000X-0.325000X0.075000X0.325000X-0.075000X0.325000X0*%
%ADD122RoundRect,0.250000X-0.400000X-0.625000X0.400000X-0.625000X0.400000X0.625000X-0.400000X0.625000X0*%
G04 APERTURE END LIST*
D10*
%TO.C,U6*%
G36*
X84382502Y-85335001D02*
G01*
X84532501Y-85335001D01*
X84532501Y-84685001D01*
X84882501Y-84685001D01*
X84882501Y-85335001D01*
X85032500Y-85335001D01*
X85032500Y-84685001D01*
X85382500Y-84685001D01*
X85382500Y-85635001D01*
X84032502Y-85635001D01*
X84032502Y-84685001D01*
X84382502Y-84685001D01*
X84382502Y-85335001D01*
G37*
G36*
X85657500Y-88380001D02*
G01*
X86307500Y-88380001D01*
X86307500Y-88730001D01*
X85657500Y-88730001D01*
X85657500Y-89029999D01*
X86307500Y-89029999D01*
X86307500Y-89379999D01*
X85657500Y-89379999D01*
X85657501Y-89430000D01*
X82957501Y-89430000D01*
X82957501Y-88330000D01*
X85657501Y-88330000D01*
X85657500Y-88380001D01*
G37*
G36*
X85657500Y-86250000D02*
G01*
X86307500Y-86250000D01*
X86307500Y-86600000D01*
X85657500Y-86600000D01*
X85657500Y-86749999D01*
X86307500Y-86749999D01*
X86307500Y-87099999D01*
X85657500Y-87099999D01*
X85657500Y-87250000D01*
X86307500Y-87250000D01*
X86307500Y-87600001D01*
X85657500Y-87600001D01*
X85657501Y-88035000D01*
X82957502Y-88035000D01*
X82957502Y-86515000D01*
X83927502Y-86515000D01*
X83927501Y-85935000D01*
X85657501Y-85935000D01*
X85657500Y-86250000D01*
G37*
D11*
%TO.C,U10*%
X247503000Y-39551000D02*
X247505000Y-39551000D01*
X247508000Y-39552000D01*
X247510000Y-39552000D01*
X247513000Y-39553000D01*
X247515000Y-39554000D01*
X247518000Y-39555000D01*
X247520000Y-39557000D01*
X247522000Y-39558000D01*
X247524000Y-39560000D01*
X247526000Y-39561000D01*
X247528000Y-39563000D01*
X247530000Y-39565000D01*
X247532000Y-39567000D01*
X247534000Y-39569000D01*
X247535000Y-39571000D01*
X247537000Y-39573000D01*
X247538000Y-39575000D01*
X247540000Y-39577000D01*
X247541000Y-39580000D01*
X247542000Y-39582000D01*
X247543000Y-39585000D01*
X247543000Y-39587000D01*
X247544000Y-39590000D01*
X247544000Y-39592000D01*
X247545000Y-39595000D01*
X247545000Y-39597000D01*
X247545000Y-39600000D01*
X247545000Y-40500000D01*
X247545000Y-40503000D01*
X247545000Y-40505000D01*
X247544000Y-40508000D01*
X247544000Y-40510000D01*
X247543000Y-40513000D01*
X247543000Y-40515000D01*
X247542000Y-40518000D01*
X247541000Y-40520000D01*
X247540000Y-40523000D01*
X247538000Y-40525000D01*
X247537000Y-40527000D01*
X247535000Y-40529000D01*
X247534000Y-40531000D01*
X247532000Y-40533000D01*
X247530000Y-40535000D01*
X247528000Y-40537000D01*
X247526000Y-40539000D01*
X247524000Y-40540000D01*
X247522000Y-40542000D01*
X247520000Y-40543000D01*
X247518000Y-40545000D01*
X247515000Y-40546000D01*
X247513000Y-40547000D01*
X247510000Y-40548000D01*
X247508000Y-40548000D01*
X247505000Y-40549000D01*
X247503000Y-40549000D01*
X247500000Y-40550000D01*
X247498000Y-40550000D01*
X247495000Y-40550000D01*
X247345000Y-40550000D01*
X247342000Y-40550000D01*
X247340000Y-40550000D01*
X247337000Y-40549000D01*
X247335000Y-40549000D01*
X247332000Y-40548000D01*
X247330000Y-40548000D01*
X247327000Y-40547000D01*
X247325000Y-40546000D01*
X247322000Y-40545000D01*
X247320000Y-40543000D01*
X247318000Y-40542000D01*
X247316000Y-40540000D01*
X247314000Y-40539000D01*
X247312000Y-40537000D01*
X247310000Y-40535000D01*
X247308000Y-40533000D01*
X247306000Y-40531000D01*
X247305000Y-40529000D01*
X247303000Y-40527000D01*
X247302000Y-40525000D01*
X247300000Y-40523000D01*
X247299000Y-40520000D01*
X247298000Y-40518000D01*
X247297000Y-40515000D01*
X247297000Y-40513000D01*
X247296000Y-40510000D01*
X247296000Y-40508000D01*
X247295000Y-40505000D01*
X247295000Y-40503000D01*
X247295000Y-40500000D01*
X247295000Y-39600000D01*
X247295000Y-39597000D01*
X247295000Y-39595000D01*
X247296000Y-39592000D01*
X247296000Y-39590000D01*
X247297000Y-39587000D01*
X247297000Y-39585000D01*
X247298000Y-39582000D01*
X247299000Y-39580000D01*
X247300000Y-39577000D01*
X247302000Y-39575000D01*
X247303000Y-39573000D01*
X247305000Y-39571000D01*
X247306000Y-39569000D01*
X247308000Y-39567000D01*
X247310000Y-39565000D01*
X247312000Y-39563000D01*
X247314000Y-39561000D01*
X247316000Y-39560000D01*
X247318000Y-39558000D01*
X247320000Y-39557000D01*
X247322000Y-39555000D01*
X247325000Y-39554000D01*
X247327000Y-39553000D01*
X247330000Y-39552000D01*
X247332000Y-39552000D01*
X247335000Y-39551000D01*
X247337000Y-39551000D01*
X247340000Y-39550000D01*
X247342000Y-39550000D01*
X247345000Y-39550000D01*
X247495000Y-39550000D01*
X247498000Y-39550000D01*
X247500000Y-39550000D01*
X247503000Y-39551000D01*
G36*
X247503000Y-39551000D02*
G01*
X247505000Y-39551000D01*
X247508000Y-39552000D01*
X247510000Y-39552000D01*
X247513000Y-39553000D01*
X247515000Y-39554000D01*
X247518000Y-39555000D01*
X247520000Y-39557000D01*
X247522000Y-39558000D01*
X247524000Y-39560000D01*
X247526000Y-39561000D01*
X247528000Y-39563000D01*
X247530000Y-39565000D01*
X247532000Y-39567000D01*
X247534000Y-39569000D01*
X247535000Y-39571000D01*
X247537000Y-39573000D01*
X247538000Y-39575000D01*
X247540000Y-39577000D01*
X247541000Y-39580000D01*
X247542000Y-39582000D01*
X247543000Y-39585000D01*
X247543000Y-39587000D01*
X247544000Y-39590000D01*
X247544000Y-39592000D01*
X247545000Y-39595000D01*
X247545000Y-39597000D01*
X247545000Y-39600000D01*
X247545000Y-40500000D01*
X247545000Y-40503000D01*
X247545000Y-40505000D01*
X247544000Y-40508000D01*
X247544000Y-40510000D01*
X247543000Y-40513000D01*
X247543000Y-40515000D01*
X247542000Y-40518000D01*
X247541000Y-40520000D01*
X247540000Y-40523000D01*
X247538000Y-40525000D01*
X247537000Y-40527000D01*
X247535000Y-40529000D01*
X247534000Y-40531000D01*
X247532000Y-40533000D01*
X247530000Y-40535000D01*
X247528000Y-40537000D01*
X247526000Y-40539000D01*
X247524000Y-40540000D01*
X247522000Y-40542000D01*
X247520000Y-40543000D01*
X247518000Y-40545000D01*
X247515000Y-40546000D01*
X247513000Y-40547000D01*
X247510000Y-40548000D01*
X247508000Y-40548000D01*
X247505000Y-40549000D01*
X247503000Y-40549000D01*
X247500000Y-40550000D01*
X247498000Y-40550000D01*
X247495000Y-40550000D01*
X247345000Y-40550000D01*
X247342000Y-40550000D01*
X247340000Y-40550000D01*
X247337000Y-40549000D01*
X247335000Y-40549000D01*
X247332000Y-40548000D01*
X247330000Y-40548000D01*
X247327000Y-40547000D01*
X247325000Y-40546000D01*
X247322000Y-40545000D01*
X247320000Y-40543000D01*
X247318000Y-40542000D01*
X247316000Y-40540000D01*
X247314000Y-40539000D01*
X247312000Y-40537000D01*
X247310000Y-40535000D01*
X247308000Y-40533000D01*
X247306000Y-40531000D01*
X247305000Y-40529000D01*
X247303000Y-40527000D01*
X247302000Y-40525000D01*
X247300000Y-40523000D01*
X247299000Y-40520000D01*
X247298000Y-40518000D01*
X247297000Y-40515000D01*
X247297000Y-40513000D01*
X247296000Y-40510000D01*
X247296000Y-40508000D01*
X247295000Y-40505000D01*
X247295000Y-40503000D01*
X247295000Y-40500000D01*
X247295000Y-39600000D01*
X247295000Y-39597000D01*
X247295000Y-39595000D01*
X247296000Y-39592000D01*
X247296000Y-39590000D01*
X247297000Y-39587000D01*
X247297000Y-39585000D01*
X247298000Y-39582000D01*
X247299000Y-39580000D01*
X247300000Y-39577000D01*
X247302000Y-39575000D01*
X247303000Y-39573000D01*
X247305000Y-39571000D01*
X247306000Y-39569000D01*
X247308000Y-39567000D01*
X247310000Y-39565000D01*
X247312000Y-39563000D01*
X247314000Y-39561000D01*
X247316000Y-39560000D01*
X247318000Y-39558000D01*
X247320000Y-39557000D01*
X247322000Y-39555000D01*
X247325000Y-39554000D01*
X247327000Y-39553000D01*
X247330000Y-39552000D01*
X247332000Y-39552000D01*
X247335000Y-39551000D01*
X247337000Y-39551000D01*
X247340000Y-39550000D01*
X247342000Y-39550000D01*
X247345000Y-39550000D01*
X247495000Y-39550000D01*
X247498000Y-39550000D01*
X247500000Y-39550000D01*
X247503000Y-39551000D01*
G37*
X247503000Y-40751000D02*
X247505000Y-40751000D01*
X247508000Y-40752000D01*
X247510000Y-40752000D01*
X247513000Y-40753000D01*
X247515000Y-40754000D01*
X247518000Y-40755000D01*
X247520000Y-40757000D01*
X247522000Y-40758000D01*
X247524000Y-40760000D01*
X247526000Y-40761000D01*
X247528000Y-40763000D01*
X247530000Y-40765000D01*
X247532000Y-40767000D01*
X247534000Y-40769000D01*
X247535000Y-40771000D01*
X247537000Y-40773000D01*
X247538000Y-40775000D01*
X247540000Y-40777000D01*
X247541000Y-40780000D01*
X247542000Y-40782000D01*
X247543000Y-40785000D01*
X247543000Y-40787000D01*
X247544000Y-40790000D01*
X247544000Y-40792000D01*
X247545000Y-40795000D01*
X247545000Y-40797000D01*
X247545000Y-40800000D01*
X247545000Y-41700000D01*
X247545000Y-41703000D01*
X247545000Y-41705000D01*
X247544000Y-41708000D01*
X247544000Y-41710000D01*
X247543000Y-41713000D01*
X247543000Y-41715000D01*
X247542000Y-41718000D01*
X247541000Y-41720000D01*
X247540000Y-41723000D01*
X247538000Y-41725000D01*
X247537000Y-41727000D01*
X247535000Y-41729000D01*
X247534000Y-41731000D01*
X247532000Y-41733000D01*
X247530000Y-41735000D01*
X247528000Y-41737000D01*
X247526000Y-41739000D01*
X247524000Y-41740000D01*
X247522000Y-41742000D01*
X247520000Y-41743000D01*
X247518000Y-41745000D01*
X247515000Y-41746000D01*
X247513000Y-41747000D01*
X247510000Y-41748000D01*
X247508000Y-41748000D01*
X247505000Y-41749000D01*
X247503000Y-41749000D01*
X247500000Y-41750000D01*
X247498000Y-41750000D01*
X247495000Y-41750000D01*
X247345000Y-41750000D01*
X247342000Y-41750000D01*
X247340000Y-41750000D01*
X247337000Y-41749000D01*
X247335000Y-41749000D01*
X247332000Y-41748000D01*
X247330000Y-41748000D01*
X247327000Y-41747000D01*
X247325000Y-41746000D01*
X247322000Y-41745000D01*
X247320000Y-41743000D01*
X247318000Y-41742000D01*
X247316000Y-41740000D01*
X247314000Y-41739000D01*
X247312000Y-41737000D01*
X247310000Y-41735000D01*
X247308000Y-41733000D01*
X247306000Y-41731000D01*
X247305000Y-41729000D01*
X247303000Y-41727000D01*
X247302000Y-41725000D01*
X247300000Y-41723000D01*
X247299000Y-41720000D01*
X247298000Y-41718000D01*
X247297000Y-41715000D01*
X247297000Y-41713000D01*
X247296000Y-41710000D01*
X247296000Y-41708000D01*
X247295000Y-41705000D01*
X247295000Y-41703000D01*
X247295000Y-41700000D01*
X247295000Y-40800000D01*
X247295000Y-40797000D01*
X247295000Y-40795000D01*
X247296000Y-40792000D01*
X247296000Y-40790000D01*
X247297000Y-40787000D01*
X247297000Y-40785000D01*
X247298000Y-40782000D01*
X247299000Y-40780000D01*
X247300000Y-40777000D01*
X247302000Y-40775000D01*
X247303000Y-40773000D01*
X247305000Y-40771000D01*
X247306000Y-40769000D01*
X247308000Y-40767000D01*
X247310000Y-40765000D01*
X247312000Y-40763000D01*
X247314000Y-40761000D01*
X247316000Y-40760000D01*
X247318000Y-40758000D01*
X247320000Y-40757000D01*
X247322000Y-40755000D01*
X247325000Y-40754000D01*
X247327000Y-40753000D01*
X247330000Y-40752000D01*
X247332000Y-40752000D01*
X247335000Y-40751000D01*
X247337000Y-40751000D01*
X247340000Y-40750000D01*
X247342000Y-40750000D01*
X247345000Y-40750000D01*
X247495000Y-40750000D01*
X247498000Y-40750000D01*
X247500000Y-40750000D01*
X247503000Y-40751000D01*
G36*
X247503000Y-40751000D02*
G01*
X247505000Y-40751000D01*
X247508000Y-40752000D01*
X247510000Y-40752000D01*
X247513000Y-40753000D01*
X247515000Y-40754000D01*
X247518000Y-40755000D01*
X247520000Y-40757000D01*
X247522000Y-40758000D01*
X247524000Y-40760000D01*
X247526000Y-40761000D01*
X247528000Y-40763000D01*
X247530000Y-40765000D01*
X247532000Y-40767000D01*
X247534000Y-40769000D01*
X247535000Y-40771000D01*
X247537000Y-40773000D01*
X247538000Y-40775000D01*
X247540000Y-40777000D01*
X247541000Y-40780000D01*
X247542000Y-40782000D01*
X247543000Y-40785000D01*
X247543000Y-40787000D01*
X247544000Y-40790000D01*
X247544000Y-40792000D01*
X247545000Y-40795000D01*
X247545000Y-40797000D01*
X247545000Y-40800000D01*
X247545000Y-41700000D01*
X247545000Y-41703000D01*
X247545000Y-41705000D01*
X247544000Y-41708000D01*
X247544000Y-41710000D01*
X247543000Y-41713000D01*
X247543000Y-41715000D01*
X247542000Y-41718000D01*
X247541000Y-41720000D01*
X247540000Y-41723000D01*
X247538000Y-41725000D01*
X247537000Y-41727000D01*
X247535000Y-41729000D01*
X247534000Y-41731000D01*
X247532000Y-41733000D01*
X247530000Y-41735000D01*
X247528000Y-41737000D01*
X247526000Y-41739000D01*
X247524000Y-41740000D01*
X247522000Y-41742000D01*
X247520000Y-41743000D01*
X247518000Y-41745000D01*
X247515000Y-41746000D01*
X247513000Y-41747000D01*
X247510000Y-41748000D01*
X247508000Y-41748000D01*
X247505000Y-41749000D01*
X247503000Y-41749000D01*
X247500000Y-41750000D01*
X247498000Y-41750000D01*
X247495000Y-41750000D01*
X247345000Y-41750000D01*
X247342000Y-41750000D01*
X247340000Y-41750000D01*
X247337000Y-41749000D01*
X247335000Y-41749000D01*
X247332000Y-41748000D01*
X247330000Y-41748000D01*
X247327000Y-41747000D01*
X247325000Y-41746000D01*
X247322000Y-41745000D01*
X247320000Y-41743000D01*
X247318000Y-41742000D01*
X247316000Y-41740000D01*
X247314000Y-41739000D01*
X247312000Y-41737000D01*
X247310000Y-41735000D01*
X247308000Y-41733000D01*
X247306000Y-41731000D01*
X247305000Y-41729000D01*
X247303000Y-41727000D01*
X247302000Y-41725000D01*
X247300000Y-41723000D01*
X247299000Y-41720000D01*
X247298000Y-41718000D01*
X247297000Y-41715000D01*
X247297000Y-41713000D01*
X247296000Y-41710000D01*
X247296000Y-41708000D01*
X247295000Y-41705000D01*
X247295000Y-41703000D01*
X247295000Y-41700000D01*
X247295000Y-40800000D01*
X247295000Y-40797000D01*
X247295000Y-40795000D01*
X247296000Y-40792000D01*
X247296000Y-40790000D01*
X247297000Y-40787000D01*
X247297000Y-40785000D01*
X247298000Y-40782000D01*
X247299000Y-40780000D01*
X247300000Y-40777000D01*
X247302000Y-40775000D01*
X247303000Y-40773000D01*
X247305000Y-40771000D01*
X247306000Y-40769000D01*
X247308000Y-40767000D01*
X247310000Y-40765000D01*
X247312000Y-40763000D01*
X247314000Y-40761000D01*
X247316000Y-40760000D01*
X247318000Y-40758000D01*
X247320000Y-40757000D01*
X247322000Y-40755000D01*
X247325000Y-40754000D01*
X247327000Y-40753000D01*
X247330000Y-40752000D01*
X247332000Y-40752000D01*
X247335000Y-40751000D01*
X247337000Y-40751000D01*
X247340000Y-40750000D01*
X247342000Y-40750000D01*
X247345000Y-40750000D01*
X247495000Y-40750000D01*
X247498000Y-40750000D01*
X247500000Y-40750000D01*
X247503000Y-40751000D01*
G37*
X247503000Y-41951000D02*
X247505000Y-41951000D01*
X247508000Y-41952000D01*
X247510000Y-41952000D01*
X247513000Y-41953000D01*
X247515000Y-41954000D01*
X247518000Y-41955000D01*
X247520000Y-41957000D01*
X247522000Y-41958000D01*
X247524000Y-41960000D01*
X247526000Y-41961000D01*
X247528000Y-41963000D01*
X247530000Y-41965000D01*
X247532000Y-41967000D01*
X247534000Y-41969000D01*
X247535000Y-41971000D01*
X247537000Y-41973000D01*
X247538000Y-41975000D01*
X247540000Y-41977000D01*
X247541000Y-41980000D01*
X247542000Y-41982000D01*
X247543000Y-41985000D01*
X247543000Y-41987000D01*
X247544000Y-41990000D01*
X247544000Y-41992000D01*
X247545000Y-41995000D01*
X247545000Y-41997000D01*
X247545000Y-42000000D01*
X247545000Y-42900000D01*
X247545000Y-42903000D01*
X247545000Y-42905000D01*
X247544000Y-42908000D01*
X247544000Y-42910000D01*
X247543000Y-42913000D01*
X247543000Y-42915000D01*
X247542000Y-42918000D01*
X247541000Y-42920000D01*
X247540000Y-42923000D01*
X247538000Y-42925000D01*
X247537000Y-42927000D01*
X247535000Y-42929000D01*
X247534000Y-42931000D01*
X247532000Y-42933000D01*
X247530000Y-42935000D01*
X247528000Y-42937000D01*
X247526000Y-42939000D01*
X247524000Y-42940000D01*
X247522000Y-42942000D01*
X247520000Y-42943000D01*
X247518000Y-42945000D01*
X247515000Y-42946000D01*
X247513000Y-42947000D01*
X247510000Y-42948000D01*
X247508000Y-42948000D01*
X247505000Y-42949000D01*
X247503000Y-42949000D01*
X247500000Y-42950000D01*
X247498000Y-42950000D01*
X247495000Y-42950000D01*
X247345000Y-42950000D01*
X247342000Y-42950000D01*
X247340000Y-42950000D01*
X247337000Y-42949000D01*
X247335000Y-42949000D01*
X247332000Y-42948000D01*
X247330000Y-42948000D01*
X247327000Y-42947000D01*
X247325000Y-42946000D01*
X247322000Y-42945000D01*
X247320000Y-42943000D01*
X247318000Y-42942000D01*
X247316000Y-42940000D01*
X247314000Y-42939000D01*
X247312000Y-42937000D01*
X247310000Y-42935000D01*
X247308000Y-42933000D01*
X247306000Y-42931000D01*
X247305000Y-42929000D01*
X247303000Y-42927000D01*
X247302000Y-42925000D01*
X247300000Y-42923000D01*
X247299000Y-42920000D01*
X247298000Y-42918000D01*
X247297000Y-42915000D01*
X247297000Y-42913000D01*
X247296000Y-42910000D01*
X247296000Y-42908000D01*
X247295000Y-42905000D01*
X247295000Y-42903000D01*
X247295000Y-42900000D01*
X247295000Y-42000000D01*
X247295000Y-41997000D01*
X247295000Y-41995000D01*
X247296000Y-41992000D01*
X247296000Y-41990000D01*
X247297000Y-41987000D01*
X247297000Y-41985000D01*
X247298000Y-41982000D01*
X247299000Y-41980000D01*
X247300000Y-41977000D01*
X247302000Y-41975000D01*
X247303000Y-41973000D01*
X247305000Y-41971000D01*
X247306000Y-41969000D01*
X247308000Y-41967000D01*
X247310000Y-41965000D01*
X247312000Y-41963000D01*
X247314000Y-41961000D01*
X247316000Y-41960000D01*
X247318000Y-41958000D01*
X247320000Y-41957000D01*
X247322000Y-41955000D01*
X247325000Y-41954000D01*
X247327000Y-41953000D01*
X247330000Y-41952000D01*
X247332000Y-41952000D01*
X247335000Y-41951000D01*
X247337000Y-41951000D01*
X247340000Y-41950000D01*
X247342000Y-41950000D01*
X247345000Y-41950000D01*
X247495000Y-41950000D01*
X247498000Y-41950000D01*
X247500000Y-41950000D01*
X247503000Y-41951000D01*
G36*
X247503000Y-41951000D02*
G01*
X247505000Y-41951000D01*
X247508000Y-41952000D01*
X247510000Y-41952000D01*
X247513000Y-41953000D01*
X247515000Y-41954000D01*
X247518000Y-41955000D01*
X247520000Y-41957000D01*
X247522000Y-41958000D01*
X247524000Y-41960000D01*
X247526000Y-41961000D01*
X247528000Y-41963000D01*
X247530000Y-41965000D01*
X247532000Y-41967000D01*
X247534000Y-41969000D01*
X247535000Y-41971000D01*
X247537000Y-41973000D01*
X247538000Y-41975000D01*
X247540000Y-41977000D01*
X247541000Y-41980000D01*
X247542000Y-41982000D01*
X247543000Y-41985000D01*
X247543000Y-41987000D01*
X247544000Y-41990000D01*
X247544000Y-41992000D01*
X247545000Y-41995000D01*
X247545000Y-41997000D01*
X247545000Y-42000000D01*
X247545000Y-42900000D01*
X247545000Y-42903000D01*
X247545000Y-42905000D01*
X247544000Y-42908000D01*
X247544000Y-42910000D01*
X247543000Y-42913000D01*
X247543000Y-42915000D01*
X247542000Y-42918000D01*
X247541000Y-42920000D01*
X247540000Y-42923000D01*
X247538000Y-42925000D01*
X247537000Y-42927000D01*
X247535000Y-42929000D01*
X247534000Y-42931000D01*
X247532000Y-42933000D01*
X247530000Y-42935000D01*
X247528000Y-42937000D01*
X247526000Y-42939000D01*
X247524000Y-42940000D01*
X247522000Y-42942000D01*
X247520000Y-42943000D01*
X247518000Y-42945000D01*
X247515000Y-42946000D01*
X247513000Y-42947000D01*
X247510000Y-42948000D01*
X247508000Y-42948000D01*
X247505000Y-42949000D01*
X247503000Y-42949000D01*
X247500000Y-42950000D01*
X247498000Y-42950000D01*
X247495000Y-42950000D01*
X247345000Y-42950000D01*
X247342000Y-42950000D01*
X247340000Y-42950000D01*
X247337000Y-42949000D01*
X247335000Y-42949000D01*
X247332000Y-42948000D01*
X247330000Y-42948000D01*
X247327000Y-42947000D01*
X247325000Y-42946000D01*
X247322000Y-42945000D01*
X247320000Y-42943000D01*
X247318000Y-42942000D01*
X247316000Y-42940000D01*
X247314000Y-42939000D01*
X247312000Y-42937000D01*
X247310000Y-42935000D01*
X247308000Y-42933000D01*
X247306000Y-42931000D01*
X247305000Y-42929000D01*
X247303000Y-42927000D01*
X247302000Y-42925000D01*
X247300000Y-42923000D01*
X247299000Y-42920000D01*
X247298000Y-42918000D01*
X247297000Y-42915000D01*
X247297000Y-42913000D01*
X247296000Y-42910000D01*
X247296000Y-42908000D01*
X247295000Y-42905000D01*
X247295000Y-42903000D01*
X247295000Y-42900000D01*
X247295000Y-42000000D01*
X247295000Y-41997000D01*
X247295000Y-41995000D01*
X247296000Y-41992000D01*
X247296000Y-41990000D01*
X247297000Y-41987000D01*
X247297000Y-41985000D01*
X247298000Y-41982000D01*
X247299000Y-41980000D01*
X247300000Y-41977000D01*
X247302000Y-41975000D01*
X247303000Y-41973000D01*
X247305000Y-41971000D01*
X247306000Y-41969000D01*
X247308000Y-41967000D01*
X247310000Y-41965000D01*
X247312000Y-41963000D01*
X247314000Y-41961000D01*
X247316000Y-41960000D01*
X247318000Y-41958000D01*
X247320000Y-41957000D01*
X247322000Y-41955000D01*
X247325000Y-41954000D01*
X247327000Y-41953000D01*
X247330000Y-41952000D01*
X247332000Y-41952000D01*
X247335000Y-41951000D01*
X247337000Y-41951000D01*
X247340000Y-41950000D01*
X247342000Y-41950000D01*
X247345000Y-41950000D01*
X247495000Y-41950000D01*
X247498000Y-41950000D01*
X247500000Y-41950000D01*
X247503000Y-41951000D01*
G37*
X248003000Y-39551000D02*
X248005000Y-39551000D01*
X248008000Y-39552000D01*
X248010000Y-39552000D01*
X248013000Y-39553000D01*
X248015000Y-39554000D01*
X248018000Y-39555000D01*
X248020000Y-39557000D01*
X248022000Y-39558000D01*
X248024000Y-39560000D01*
X248026000Y-39561000D01*
X248028000Y-39563000D01*
X248030000Y-39565000D01*
X248032000Y-39567000D01*
X248034000Y-39569000D01*
X248035000Y-39571000D01*
X248037000Y-39573000D01*
X248038000Y-39575000D01*
X248040000Y-39577000D01*
X248041000Y-39580000D01*
X248042000Y-39582000D01*
X248043000Y-39585000D01*
X248043000Y-39587000D01*
X248044000Y-39590000D01*
X248044000Y-39592000D01*
X248045000Y-39595000D01*
X248045000Y-39597000D01*
X248045000Y-39600000D01*
X248045000Y-40500000D01*
X248045000Y-40503000D01*
X248045000Y-40505000D01*
X248044000Y-40508000D01*
X248044000Y-40510000D01*
X248043000Y-40513000D01*
X248043000Y-40515000D01*
X248042000Y-40518000D01*
X248041000Y-40520000D01*
X248040000Y-40523000D01*
X248038000Y-40525000D01*
X248037000Y-40527000D01*
X248035000Y-40529000D01*
X248034000Y-40531000D01*
X248032000Y-40533000D01*
X248030000Y-40535000D01*
X248028000Y-40537000D01*
X248026000Y-40539000D01*
X248024000Y-40540000D01*
X248022000Y-40542000D01*
X248020000Y-40543000D01*
X248018000Y-40545000D01*
X248015000Y-40546000D01*
X248013000Y-40547000D01*
X248010000Y-40548000D01*
X248008000Y-40548000D01*
X248005000Y-40549000D01*
X248003000Y-40549000D01*
X248000000Y-40550000D01*
X247998000Y-40550000D01*
X247995000Y-40550000D01*
X247845000Y-40550000D01*
X247842000Y-40550000D01*
X247840000Y-40550000D01*
X247837000Y-40549000D01*
X247835000Y-40549000D01*
X247832000Y-40548000D01*
X247830000Y-40548000D01*
X247827000Y-40547000D01*
X247825000Y-40546000D01*
X247822000Y-40545000D01*
X247820000Y-40543000D01*
X247818000Y-40542000D01*
X247816000Y-40540000D01*
X247814000Y-40539000D01*
X247812000Y-40537000D01*
X247810000Y-40535000D01*
X247808000Y-40533000D01*
X247806000Y-40531000D01*
X247805000Y-40529000D01*
X247803000Y-40527000D01*
X247802000Y-40525000D01*
X247800000Y-40523000D01*
X247799000Y-40520000D01*
X247798000Y-40518000D01*
X247797000Y-40515000D01*
X247797000Y-40513000D01*
X247796000Y-40510000D01*
X247796000Y-40508000D01*
X247795000Y-40505000D01*
X247795000Y-40503000D01*
X247795000Y-40500000D01*
X247795000Y-39600000D01*
X247795000Y-39597000D01*
X247795000Y-39595000D01*
X247796000Y-39592000D01*
X247796000Y-39590000D01*
X247797000Y-39587000D01*
X247797000Y-39585000D01*
X247798000Y-39582000D01*
X247799000Y-39580000D01*
X247800000Y-39577000D01*
X247802000Y-39575000D01*
X247803000Y-39573000D01*
X247805000Y-39571000D01*
X247806000Y-39569000D01*
X247808000Y-39567000D01*
X247810000Y-39565000D01*
X247812000Y-39563000D01*
X247814000Y-39561000D01*
X247816000Y-39560000D01*
X247818000Y-39558000D01*
X247820000Y-39557000D01*
X247822000Y-39555000D01*
X247825000Y-39554000D01*
X247827000Y-39553000D01*
X247830000Y-39552000D01*
X247832000Y-39552000D01*
X247835000Y-39551000D01*
X247837000Y-39551000D01*
X247840000Y-39550000D01*
X247842000Y-39550000D01*
X247845000Y-39550000D01*
X247995000Y-39550000D01*
X247998000Y-39550000D01*
X248000000Y-39550000D01*
X248003000Y-39551000D01*
G36*
X248003000Y-39551000D02*
G01*
X248005000Y-39551000D01*
X248008000Y-39552000D01*
X248010000Y-39552000D01*
X248013000Y-39553000D01*
X248015000Y-39554000D01*
X248018000Y-39555000D01*
X248020000Y-39557000D01*
X248022000Y-39558000D01*
X248024000Y-39560000D01*
X248026000Y-39561000D01*
X248028000Y-39563000D01*
X248030000Y-39565000D01*
X248032000Y-39567000D01*
X248034000Y-39569000D01*
X248035000Y-39571000D01*
X248037000Y-39573000D01*
X248038000Y-39575000D01*
X248040000Y-39577000D01*
X248041000Y-39580000D01*
X248042000Y-39582000D01*
X248043000Y-39585000D01*
X248043000Y-39587000D01*
X248044000Y-39590000D01*
X248044000Y-39592000D01*
X248045000Y-39595000D01*
X248045000Y-39597000D01*
X248045000Y-39600000D01*
X248045000Y-40500000D01*
X248045000Y-40503000D01*
X248045000Y-40505000D01*
X248044000Y-40508000D01*
X248044000Y-40510000D01*
X248043000Y-40513000D01*
X248043000Y-40515000D01*
X248042000Y-40518000D01*
X248041000Y-40520000D01*
X248040000Y-40523000D01*
X248038000Y-40525000D01*
X248037000Y-40527000D01*
X248035000Y-40529000D01*
X248034000Y-40531000D01*
X248032000Y-40533000D01*
X248030000Y-40535000D01*
X248028000Y-40537000D01*
X248026000Y-40539000D01*
X248024000Y-40540000D01*
X248022000Y-40542000D01*
X248020000Y-40543000D01*
X248018000Y-40545000D01*
X248015000Y-40546000D01*
X248013000Y-40547000D01*
X248010000Y-40548000D01*
X248008000Y-40548000D01*
X248005000Y-40549000D01*
X248003000Y-40549000D01*
X248000000Y-40550000D01*
X247998000Y-40550000D01*
X247995000Y-40550000D01*
X247845000Y-40550000D01*
X247842000Y-40550000D01*
X247840000Y-40550000D01*
X247837000Y-40549000D01*
X247835000Y-40549000D01*
X247832000Y-40548000D01*
X247830000Y-40548000D01*
X247827000Y-40547000D01*
X247825000Y-40546000D01*
X247822000Y-40545000D01*
X247820000Y-40543000D01*
X247818000Y-40542000D01*
X247816000Y-40540000D01*
X247814000Y-40539000D01*
X247812000Y-40537000D01*
X247810000Y-40535000D01*
X247808000Y-40533000D01*
X247806000Y-40531000D01*
X247805000Y-40529000D01*
X247803000Y-40527000D01*
X247802000Y-40525000D01*
X247800000Y-40523000D01*
X247799000Y-40520000D01*
X247798000Y-40518000D01*
X247797000Y-40515000D01*
X247797000Y-40513000D01*
X247796000Y-40510000D01*
X247796000Y-40508000D01*
X247795000Y-40505000D01*
X247795000Y-40503000D01*
X247795000Y-40500000D01*
X247795000Y-39600000D01*
X247795000Y-39597000D01*
X247795000Y-39595000D01*
X247796000Y-39592000D01*
X247796000Y-39590000D01*
X247797000Y-39587000D01*
X247797000Y-39585000D01*
X247798000Y-39582000D01*
X247799000Y-39580000D01*
X247800000Y-39577000D01*
X247802000Y-39575000D01*
X247803000Y-39573000D01*
X247805000Y-39571000D01*
X247806000Y-39569000D01*
X247808000Y-39567000D01*
X247810000Y-39565000D01*
X247812000Y-39563000D01*
X247814000Y-39561000D01*
X247816000Y-39560000D01*
X247818000Y-39558000D01*
X247820000Y-39557000D01*
X247822000Y-39555000D01*
X247825000Y-39554000D01*
X247827000Y-39553000D01*
X247830000Y-39552000D01*
X247832000Y-39552000D01*
X247835000Y-39551000D01*
X247837000Y-39551000D01*
X247840000Y-39550000D01*
X247842000Y-39550000D01*
X247845000Y-39550000D01*
X247995000Y-39550000D01*
X247998000Y-39550000D01*
X248000000Y-39550000D01*
X248003000Y-39551000D01*
G37*
X248003000Y-40751000D02*
X248005000Y-40751000D01*
X248008000Y-40752000D01*
X248010000Y-40752000D01*
X248013000Y-40753000D01*
X248015000Y-40754000D01*
X248018000Y-40755000D01*
X248020000Y-40757000D01*
X248022000Y-40758000D01*
X248024000Y-40760000D01*
X248026000Y-40761000D01*
X248028000Y-40763000D01*
X248030000Y-40765000D01*
X248032000Y-40767000D01*
X248034000Y-40769000D01*
X248035000Y-40771000D01*
X248037000Y-40773000D01*
X248038000Y-40775000D01*
X248040000Y-40777000D01*
X248041000Y-40780000D01*
X248042000Y-40782000D01*
X248043000Y-40785000D01*
X248043000Y-40787000D01*
X248044000Y-40790000D01*
X248044000Y-40792000D01*
X248045000Y-40795000D01*
X248045000Y-40797000D01*
X248045000Y-40800000D01*
X248045000Y-41700000D01*
X248045000Y-41703000D01*
X248045000Y-41705000D01*
X248044000Y-41708000D01*
X248044000Y-41710000D01*
X248043000Y-41713000D01*
X248043000Y-41715000D01*
X248042000Y-41718000D01*
X248041000Y-41720000D01*
X248040000Y-41723000D01*
X248038000Y-41725000D01*
X248037000Y-41727000D01*
X248035000Y-41729000D01*
X248034000Y-41731000D01*
X248032000Y-41733000D01*
X248030000Y-41735000D01*
X248028000Y-41737000D01*
X248026000Y-41739000D01*
X248024000Y-41740000D01*
X248022000Y-41742000D01*
X248020000Y-41743000D01*
X248018000Y-41745000D01*
X248015000Y-41746000D01*
X248013000Y-41747000D01*
X248010000Y-41748000D01*
X248008000Y-41748000D01*
X248005000Y-41749000D01*
X248003000Y-41749000D01*
X248000000Y-41750000D01*
X247998000Y-41750000D01*
X247995000Y-41750000D01*
X247845000Y-41750000D01*
X247842000Y-41750000D01*
X247840000Y-41750000D01*
X247837000Y-41749000D01*
X247835000Y-41749000D01*
X247832000Y-41748000D01*
X247830000Y-41748000D01*
X247827000Y-41747000D01*
X247825000Y-41746000D01*
X247822000Y-41745000D01*
X247820000Y-41743000D01*
X247818000Y-41742000D01*
X247816000Y-41740000D01*
X247814000Y-41739000D01*
X247812000Y-41737000D01*
X247810000Y-41735000D01*
X247808000Y-41733000D01*
X247806000Y-41731000D01*
X247805000Y-41729000D01*
X247803000Y-41727000D01*
X247802000Y-41725000D01*
X247800000Y-41723000D01*
X247799000Y-41720000D01*
X247798000Y-41718000D01*
X247797000Y-41715000D01*
X247797000Y-41713000D01*
X247796000Y-41710000D01*
X247796000Y-41708000D01*
X247795000Y-41705000D01*
X247795000Y-41703000D01*
X247795000Y-41700000D01*
X247795000Y-40800000D01*
X247795000Y-40797000D01*
X247795000Y-40795000D01*
X247796000Y-40792000D01*
X247796000Y-40790000D01*
X247797000Y-40787000D01*
X247797000Y-40785000D01*
X247798000Y-40782000D01*
X247799000Y-40780000D01*
X247800000Y-40777000D01*
X247802000Y-40775000D01*
X247803000Y-40773000D01*
X247805000Y-40771000D01*
X247806000Y-40769000D01*
X247808000Y-40767000D01*
X247810000Y-40765000D01*
X247812000Y-40763000D01*
X247814000Y-40761000D01*
X247816000Y-40760000D01*
X247818000Y-40758000D01*
X247820000Y-40757000D01*
X247822000Y-40755000D01*
X247825000Y-40754000D01*
X247827000Y-40753000D01*
X247830000Y-40752000D01*
X247832000Y-40752000D01*
X247835000Y-40751000D01*
X247837000Y-40751000D01*
X247840000Y-40750000D01*
X247842000Y-40750000D01*
X247845000Y-40750000D01*
X247995000Y-40750000D01*
X247998000Y-40750000D01*
X248000000Y-40750000D01*
X248003000Y-40751000D01*
G36*
X248003000Y-40751000D02*
G01*
X248005000Y-40751000D01*
X248008000Y-40752000D01*
X248010000Y-40752000D01*
X248013000Y-40753000D01*
X248015000Y-40754000D01*
X248018000Y-40755000D01*
X248020000Y-40757000D01*
X248022000Y-40758000D01*
X248024000Y-40760000D01*
X248026000Y-40761000D01*
X248028000Y-40763000D01*
X248030000Y-40765000D01*
X248032000Y-40767000D01*
X248034000Y-40769000D01*
X248035000Y-40771000D01*
X248037000Y-40773000D01*
X248038000Y-40775000D01*
X248040000Y-40777000D01*
X248041000Y-40780000D01*
X248042000Y-40782000D01*
X248043000Y-40785000D01*
X248043000Y-40787000D01*
X248044000Y-40790000D01*
X248044000Y-40792000D01*
X248045000Y-40795000D01*
X248045000Y-40797000D01*
X248045000Y-40800000D01*
X248045000Y-41700000D01*
X248045000Y-41703000D01*
X248045000Y-41705000D01*
X248044000Y-41708000D01*
X248044000Y-41710000D01*
X248043000Y-41713000D01*
X248043000Y-41715000D01*
X248042000Y-41718000D01*
X248041000Y-41720000D01*
X248040000Y-41723000D01*
X248038000Y-41725000D01*
X248037000Y-41727000D01*
X248035000Y-41729000D01*
X248034000Y-41731000D01*
X248032000Y-41733000D01*
X248030000Y-41735000D01*
X248028000Y-41737000D01*
X248026000Y-41739000D01*
X248024000Y-41740000D01*
X248022000Y-41742000D01*
X248020000Y-41743000D01*
X248018000Y-41745000D01*
X248015000Y-41746000D01*
X248013000Y-41747000D01*
X248010000Y-41748000D01*
X248008000Y-41748000D01*
X248005000Y-41749000D01*
X248003000Y-41749000D01*
X248000000Y-41750000D01*
X247998000Y-41750000D01*
X247995000Y-41750000D01*
X247845000Y-41750000D01*
X247842000Y-41750000D01*
X247840000Y-41750000D01*
X247837000Y-41749000D01*
X247835000Y-41749000D01*
X247832000Y-41748000D01*
X247830000Y-41748000D01*
X247827000Y-41747000D01*
X247825000Y-41746000D01*
X247822000Y-41745000D01*
X247820000Y-41743000D01*
X247818000Y-41742000D01*
X247816000Y-41740000D01*
X247814000Y-41739000D01*
X247812000Y-41737000D01*
X247810000Y-41735000D01*
X247808000Y-41733000D01*
X247806000Y-41731000D01*
X247805000Y-41729000D01*
X247803000Y-41727000D01*
X247802000Y-41725000D01*
X247800000Y-41723000D01*
X247799000Y-41720000D01*
X247798000Y-41718000D01*
X247797000Y-41715000D01*
X247797000Y-41713000D01*
X247796000Y-41710000D01*
X247796000Y-41708000D01*
X247795000Y-41705000D01*
X247795000Y-41703000D01*
X247795000Y-41700000D01*
X247795000Y-40800000D01*
X247795000Y-40797000D01*
X247795000Y-40795000D01*
X247796000Y-40792000D01*
X247796000Y-40790000D01*
X247797000Y-40787000D01*
X247797000Y-40785000D01*
X247798000Y-40782000D01*
X247799000Y-40780000D01*
X247800000Y-40777000D01*
X247802000Y-40775000D01*
X247803000Y-40773000D01*
X247805000Y-40771000D01*
X247806000Y-40769000D01*
X247808000Y-40767000D01*
X247810000Y-40765000D01*
X247812000Y-40763000D01*
X247814000Y-40761000D01*
X247816000Y-40760000D01*
X247818000Y-40758000D01*
X247820000Y-40757000D01*
X247822000Y-40755000D01*
X247825000Y-40754000D01*
X247827000Y-40753000D01*
X247830000Y-40752000D01*
X247832000Y-40752000D01*
X247835000Y-40751000D01*
X247837000Y-40751000D01*
X247840000Y-40750000D01*
X247842000Y-40750000D01*
X247845000Y-40750000D01*
X247995000Y-40750000D01*
X247998000Y-40750000D01*
X248000000Y-40750000D01*
X248003000Y-40751000D01*
G37*
X248003000Y-41951000D02*
X248005000Y-41951000D01*
X248008000Y-41952000D01*
X248010000Y-41952000D01*
X248013000Y-41953000D01*
X248015000Y-41954000D01*
X248018000Y-41955000D01*
X248020000Y-41957000D01*
X248022000Y-41958000D01*
X248024000Y-41960000D01*
X248026000Y-41961000D01*
X248028000Y-41963000D01*
X248030000Y-41965000D01*
X248032000Y-41967000D01*
X248034000Y-41969000D01*
X248035000Y-41971000D01*
X248037000Y-41973000D01*
X248038000Y-41975000D01*
X248040000Y-41977000D01*
X248041000Y-41980000D01*
X248042000Y-41982000D01*
X248043000Y-41985000D01*
X248043000Y-41987000D01*
X248044000Y-41990000D01*
X248044000Y-41992000D01*
X248045000Y-41995000D01*
X248045000Y-41997000D01*
X248045000Y-42000000D01*
X248045000Y-42900000D01*
X248045000Y-42903000D01*
X248045000Y-42905000D01*
X248044000Y-42908000D01*
X248044000Y-42910000D01*
X248043000Y-42913000D01*
X248043000Y-42915000D01*
X248042000Y-42918000D01*
X248041000Y-42920000D01*
X248040000Y-42923000D01*
X248038000Y-42925000D01*
X248037000Y-42927000D01*
X248035000Y-42929000D01*
X248034000Y-42931000D01*
X248032000Y-42933000D01*
X248030000Y-42935000D01*
X248028000Y-42937000D01*
X248026000Y-42939000D01*
X248024000Y-42940000D01*
X248022000Y-42942000D01*
X248020000Y-42943000D01*
X248018000Y-42945000D01*
X248015000Y-42946000D01*
X248013000Y-42947000D01*
X248010000Y-42948000D01*
X248008000Y-42948000D01*
X248005000Y-42949000D01*
X248003000Y-42949000D01*
X248000000Y-42950000D01*
X247998000Y-42950000D01*
X247995000Y-42950000D01*
X247845000Y-42950000D01*
X247842000Y-42950000D01*
X247840000Y-42950000D01*
X247837000Y-42949000D01*
X247835000Y-42949000D01*
X247832000Y-42948000D01*
X247830000Y-42948000D01*
X247827000Y-42947000D01*
X247825000Y-42946000D01*
X247822000Y-42945000D01*
X247820000Y-42943000D01*
X247818000Y-42942000D01*
X247816000Y-42940000D01*
X247814000Y-42939000D01*
X247812000Y-42937000D01*
X247810000Y-42935000D01*
X247808000Y-42933000D01*
X247806000Y-42931000D01*
X247805000Y-42929000D01*
X247803000Y-42927000D01*
X247802000Y-42925000D01*
X247800000Y-42923000D01*
X247799000Y-42920000D01*
X247798000Y-42918000D01*
X247797000Y-42915000D01*
X247797000Y-42913000D01*
X247796000Y-42910000D01*
X247796000Y-42908000D01*
X247795000Y-42905000D01*
X247795000Y-42903000D01*
X247795000Y-42900000D01*
X247795000Y-42000000D01*
X247795000Y-41997000D01*
X247795000Y-41995000D01*
X247796000Y-41992000D01*
X247796000Y-41990000D01*
X247797000Y-41987000D01*
X247797000Y-41985000D01*
X247798000Y-41982000D01*
X247799000Y-41980000D01*
X247800000Y-41977000D01*
X247802000Y-41975000D01*
X247803000Y-41973000D01*
X247805000Y-41971000D01*
X247806000Y-41969000D01*
X247808000Y-41967000D01*
X247810000Y-41965000D01*
X247812000Y-41963000D01*
X247814000Y-41961000D01*
X247816000Y-41960000D01*
X247818000Y-41958000D01*
X247820000Y-41957000D01*
X247822000Y-41955000D01*
X247825000Y-41954000D01*
X247827000Y-41953000D01*
X247830000Y-41952000D01*
X247832000Y-41952000D01*
X247835000Y-41951000D01*
X247837000Y-41951000D01*
X247840000Y-41950000D01*
X247842000Y-41950000D01*
X247845000Y-41950000D01*
X247995000Y-41950000D01*
X247998000Y-41950000D01*
X248000000Y-41950000D01*
X248003000Y-41951000D01*
G36*
X248003000Y-41951000D02*
G01*
X248005000Y-41951000D01*
X248008000Y-41952000D01*
X248010000Y-41952000D01*
X248013000Y-41953000D01*
X248015000Y-41954000D01*
X248018000Y-41955000D01*
X248020000Y-41957000D01*
X248022000Y-41958000D01*
X248024000Y-41960000D01*
X248026000Y-41961000D01*
X248028000Y-41963000D01*
X248030000Y-41965000D01*
X248032000Y-41967000D01*
X248034000Y-41969000D01*
X248035000Y-41971000D01*
X248037000Y-41973000D01*
X248038000Y-41975000D01*
X248040000Y-41977000D01*
X248041000Y-41980000D01*
X248042000Y-41982000D01*
X248043000Y-41985000D01*
X248043000Y-41987000D01*
X248044000Y-41990000D01*
X248044000Y-41992000D01*
X248045000Y-41995000D01*
X248045000Y-41997000D01*
X248045000Y-42000000D01*
X248045000Y-42900000D01*
X248045000Y-42903000D01*
X248045000Y-42905000D01*
X248044000Y-42908000D01*
X248044000Y-42910000D01*
X248043000Y-42913000D01*
X248043000Y-42915000D01*
X248042000Y-42918000D01*
X248041000Y-42920000D01*
X248040000Y-42923000D01*
X248038000Y-42925000D01*
X248037000Y-42927000D01*
X248035000Y-42929000D01*
X248034000Y-42931000D01*
X248032000Y-42933000D01*
X248030000Y-42935000D01*
X248028000Y-42937000D01*
X248026000Y-42939000D01*
X248024000Y-42940000D01*
X248022000Y-42942000D01*
X248020000Y-42943000D01*
X248018000Y-42945000D01*
X248015000Y-42946000D01*
X248013000Y-42947000D01*
X248010000Y-42948000D01*
X248008000Y-42948000D01*
X248005000Y-42949000D01*
X248003000Y-42949000D01*
X248000000Y-42950000D01*
X247998000Y-42950000D01*
X247995000Y-42950000D01*
X247845000Y-42950000D01*
X247842000Y-42950000D01*
X247840000Y-42950000D01*
X247837000Y-42949000D01*
X247835000Y-42949000D01*
X247832000Y-42948000D01*
X247830000Y-42948000D01*
X247827000Y-42947000D01*
X247825000Y-42946000D01*
X247822000Y-42945000D01*
X247820000Y-42943000D01*
X247818000Y-42942000D01*
X247816000Y-42940000D01*
X247814000Y-42939000D01*
X247812000Y-42937000D01*
X247810000Y-42935000D01*
X247808000Y-42933000D01*
X247806000Y-42931000D01*
X247805000Y-42929000D01*
X247803000Y-42927000D01*
X247802000Y-42925000D01*
X247800000Y-42923000D01*
X247799000Y-42920000D01*
X247798000Y-42918000D01*
X247797000Y-42915000D01*
X247797000Y-42913000D01*
X247796000Y-42910000D01*
X247796000Y-42908000D01*
X247795000Y-42905000D01*
X247795000Y-42903000D01*
X247795000Y-42900000D01*
X247795000Y-42000000D01*
X247795000Y-41997000D01*
X247795000Y-41995000D01*
X247796000Y-41992000D01*
X247796000Y-41990000D01*
X247797000Y-41987000D01*
X247797000Y-41985000D01*
X247798000Y-41982000D01*
X247799000Y-41980000D01*
X247800000Y-41977000D01*
X247802000Y-41975000D01*
X247803000Y-41973000D01*
X247805000Y-41971000D01*
X247806000Y-41969000D01*
X247808000Y-41967000D01*
X247810000Y-41965000D01*
X247812000Y-41963000D01*
X247814000Y-41961000D01*
X247816000Y-41960000D01*
X247818000Y-41958000D01*
X247820000Y-41957000D01*
X247822000Y-41955000D01*
X247825000Y-41954000D01*
X247827000Y-41953000D01*
X247830000Y-41952000D01*
X247832000Y-41952000D01*
X247835000Y-41951000D01*
X247837000Y-41951000D01*
X247840000Y-41950000D01*
X247842000Y-41950000D01*
X247845000Y-41950000D01*
X247995000Y-41950000D01*
X247998000Y-41950000D01*
X248000000Y-41950000D01*
X248003000Y-41951000D01*
G37*
X248583000Y-40751000D02*
X248585000Y-40751000D01*
X248588000Y-40752000D01*
X248590000Y-40752000D01*
X248593000Y-40753000D01*
X248595000Y-40754000D01*
X248598000Y-40755000D01*
X248600000Y-40757000D01*
X248602000Y-40758000D01*
X248604000Y-40760000D01*
X248606000Y-40761000D01*
X248608000Y-40763000D01*
X248610000Y-40765000D01*
X248612000Y-40767000D01*
X248614000Y-40769000D01*
X248615000Y-40771000D01*
X248617000Y-40773000D01*
X248618000Y-40775000D01*
X248620000Y-40777000D01*
X248621000Y-40780000D01*
X248622000Y-40782000D01*
X248623000Y-40785000D01*
X248623000Y-40787000D01*
X248624000Y-40790000D01*
X248624000Y-40792000D01*
X248625000Y-40795000D01*
X248625000Y-40797000D01*
X248625000Y-40800000D01*
X248625000Y-41700000D01*
X248625000Y-41703000D01*
X248625000Y-41705000D01*
X248624000Y-41708000D01*
X248624000Y-41710000D01*
X248623000Y-41713000D01*
X248623000Y-41715000D01*
X248622000Y-41718000D01*
X248621000Y-41720000D01*
X248620000Y-41723000D01*
X248618000Y-41725000D01*
X248617000Y-41727000D01*
X248615000Y-41729000D01*
X248614000Y-41731000D01*
X248612000Y-41733000D01*
X248610000Y-41735000D01*
X248608000Y-41737000D01*
X248606000Y-41739000D01*
X248604000Y-41740000D01*
X248602000Y-41742000D01*
X248600000Y-41743000D01*
X248598000Y-41745000D01*
X248595000Y-41746000D01*
X248593000Y-41747000D01*
X248590000Y-41748000D01*
X248588000Y-41748000D01*
X248585000Y-41749000D01*
X248583000Y-41749000D01*
X248580000Y-41750000D01*
X248578000Y-41750000D01*
X248575000Y-41750000D01*
X248345000Y-41750000D01*
X248342000Y-41750000D01*
X248340000Y-41750000D01*
X248337000Y-41749000D01*
X248335000Y-41749000D01*
X248332000Y-41748000D01*
X248330000Y-41748000D01*
X248327000Y-41747000D01*
X248325000Y-41746000D01*
X248322000Y-41745000D01*
X248320000Y-41743000D01*
X248318000Y-41742000D01*
X248316000Y-41740000D01*
X248314000Y-41739000D01*
X248312000Y-41737000D01*
X248310000Y-41735000D01*
X248308000Y-41733000D01*
X248306000Y-41731000D01*
X248305000Y-41729000D01*
X248303000Y-41727000D01*
X248302000Y-41725000D01*
X248300000Y-41723000D01*
X248299000Y-41720000D01*
X248298000Y-41718000D01*
X248297000Y-41715000D01*
X248297000Y-41713000D01*
X248296000Y-41710000D01*
X248296000Y-41708000D01*
X248295000Y-41705000D01*
X248295000Y-41703000D01*
X248295000Y-41700000D01*
X248295000Y-40800000D01*
X248295000Y-40797000D01*
X248295000Y-40795000D01*
X248296000Y-40792000D01*
X248296000Y-40790000D01*
X248297000Y-40787000D01*
X248297000Y-40785000D01*
X248298000Y-40782000D01*
X248299000Y-40780000D01*
X248300000Y-40777000D01*
X248302000Y-40775000D01*
X248303000Y-40773000D01*
X248305000Y-40771000D01*
X248306000Y-40769000D01*
X248308000Y-40767000D01*
X248310000Y-40765000D01*
X248312000Y-40763000D01*
X248314000Y-40761000D01*
X248316000Y-40760000D01*
X248318000Y-40758000D01*
X248320000Y-40757000D01*
X248322000Y-40755000D01*
X248325000Y-40754000D01*
X248327000Y-40753000D01*
X248330000Y-40752000D01*
X248332000Y-40752000D01*
X248335000Y-40751000D01*
X248337000Y-40751000D01*
X248340000Y-40750000D01*
X248342000Y-40750000D01*
X248345000Y-40750000D01*
X248575000Y-40750000D01*
X248578000Y-40750000D01*
X248580000Y-40750000D01*
X248583000Y-40751000D01*
G36*
X248583000Y-40751000D02*
G01*
X248585000Y-40751000D01*
X248588000Y-40752000D01*
X248590000Y-40752000D01*
X248593000Y-40753000D01*
X248595000Y-40754000D01*
X248598000Y-40755000D01*
X248600000Y-40757000D01*
X248602000Y-40758000D01*
X248604000Y-40760000D01*
X248606000Y-40761000D01*
X248608000Y-40763000D01*
X248610000Y-40765000D01*
X248612000Y-40767000D01*
X248614000Y-40769000D01*
X248615000Y-40771000D01*
X248617000Y-40773000D01*
X248618000Y-40775000D01*
X248620000Y-40777000D01*
X248621000Y-40780000D01*
X248622000Y-40782000D01*
X248623000Y-40785000D01*
X248623000Y-40787000D01*
X248624000Y-40790000D01*
X248624000Y-40792000D01*
X248625000Y-40795000D01*
X248625000Y-40797000D01*
X248625000Y-40800000D01*
X248625000Y-41700000D01*
X248625000Y-41703000D01*
X248625000Y-41705000D01*
X248624000Y-41708000D01*
X248624000Y-41710000D01*
X248623000Y-41713000D01*
X248623000Y-41715000D01*
X248622000Y-41718000D01*
X248621000Y-41720000D01*
X248620000Y-41723000D01*
X248618000Y-41725000D01*
X248617000Y-41727000D01*
X248615000Y-41729000D01*
X248614000Y-41731000D01*
X248612000Y-41733000D01*
X248610000Y-41735000D01*
X248608000Y-41737000D01*
X248606000Y-41739000D01*
X248604000Y-41740000D01*
X248602000Y-41742000D01*
X248600000Y-41743000D01*
X248598000Y-41745000D01*
X248595000Y-41746000D01*
X248593000Y-41747000D01*
X248590000Y-41748000D01*
X248588000Y-41748000D01*
X248585000Y-41749000D01*
X248583000Y-41749000D01*
X248580000Y-41750000D01*
X248578000Y-41750000D01*
X248575000Y-41750000D01*
X248345000Y-41750000D01*
X248342000Y-41750000D01*
X248340000Y-41750000D01*
X248337000Y-41749000D01*
X248335000Y-41749000D01*
X248332000Y-41748000D01*
X248330000Y-41748000D01*
X248327000Y-41747000D01*
X248325000Y-41746000D01*
X248322000Y-41745000D01*
X248320000Y-41743000D01*
X248318000Y-41742000D01*
X248316000Y-41740000D01*
X248314000Y-41739000D01*
X248312000Y-41737000D01*
X248310000Y-41735000D01*
X248308000Y-41733000D01*
X248306000Y-41731000D01*
X248305000Y-41729000D01*
X248303000Y-41727000D01*
X248302000Y-41725000D01*
X248300000Y-41723000D01*
X248299000Y-41720000D01*
X248298000Y-41718000D01*
X248297000Y-41715000D01*
X248297000Y-41713000D01*
X248296000Y-41710000D01*
X248296000Y-41708000D01*
X248295000Y-41705000D01*
X248295000Y-41703000D01*
X248295000Y-41700000D01*
X248295000Y-40800000D01*
X248295000Y-40797000D01*
X248295000Y-40795000D01*
X248296000Y-40792000D01*
X248296000Y-40790000D01*
X248297000Y-40787000D01*
X248297000Y-40785000D01*
X248298000Y-40782000D01*
X248299000Y-40780000D01*
X248300000Y-40777000D01*
X248302000Y-40775000D01*
X248303000Y-40773000D01*
X248305000Y-40771000D01*
X248306000Y-40769000D01*
X248308000Y-40767000D01*
X248310000Y-40765000D01*
X248312000Y-40763000D01*
X248314000Y-40761000D01*
X248316000Y-40760000D01*
X248318000Y-40758000D01*
X248320000Y-40757000D01*
X248322000Y-40755000D01*
X248325000Y-40754000D01*
X248327000Y-40753000D01*
X248330000Y-40752000D01*
X248332000Y-40752000D01*
X248335000Y-40751000D01*
X248337000Y-40751000D01*
X248340000Y-40750000D01*
X248342000Y-40750000D01*
X248345000Y-40750000D01*
X248575000Y-40750000D01*
X248578000Y-40750000D01*
X248580000Y-40750000D01*
X248583000Y-40751000D01*
G37*
X248543000Y-39551000D02*
X248545000Y-39551000D01*
X248548000Y-39552000D01*
X248550000Y-39552000D01*
X248553000Y-39553000D01*
X248555000Y-39554000D01*
X248558000Y-39555000D01*
X248560000Y-39557000D01*
X248562000Y-39558000D01*
X248564000Y-39560000D01*
X248566000Y-39561000D01*
X248568000Y-39563000D01*
X248570000Y-39565000D01*
X248572000Y-39567000D01*
X248574000Y-39569000D01*
X248575000Y-39571000D01*
X248577000Y-39573000D01*
X248578000Y-39575000D01*
X248580000Y-39577000D01*
X248581000Y-39580000D01*
X248582000Y-39582000D01*
X248583000Y-39585000D01*
X248583000Y-39587000D01*
X248584000Y-39590000D01*
X248584000Y-39592000D01*
X248585000Y-39595000D01*
X248585000Y-39597000D01*
X248585000Y-39600000D01*
X248585000Y-40500000D01*
X248585000Y-40503000D01*
X248585000Y-40505000D01*
X248584000Y-40508000D01*
X248584000Y-40510000D01*
X248583000Y-40513000D01*
X248583000Y-40515000D01*
X248582000Y-40518000D01*
X248581000Y-40520000D01*
X248580000Y-40523000D01*
X248578000Y-40525000D01*
X248577000Y-40527000D01*
X248575000Y-40529000D01*
X248574000Y-40531000D01*
X248572000Y-40533000D01*
X248570000Y-40535000D01*
X248568000Y-40537000D01*
X248566000Y-40539000D01*
X248564000Y-40540000D01*
X248562000Y-40542000D01*
X248560000Y-40543000D01*
X248558000Y-40545000D01*
X248555000Y-40546000D01*
X248553000Y-40547000D01*
X248550000Y-40548000D01*
X248548000Y-40548000D01*
X248545000Y-40549000D01*
X248543000Y-40549000D01*
X248540000Y-40550000D01*
X248538000Y-40550000D01*
X248535000Y-40550000D01*
X248385000Y-40550000D01*
X248382000Y-40550000D01*
X248380000Y-40550000D01*
X248377000Y-40549000D01*
X248375000Y-40549000D01*
X248372000Y-40548000D01*
X248370000Y-40548000D01*
X248367000Y-40547000D01*
X248365000Y-40546000D01*
X248362000Y-40545000D01*
X248360000Y-40543000D01*
X248358000Y-40542000D01*
X248356000Y-40540000D01*
X248354000Y-40539000D01*
X248352000Y-40537000D01*
X248350000Y-40535000D01*
X248348000Y-40533000D01*
X248346000Y-40531000D01*
X248345000Y-40529000D01*
X248343000Y-40527000D01*
X248342000Y-40525000D01*
X248340000Y-40523000D01*
X248339000Y-40520000D01*
X248338000Y-40518000D01*
X248337000Y-40515000D01*
X248337000Y-40513000D01*
X248336000Y-40510000D01*
X248336000Y-40508000D01*
X248335000Y-40505000D01*
X248335000Y-40503000D01*
X248335000Y-40500000D01*
X248335000Y-39600000D01*
X248335000Y-39597000D01*
X248335000Y-39595000D01*
X248336000Y-39592000D01*
X248336000Y-39590000D01*
X248337000Y-39587000D01*
X248337000Y-39585000D01*
X248338000Y-39582000D01*
X248339000Y-39580000D01*
X248340000Y-39577000D01*
X248342000Y-39575000D01*
X248343000Y-39573000D01*
X248345000Y-39571000D01*
X248346000Y-39569000D01*
X248348000Y-39567000D01*
X248350000Y-39565000D01*
X248352000Y-39563000D01*
X248354000Y-39561000D01*
X248356000Y-39560000D01*
X248358000Y-39558000D01*
X248360000Y-39557000D01*
X248362000Y-39555000D01*
X248365000Y-39554000D01*
X248367000Y-39553000D01*
X248370000Y-39552000D01*
X248372000Y-39552000D01*
X248375000Y-39551000D01*
X248377000Y-39551000D01*
X248380000Y-39550000D01*
X248382000Y-39550000D01*
X248385000Y-39550000D01*
X248535000Y-39550000D01*
X248538000Y-39550000D01*
X248540000Y-39550000D01*
X248543000Y-39551000D01*
G36*
X248543000Y-39551000D02*
G01*
X248545000Y-39551000D01*
X248548000Y-39552000D01*
X248550000Y-39552000D01*
X248553000Y-39553000D01*
X248555000Y-39554000D01*
X248558000Y-39555000D01*
X248560000Y-39557000D01*
X248562000Y-39558000D01*
X248564000Y-39560000D01*
X248566000Y-39561000D01*
X248568000Y-39563000D01*
X248570000Y-39565000D01*
X248572000Y-39567000D01*
X248574000Y-39569000D01*
X248575000Y-39571000D01*
X248577000Y-39573000D01*
X248578000Y-39575000D01*
X248580000Y-39577000D01*
X248581000Y-39580000D01*
X248582000Y-39582000D01*
X248583000Y-39585000D01*
X248583000Y-39587000D01*
X248584000Y-39590000D01*
X248584000Y-39592000D01*
X248585000Y-39595000D01*
X248585000Y-39597000D01*
X248585000Y-39600000D01*
X248585000Y-40500000D01*
X248585000Y-40503000D01*
X248585000Y-40505000D01*
X248584000Y-40508000D01*
X248584000Y-40510000D01*
X248583000Y-40513000D01*
X248583000Y-40515000D01*
X248582000Y-40518000D01*
X248581000Y-40520000D01*
X248580000Y-40523000D01*
X248578000Y-40525000D01*
X248577000Y-40527000D01*
X248575000Y-40529000D01*
X248574000Y-40531000D01*
X248572000Y-40533000D01*
X248570000Y-40535000D01*
X248568000Y-40537000D01*
X248566000Y-40539000D01*
X248564000Y-40540000D01*
X248562000Y-40542000D01*
X248560000Y-40543000D01*
X248558000Y-40545000D01*
X248555000Y-40546000D01*
X248553000Y-40547000D01*
X248550000Y-40548000D01*
X248548000Y-40548000D01*
X248545000Y-40549000D01*
X248543000Y-40549000D01*
X248540000Y-40550000D01*
X248538000Y-40550000D01*
X248535000Y-40550000D01*
X248385000Y-40550000D01*
X248382000Y-40550000D01*
X248380000Y-40550000D01*
X248377000Y-40549000D01*
X248375000Y-40549000D01*
X248372000Y-40548000D01*
X248370000Y-40548000D01*
X248367000Y-40547000D01*
X248365000Y-40546000D01*
X248362000Y-40545000D01*
X248360000Y-40543000D01*
X248358000Y-40542000D01*
X248356000Y-40540000D01*
X248354000Y-40539000D01*
X248352000Y-40537000D01*
X248350000Y-40535000D01*
X248348000Y-40533000D01*
X248346000Y-40531000D01*
X248345000Y-40529000D01*
X248343000Y-40527000D01*
X248342000Y-40525000D01*
X248340000Y-40523000D01*
X248339000Y-40520000D01*
X248338000Y-40518000D01*
X248337000Y-40515000D01*
X248337000Y-40513000D01*
X248336000Y-40510000D01*
X248336000Y-40508000D01*
X248335000Y-40505000D01*
X248335000Y-40503000D01*
X248335000Y-40500000D01*
X248335000Y-39600000D01*
X248335000Y-39597000D01*
X248335000Y-39595000D01*
X248336000Y-39592000D01*
X248336000Y-39590000D01*
X248337000Y-39587000D01*
X248337000Y-39585000D01*
X248338000Y-39582000D01*
X248339000Y-39580000D01*
X248340000Y-39577000D01*
X248342000Y-39575000D01*
X248343000Y-39573000D01*
X248345000Y-39571000D01*
X248346000Y-39569000D01*
X248348000Y-39567000D01*
X248350000Y-39565000D01*
X248352000Y-39563000D01*
X248354000Y-39561000D01*
X248356000Y-39560000D01*
X248358000Y-39558000D01*
X248360000Y-39557000D01*
X248362000Y-39555000D01*
X248365000Y-39554000D01*
X248367000Y-39553000D01*
X248370000Y-39552000D01*
X248372000Y-39552000D01*
X248375000Y-39551000D01*
X248377000Y-39551000D01*
X248380000Y-39550000D01*
X248382000Y-39550000D01*
X248385000Y-39550000D01*
X248535000Y-39550000D01*
X248538000Y-39550000D01*
X248540000Y-39550000D01*
X248543000Y-39551000D01*
G37*
X248543000Y-41951000D02*
X248545000Y-41951000D01*
X248548000Y-41952000D01*
X248550000Y-41952000D01*
X248553000Y-41953000D01*
X248555000Y-41954000D01*
X248558000Y-41955000D01*
X248560000Y-41957000D01*
X248562000Y-41958000D01*
X248564000Y-41960000D01*
X248566000Y-41961000D01*
X248568000Y-41963000D01*
X248570000Y-41965000D01*
X248572000Y-41967000D01*
X248574000Y-41969000D01*
X248575000Y-41971000D01*
X248577000Y-41973000D01*
X248578000Y-41975000D01*
X248580000Y-41977000D01*
X248581000Y-41980000D01*
X248582000Y-41982000D01*
X248583000Y-41985000D01*
X248583000Y-41987000D01*
X248584000Y-41990000D01*
X248584000Y-41992000D01*
X248585000Y-41995000D01*
X248585000Y-41997000D01*
X248585000Y-42000000D01*
X248585000Y-42900000D01*
X248585000Y-42903000D01*
X248585000Y-42905000D01*
X248584000Y-42908000D01*
X248584000Y-42910000D01*
X248583000Y-42913000D01*
X248583000Y-42915000D01*
X248582000Y-42918000D01*
X248581000Y-42920000D01*
X248580000Y-42923000D01*
X248578000Y-42925000D01*
X248577000Y-42927000D01*
X248575000Y-42929000D01*
X248574000Y-42931000D01*
X248572000Y-42933000D01*
X248570000Y-42935000D01*
X248568000Y-42937000D01*
X248566000Y-42939000D01*
X248564000Y-42940000D01*
X248562000Y-42942000D01*
X248560000Y-42943000D01*
X248558000Y-42945000D01*
X248555000Y-42946000D01*
X248553000Y-42947000D01*
X248550000Y-42948000D01*
X248548000Y-42948000D01*
X248545000Y-42949000D01*
X248543000Y-42949000D01*
X248540000Y-42950000D01*
X248538000Y-42950000D01*
X248535000Y-42950000D01*
X248385000Y-42950000D01*
X248382000Y-42950000D01*
X248380000Y-42950000D01*
X248377000Y-42949000D01*
X248375000Y-42949000D01*
X248372000Y-42948000D01*
X248370000Y-42948000D01*
X248367000Y-42947000D01*
X248365000Y-42946000D01*
X248362000Y-42945000D01*
X248360000Y-42943000D01*
X248358000Y-42942000D01*
X248356000Y-42940000D01*
X248354000Y-42939000D01*
X248352000Y-42937000D01*
X248350000Y-42935000D01*
X248348000Y-42933000D01*
X248346000Y-42931000D01*
X248345000Y-42929000D01*
X248343000Y-42927000D01*
X248342000Y-42925000D01*
X248340000Y-42923000D01*
X248339000Y-42920000D01*
X248338000Y-42918000D01*
X248337000Y-42915000D01*
X248337000Y-42913000D01*
X248336000Y-42910000D01*
X248336000Y-42908000D01*
X248335000Y-42905000D01*
X248335000Y-42903000D01*
X248335000Y-42900000D01*
X248335000Y-42000000D01*
X248335000Y-41997000D01*
X248335000Y-41995000D01*
X248336000Y-41992000D01*
X248336000Y-41990000D01*
X248337000Y-41987000D01*
X248337000Y-41985000D01*
X248338000Y-41982000D01*
X248339000Y-41980000D01*
X248340000Y-41977000D01*
X248342000Y-41975000D01*
X248343000Y-41973000D01*
X248345000Y-41971000D01*
X248346000Y-41969000D01*
X248348000Y-41967000D01*
X248350000Y-41965000D01*
X248352000Y-41963000D01*
X248354000Y-41961000D01*
X248356000Y-41960000D01*
X248358000Y-41958000D01*
X248360000Y-41957000D01*
X248362000Y-41955000D01*
X248365000Y-41954000D01*
X248367000Y-41953000D01*
X248370000Y-41952000D01*
X248372000Y-41952000D01*
X248375000Y-41951000D01*
X248377000Y-41951000D01*
X248380000Y-41950000D01*
X248382000Y-41950000D01*
X248385000Y-41950000D01*
X248535000Y-41950000D01*
X248538000Y-41950000D01*
X248540000Y-41950000D01*
X248543000Y-41951000D01*
G36*
X248543000Y-41951000D02*
G01*
X248545000Y-41951000D01*
X248548000Y-41952000D01*
X248550000Y-41952000D01*
X248553000Y-41953000D01*
X248555000Y-41954000D01*
X248558000Y-41955000D01*
X248560000Y-41957000D01*
X248562000Y-41958000D01*
X248564000Y-41960000D01*
X248566000Y-41961000D01*
X248568000Y-41963000D01*
X248570000Y-41965000D01*
X248572000Y-41967000D01*
X248574000Y-41969000D01*
X248575000Y-41971000D01*
X248577000Y-41973000D01*
X248578000Y-41975000D01*
X248580000Y-41977000D01*
X248581000Y-41980000D01*
X248582000Y-41982000D01*
X248583000Y-41985000D01*
X248583000Y-41987000D01*
X248584000Y-41990000D01*
X248584000Y-41992000D01*
X248585000Y-41995000D01*
X248585000Y-41997000D01*
X248585000Y-42000000D01*
X248585000Y-42900000D01*
X248585000Y-42903000D01*
X248585000Y-42905000D01*
X248584000Y-42908000D01*
X248584000Y-42910000D01*
X248583000Y-42913000D01*
X248583000Y-42915000D01*
X248582000Y-42918000D01*
X248581000Y-42920000D01*
X248580000Y-42923000D01*
X248578000Y-42925000D01*
X248577000Y-42927000D01*
X248575000Y-42929000D01*
X248574000Y-42931000D01*
X248572000Y-42933000D01*
X248570000Y-42935000D01*
X248568000Y-42937000D01*
X248566000Y-42939000D01*
X248564000Y-42940000D01*
X248562000Y-42942000D01*
X248560000Y-42943000D01*
X248558000Y-42945000D01*
X248555000Y-42946000D01*
X248553000Y-42947000D01*
X248550000Y-42948000D01*
X248548000Y-42948000D01*
X248545000Y-42949000D01*
X248543000Y-42949000D01*
X248540000Y-42950000D01*
X248538000Y-42950000D01*
X248535000Y-42950000D01*
X248385000Y-42950000D01*
X248382000Y-42950000D01*
X248380000Y-42950000D01*
X248377000Y-42949000D01*
X248375000Y-42949000D01*
X248372000Y-42948000D01*
X248370000Y-42948000D01*
X248367000Y-42947000D01*
X248365000Y-42946000D01*
X248362000Y-42945000D01*
X248360000Y-42943000D01*
X248358000Y-42942000D01*
X248356000Y-42940000D01*
X248354000Y-42939000D01*
X248352000Y-42937000D01*
X248350000Y-42935000D01*
X248348000Y-42933000D01*
X248346000Y-42931000D01*
X248345000Y-42929000D01*
X248343000Y-42927000D01*
X248342000Y-42925000D01*
X248340000Y-42923000D01*
X248339000Y-42920000D01*
X248338000Y-42918000D01*
X248337000Y-42915000D01*
X248337000Y-42913000D01*
X248336000Y-42910000D01*
X248336000Y-42908000D01*
X248335000Y-42905000D01*
X248335000Y-42903000D01*
X248335000Y-42900000D01*
X248335000Y-42000000D01*
X248335000Y-41997000D01*
X248335000Y-41995000D01*
X248336000Y-41992000D01*
X248336000Y-41990000D01*
X248337000Y-41987000D01*
X248337000Y-41985000D01*
X248338000Y-41982000D01*
X248339000Y-41980000D01*
X248340000Y-41977000D01*
X248342000Y-41975000D01*
X248343000Y-41973000D01*
X248345000Y-41971000D01*
X248346000Y-41969000D01*
X248348000Y-41967000D01*
X248350000Y-41965000D01*
X248352000Y-41963000D01*
X248354000Y-41961000D01*
X248356000Y-41960000D01*
X248358000Y-41958000D01*
X248360000Y-41957000D01*
X248362000Y-41955000D01*
X248365000Y-41954000D01*
X248367000Y-41953000D01*
X248370000Y-41952000D01*
X248372000Y-41952000D01*
X248375000Y-41951000D01*
X248377000Y-41951000D01*
X248380000Y-41950000D01*
X248382000Y-41950000D01*
X248385000Y-41950000D01*
X248535000Y-41950000D01*
X248538000Y-41950000D01*
X248540000Y-41950000D01*
X248543000Y-41951000D01*
G37*
X249083000Y-39551000D02*
X249085000Y-39551000D01*
X249088000Y-39552000D01*
X249090000Y-39552000D01*
X249093000Y-39553000D01*
X249095000Y-39554000D01*
X249098000Y-39555000D01*
X249100000Y-39557000D01*
X249102000Y-39558000D01*
X249104000Y-39560000D01*
X249106000Y-39561000D01*
X249108000Y-39563000D01*
X249110000Y-39565000D01*
X249112000Y-39567000D01*
X249114000Y-39569000D01*
X249115000Y-39571000D01*
X249117000Y-39573000D01*
X249118000Y-39575000D01*
X249120000Y-39577000D01*
X249121000Y-39580000D01*
X249122000Y-39582000D01*
X249123000Y-39585000D01*
X249123000Y-39587000D01*
X249124000Y-39590000D01*
X249124000Y-39592000D01*
X249125000Y-39595000D01*
X249125000Y-39597000D01*
X249125000Y-39600000D01*
X249125000Y-40500000D01*
X249125000Y-40503000D01*
X249125000Y-40505000D01*
X249124000Y-40508000D01*
X249124000Y-40510000D01*
X249123000Y-40513000D01*
X249123000Y-40515000D01*
X249122000Y-40518000D01*
X249121000Y-40520000D01*
X249120000Y-40523000D01*
X249118000Y-40525000D01*
X249117000Y-40527000D01*
X249115000Y-40529000D01*
X249114000Y-40531000D01*
X249112000Y-40533000D01*
X249110000Y-40535000D01*
X249108000Y-40537000D01*
X249106000Y-40539000D01*
X249104000Y-40540000D01*
X249102000Y-40542000D01*
X249100000Y-40543000D01*
X249098000Y-40545000D01*
X249095000Y-40546000D01*
X249093000Y-40547000D01*
X249090000Y-40548000D01*
X249088000Y-40548000D01*
X249085000Y-40549000D01*
X249083000Y-40549000D01*
X249080000Y-40550000D01*
X249078000Y-40550000D01*
X249075000Y-40550000D01*
X248925000Y-40550000D01*
X248922000Y-40550000D01*
X248920000Y-40550000D01*
X248917000Y-40549000D01*
X248915000Y-40549000D01*
X248912000Y-40548000D01*
X248910000Y-40548000D01*
X248907000Y-40547000D01*
X248905000Y-40546000D01*
X248902000Y-40545000D01*
X248900000Y-40543000D01*
X248898000Y-40542000D01*
X248896000Y-40540000D01*
X248894000Y-40539000D01*
X248892000Y-40537000D01*
X248890000Y-40535000D01*
X248888000Y-40533000D01*
X248886000Y-40531000D01*
X248885000Y-40529000D01*
X248883000Y-40527000D01*
X248882000Y-40525000D01*
X248880000Y-40523000D01*
X248879000Y-40520000D01*
X248878000Y-40518000D01*
X248877000Y-40515000D01*
X248877000Y-40513000D01*
X248876000Y-40510000D01*
X248876000Y-40508000D01*
X248875000Y-40505000D01*
X248875000Y-40503000D01*
X248875000Y-40500000D01*
X248875000Y-39600000D01*
X248875000Y-39597000D01*
X248875000Y-39595000D01*
X248876000Y-39592000D01*
X248876000Y-39590000D01*
X248877000Y-39587000D01*
X248877000Y-39585000D01*
X248878000Y-39582000D01*
X248879000Y-39580000D01*
X248880000Y-39577000D01*
X248882000Y-39575000D01*
X248883000Y-39573000D01*
X248885000Y-39571000D01*
X248886000Y-39569000D01*
X248888000Y-39567000D01*
X248890000Y-39565000D01*
X248892000Y-39563000D01*
X248894000Y-39561000D01*
X248896000Y-39560000D01*
X248898000Y-39558000D01*
X248900000Y-39557000D01*
X248902000Y-39555000D01*
X248905000Y-39554000D01*
X248907000Y-39553000D01*
X248910000Y-39552000D01*
X248912000Y-39552000D01*
X248915000Y-39551000D01*
X248917000Y-39551000D01*
X248920000Y-39550000D01*
X248922000Y-39550000D01*
X248925000Y-39550000D01*
X249075000Y-39550000D01*
X249078000Y-39550000D01*
X249080000Y-39550000D01*
X249083000Y-39551000D01*
G36*
X249083000Y-39551000D02*
G01*
X249085000Y-39551000D01*
X249088000Y-39552000D01*
X249090000Y-39552000D01*
X249093000Y-39553000D01*
X249095000Y-39554000D01*
X249098000Y-39555000D01*
X249100000Y-39557000D01*
X249102000Y-39558000D01*
X249104000Y-39560000D01*
X249106000Y-39561000D01*
X249108000Y-39563000D01*
X249110000Y-39565000D01*
X249112000Y-39567000D01*
X249114000Y-39569000D01*
X249115000Y-39571000D01*
X249117000Y-39573000D01*
X249118000Y-39575000D01*
X249120000Y-39577000D01*
X249121000Y-39580000D01*
X249122000Y-39582000D01*
X249123000Y-39585000D01*
X249123000Y-39587000D01*
X249124000Y-39590000D01*
X249124000Y-39592000D01*
X249125000Y-39595000D01*
X249125000Y-39597000D01*
X249125000Y-39600000D01*
X249125000Y-40500000D01*
X249125000Y-40503000D01*
X249125000Y-40505000D01*
X249124000Y-40508000D01*
X249124000Y-40510000D01*
X249123000Y-40513000D01*
X249123000Y-40515000D01*
X249122000Y-40518000D01*
X249121000Y-40520000D01*
X249120000Y-40523000D01*
X249118000Y-40525000D01*
X249117000Y-40527000D01*
X249115000Y-40529000D01*
X249114000Y-40531000D01*
X249112000Y-40533000D01*
X249110000Y-40535000D01*
X249108000Y-40537000D01*
X249106000Y-40539000D01*
X249104000Y-40540000D01*
X249102000Y-40542000D01*
X249100000Y-40543000D01*
X249098000Y-40545000D01*
X249095000Y-40546000D01*
X249093000Y-40547000D01*
X249090000Y-40548000D01*
X249088000Y-40548000D01*
X249085000Y-40549000D01*
X249083000Y-40549000D01*
X249080000Y-40550000D01*
X249078000Y-40550000D01*
X249075000Y-40550000D01*
X248925000Y-40550000D01*
X248922000Y-40550000D01*
X248920000Y-40550000D01*
X248917000Y-40549000D01*
X248915000Y-40549000D01*
X248912000Y-40548000D01*
X248910000Y-40548000D01*
X248907000Y-40547000D01*
X248905000Y-40546000D01*
X248902000Y-40545000D01*
X248900000Y-40543000D01*
X248898000Y-40542000D01*
X248896000Y-40540000D01*
X248894000Y-40539000D01*
X248892000Y-40537000D01*
X248890000Y-40535000D01*
X248888000Y-40533000D01*
X248886000Y-40531000D01*
X248885000Y-40529000D01*
X248883000Y-40527000D01*
X248882000Y-40525000D01*
X248880000Y-40523000D01*
X248879000Y-40520000D01*
X248878000Y-40518000D01*
X248877000Y-40515000D01*
X248877000Y-40513000D01*
X248876000Y-40510000D01*
X248876000Y-40508000D01*
X248875000Y-40505000D01*
X248875000Y-40503000D01*
X248875000Y-40500000D01*
X248875000Y-39600000D01*
X248875000Y-39597000D01*
X248875000Y-39595000D01*
X248876000Y-39592000D01*
X248876000Y-39590000D01*
X248877000Y-39587000D01*
X248877000Y-39585000D01*
X248878000Y-39582000D01*
X248879000Y-39580000D01*
X248880000Y-39577000D01*
X248882000Y-39575000D01*
X248883000Y-39573000D01*
X248885000Y-39571000D01*
X248886000Y-39569000D01*
X248888000Y-39567000D01*
X248890000Y-39565000D01*
X248892000Y-39563000D01*
X248894000Y-39561000D01*
X248896000Y-39560000D01*
X248898000Y-39558000D01*
X248900000Y-39557000D01*
X248902000Y-39555000D01*
X248905000Y-39554000D01*
X248907000Y-39553000D01*
X248910000Y-39552000D01*
X248912000Y-39552000D01*
X248915000Y-39551000D01*
X248917000Y-39551000D01*
X248920000Y-39550000D01*
X248922000Y-39550000D01*
X248925000Y-39550000D01*
X249075000Y-39550000D01*
X249078000Y-39550000D01*
X249080000Y-39550000D01*
X249083000Y-39551000D01*
G37*
X249083000Y-40751000D02*
X249085000Y-40751000D01*
X249088000Y-40752000D01*
X249090000Y-40752000D01*
X249093000Y-40753000D01*
X249095000Y-40754000D01*
X249098000Y-40755000D01*
X249100000Y-40757000D01*
X249102000Y-40758000D01*
X249104000Y-40760000D01*
X249106000Y-40761000D01*
X249108000Y-40763000D01*
X249110000Y-40765000D01*
X249112000Y-40767000D01*
X249114000Y-40769000D01*
X249115000Y-40771000D01*
X249117000Y-40773000D01*
X249118000Y-40775000D01*
X249120000Y-40777000D01*
X249121000Y-40780000D01*
X249122000Y-40782000D01*
X249123000Y-40785000D01*
X249123000Y-40787000D01*
X249124000Y-40790000D01*
X249124000Y-40792000D01*
X249125000Y-40795000D01*
X249125000Y-40797000D01*
X249125000Y-40800000D01*
X249125000Y-41700000D01*
X249125000Y-41703000D01*
X249125000Y-41705000D01*
X249124000Y-41708000D01*
X249124000Y-41710000D01*
X249123000Y-41713000D01*
X249123000Y-41715000D01*
X249122000Y-41718000D01*
X249121000Y-41720000D01*
X249120000Y-41723000D01*
X249118000Y-41725000D01*
X249117000Y-41727000D01*
X249115000Y-41729000D01*
X249114000Y-41731000D01*
X249112000Y-41733000D01*
X249110000Y-41735000D01*
X249108000Y-41737000D01*
X249106000Y-41739000D01*
X249104000Y-41740000D01*
X249102000Y-41742000D01*
X249100000Y-41743000D01*
X249098000Y-41745000D01*
X249095000Y-41746000D01*
X249093000Y-41747000D01*
X249090000Y-41748000D01*
X249088000Y-41748000D01*
X249085000Y-41749000D01*
X249083000Y-41749000D01*
X249080000Y-41750000D01*
X249078000Y-41750000D01*
X249075000Y-41750000D01*
X248925000Y-41750000D01*
X248922000Y-41750000D01*
X248920000Y-41750000D01*
X248917000Y-41749000D01*
X248915000Y-41749000D01*
X248912000Y-41748000D01*
X248910000Y-41748000D01*
X248907000Y-41747000D01*
X248905000Y-41746000D01*
X248902000Y-41745000D01*
X248900000Y-41743000D01*
X248898000Y-41742000D01*
X248896000Y-41740000D01*
X248894000Y-41739000D01*
X248892000Y-41737000D01*
X248890000Y-41735000D01*
X248888000Y-41733000D01*
X248886000Y-41731000D01*
X248885000Y-41729000D01*
X248883000Y-41727000D01*
X248882000Y-41725000D01*
X248880000Y-41723000D01*
X248879000Y-41720000D01*
X248878000Y-41718000D01*
X248877000Y-41715000D01*
X248877000Y-41713000D01*
X248876000Y-41710000D01*
X248876000Y-41708000D01*
X248875000Y-41705000D01*
X248875000Y-41703000D01*
X248875000Y-41700000D01*
X248875000Y-40800000D01*
X248875000Y-40797000D01*
X248875000Y-40795000D01*
X248876000Y-40792000D01*
X248876000Y-40790000D01*
X248877000Y-40787000D01*
X248877000Y-40785000D01*
X248878000Y-40782000D01*
X248879000Y-40780000D01*
X248880000Y-40777000D01*
X248882000Y-40775000D01*
X248883000Y-40773000D01*
X248885000Y-40771000D01*
X248886000Y-40769000D01*
X248888000Y-40767000D01*
X248890000Y-40765000D01*
X248892000Y-40763000D01*
X248894000Y-40761000D01*
X248896000Y-40760000D01*
X248898000Y-40758000D01*
X248900000Y-40757000D01*
X248902000Y-40755000D01*
X248905000Y-40754000D01*
X248907000Y-40753000D01*
X248910000Y-40752000D01*
X248912000Y-40752000D01*
X248915000Y-40751000D01*
X248917000Y-40751000D01*
X248920000Y-40750000D01*
X248922000Y-40750000D01*
X248925000Y-40750000D01*
X249075000Y-40750000D01*
X249078000Y-40750000D01*
X249080000Y-40750000D01*
X249083000Y-40751000D01*
G36*
X249083000Y-40751000D02*
G01*
X249085000Y-40751000D01*
X249088000Y-40752000D01*
X249090000Y-40752000D01*
X249093000Y-40753000D01*
X249095000Y-40754000D01*
X249098000Y-40755000D01*
X249100000Y-40757000D01*
X249102000Y-40758000D01*
X249104000Y-40760000D01*
X249106000Y-40761000D01*
X249108000Y-40763000D01*
X249110000Y-40765000D01*
X249112000Y-40767000D01*
X249114000Y-40769000D01*
X249115000Y-40771000D01*
X249117000Y-40773000D01*
X249118000Y-40775000D01*
X249120000Y-40777000D01*
X249121000Y-40780000D01*
X249122000Y-40782000D01*
X249123000Y-40785000D01*
X249123000Y-40787000D01*
X249124000Y-40790000D01*
X249124000Y-40792000D01*
X249125000Y-40795000D01*
X249125000Y-40797000D01*
X249125000Y-40800000D01*
X249125000Y-41700000D01*
X249125000Y-41703000D01*
X249125000Y-41705000D01*
X249124000Y-41708000D01*
X249124000Y-41710000D01*
X249123000Y-41713000D01*
X249123000Y-41715000D01*
X249122000Y-41718000D01*
X249121000Y-41720000D01*
X249120000Y-41723000D01*
X249118000Y-41725000D01*
X249117000Y-41727000D01*
X249115000Y-41729000D01*
X249114000Y-41731000D01*
X249112000Y-41733000D01*
X249110000Y-41735000D01*
X249108000Y-41737000D01*
X249106000Y-41739000D01*
X249104000Y-41740000D01*
X249102000Y-41742000D01*
X249100000Y-41743000D01*
X249098000Y-41745000D01*
X249095000Y-41746000D01*
X249093000Y-41747000D01*
X249090000Y-41748000D01*
X249088000Y-41748000D01*
X249085000Y-41749000D01*
X249083000Y-41749000D01*
X249080000Y-41750000D01*
X249078000Y-41750000D01*
X249075000Y-41750000D01*
X248925000Y-41750000D01*
X248922000Y-41750000D01*
X248920000Y-41750000D01*
X248917000Y-41749000D01*
X248915000Y-41749000D01*
X248912000Y-41748000D01*
X248910000Y-41748000D01*
X248907000Y-41747000D01*
X248905000Y-41746000D01*
X248902000Y-41745000D01*
X248900000Y-41743000D01*
X248898000Y-41742000D01*
X248896000Y-41740000D01*
X248894000Y-41739000D01*
X248892000Y-41737000D01*
X248890000Y-41735000D01*
X248888000Y-41733000D01*
X248886000Y-41731000D01*
X248885000Y-41729000D01*
X248883000Y-41727000D01*
X248882000Y-41725000D01*
X248880000Y-41723000D01*
X248879000Y-41720000D01*
X248878000Y-41718000D01*
X248877000Y-41715000D01*
X248877000Y-41713000D01*
X248876000Y-41710000D01*
X248876000Y-41708000D01*
X248875000Y-41705000D01*
X248875000Y-41703000D01*
X248875000Y-41700000D01*
X248875000Y-40800000D01*
X248875000Y-40797000D01*
X248875000Y-40795000D01*
X248876000Y-40792000D01*
X248876000Y-40790000D01*
X248877000Y-40787000D01*
X248877000Y-40785000D01*
X248878000Y-40782000D01*
X248879000Y-40780000D01*
X248880000Y-40777000D01*
X248882000Y-40775000D01*
X248883000Y-40773000D01*
X248885000Y-40771000D01*
X248886000Y-40769000D01*
X248888000Y-40767000D01*
X248890000Y-40765000D01*
X248892000Y-40763000D01*
X248894000Y-40761000D01*
X248896000Y-40760000D01*
X248898000Y-40758000D01*
X248900000Y-40757000D01*
X248902000Y-40755000D01*
X248905000Y-40754000D01*
X248907000Y-40753000D01*
X248910000Y-40752000D01*
X248912000Y-40752000D01*
X248915000Y-40751000D01*
X248917000Y-40751000D01*
X248920000Y-40750000D01*
X248922000Y-40750000D01*
X248925000Y-40750000D01*
X249075000Y-40750000D01*
X249078000Y-40750000D01*
X249080000Y-40750000D01*
X249083000Y-40751000D01*
G37*
X249083000Y-41951000D02*
X249085000Y-41951000D01*
X249088000Y-41952000D01*
X249090000Y-41952000D01*
X249093000Y-41953000D01*
X249095000Y-41954000D01*
X249098000Y-41955000D01*
X249100000Y-41957000D01*
X249102000Y-41958000D01*
X249104000Y-41960000D01*
X249106000Y-41961000D01*
X249108000Y-41963000D01*
X249110000Y-41965000D01*
X249112000Y-41967000D01*
X249114000Y-41969000D01*
X249115000Y-41971000D01*
X249117000Y-41973000D01*
X249118000Y-41975000D01*
X249120000Y-41977000D01*
X249121000Y-41980000D01*
X249122000Y-41982000D01*
X249123000Y-41985000D01*
X249123000Y-41987000D01*
X249124000Y-41990000D01*
X249124000Y-41992000D01*
X249125000Y-41995000D01*
X249125000Y-41997000D01*
X249125000Y-42000000D01*
X249125000Y-42900000D01*
X249125000Y-42903000D01*
X249125000Y-42905000D01*
X249124000Y-42908000D01*
X249124000Y-42910000D01*
X249123000Y-42913000D01*
X249123000Y-42915000D01*
X249122000Y-42918000D01*
X249121000Y-42920000D01*
X249120000Y-42923000D01*
X249118000Y-42925000D01*
X249117000Y-42927000D01*
X249115000Y-42929000D01*
X249114000Y-42931000D01*
X249112000Y-42933000D01*
X249110000Y-42935000D01*
X249108000Y-42937000D01*
X249106000Y-42939000D01*
X249104000Y-42940000D01*
X249102000Y-42942000D01*
X249100000Y-42943000D01*
X249098000Y-42945000D01*
X249095000Y-42946000D01*
X249093000Y-42947000D01*
X249090000Y-42948000D01*
X249088000Y-42948000D01*
X249085000Y-42949000D01*
X249083000Y-42949000D01*
X249080000Y-42950000D01*
X249078000Y-42950000D01*
X249075000Y-42950000D01*
X248925000Y-42950000D01*
X248922000Y-42950000D01*
X248920000Y-42950000D01*
X248917000Y-42949000D01*
X248915000Y-42949000D01*
X248912000Y-42948000D01*
X248910000Y-42948000D01*
X248907000Y-42947000D01*
X248905000Y-42946000D01*
X248902000Y-42945000D01*
X248900000Y-42943000D01*
X248898000Y-42942000D01*
X248896000Y-42940000D01*
X248894000Y-42939000D01*
X248892000Y-42937000D01*
X248890000Y-42935000D01*
X248888000Y-42933000D01*
X248886000Y-42931000D01*
X248885000Y-42929000D01*
X248883000Y-42927000D01*
X248882000Y-42925000D01*
X248880000Y-42923000D01*
X248879000Y-42920000D01*
X248878000Y-42918000D01*
X248877000Y-42915000D01*
X248877000Y-42913000D01*
X248876000Y-42910000D01*
X248876000Y-42908000D01*
X248875000Y-42905000D01*
X248875000Y-42903000D01*
X248875000Y-42900000D01*
X248875000Y-42000000D01*
X248875000Y-41997000D01*
X248875000Y-41995000D01*
X248876000Y-41992000D01*
X248876000Y-41990000D01*
X248877000Y-41987000D01*
X248877000Y-41985000D01*
X248878000Y-41982000D01*
X248879000Y-41980000D01*
X248880000Y-41977000D01*
X248882000Y-41975000D01*
X248883000Y-41973000D01*
X248885000Y-41971000D01*
X248886000Y-41969000D01*
X248888000Y-41967000D01*
X248890000Y-41965000D01*
X248892000Y-41963000D01*
X248894000Y-41961000D01*
X248896000Y-41960000D01*
X248898000Y-41958000D01*
X248900000Y-41957000D01*
X248902000Y-41955000D01*
X248905000Y-41954000D01*
X248907000Y-41953000D01*
X248910000Y-41952000D01*
X248912000Y-41952000D01*
X248915000Y-41951000D01*
X248917000Y-41951000D01*
X248920000Y-41950000D01*
X248922000Y-41950000D01*
X248925000Y-41950000D01*
X249075000Y-41950000D01*
X249078000Y-41950000D01*
X249080000Y-41950000D01*
X249083000Y-41951000D01*
G36*
X249083000Y-41951000D02*
G01*
X249085000Y-41951000D01*
X249088000Y-41952000D01*
X249090000Y-41952000D01*
X249093000Y-41953000D01*
X249095000Y-41954000D01*
X249098000Y-41955000D01*
X249100000Y-41957000D01*
X249102000Y-41958000D01*
X249104000Y-41960000D01*
X249106000Y-41961000D01*
X249108000Y-41963000D01*
X249110000Y-41965000D01*
X249112000Y-41967000D01*
X249114000Y-41969000D01*
X249115000Y-41971000D01*
X249117000Y-41973000D01*
X249118000Y-41975000D01*
X249120000Y-41977000D01*
X249121000Y-41980000D01*
X249122000Y-41982000D01*
X249123000Y-41985000D01*
X249123000Y-41987000D01*
X249124000Y-41990000D01*
X249124000Y-41992000D01*
X249125000Y-41995000D01*
X249125000Y-41997000D01*
X249125000Y-42000000D01*
X249125000Y-42900000D01*
X249125000Y-42903000D01*
X249125000Y-42905000D01*
X249124000Y-42908000D01*
X249124000Y-42910000D01*
X249123000Y-42913000D01*
X249123000Y-42915000D01*
X249122000Y-42918000D01*
X249121000Y-42920000D01*
X249120000Y-42923000D01*
X249118000Y-42925000D01*
X249117000Y-42927000D01*
X249115000Y-42929000D01*
X249114000Y-42931000D01*
X249112000Y-42933000D01*
X249110000Y-42935000D01*
X249108000Y-42937000D01*
X249106000Y-42939000D01*
X249104000Y-42940000D01*
X249102000Y-42942000D01*
X249100000Y-42943000D01*
X249098000Y-42945000D01*
X249095000Y-42946000D01*
X249093000Y-42947000D01*
X249090000Y-42948000D01*
X249088000Y-42948000D01*
X249085000Y-42949000D01*
X249083000Y-42949000D01*
X249080000Y-42950000D01*
X249078000Y-42950000D01*
X249075000Y-42950000D01*
X248925000Y-42950000D01*
X248922000Y-42950000D01*
X248920000Y-42950000D01*
X248917000Y-42949000D01*
X248915000Y-42949000D01*
X248912000Y-42948000D01*
X248910000Y-42948000D01*
X248907000Y-42947000D01*
X248905000Y-42946000D01*
X248902000Y-42945000D01*
X248900000Y-42943000D01*
X248898000Y-42942000D01*
X248896000Y-42940000D01*
X248894000Y-42939000D01*
X248892000Y-42937000D01*
X248890000Y-42935000D01*
X248888000Y-42933000D01*
X248886000Y-42931000D01*
X248885000Y-42929000D01*
X248883000Y-42927000D01*
X248882000Y-42925000D01*
X248880000Y-42923000D01*
X248879000Y-42920000D01*
X248878000Y-42918000D01*
X248877000Y-42915000D01*
X248877000Y-42913000D01*
X248876000Y-42910000D01*
X248876000Y-42908000D01*
X248875000Y-42905000D01*
X248875000Y-42903000D01*
X248875000Y-42900000D01*
X248875000Y-42000000D01*
X248875000Y-41997000D01*
X248875000Y-41995000D01*
X248876000Y-41992000D01*
X248876000Y-41990000D01*
X248877000Y-41987000D01*
X248877000Y-41985000D01*
X248878000Y-41982000D01*
X248879000Y-41980000D01*
X248880000Y-41977000D01*
X248882000Y-41975000D01*
X248883000Y-41973000D01*
X248885000Y-41971000D01*
X248886000Y-41969000D01*
X248888000Y-41967000D01*
X248890000Y-41965000D01*
X248892000Y-41963000D01*
X248894000Y-41961000D01*
X248896000Y-41960000D01*
X248898000Y-41958000D01*
X248900000Y-41957000D01*
X248902000Y-41955000D01*
X248905000Y-41954000D01*
X248907000Y-41953000D01*
X248910000Y-41952000D01*
X248912000Y-41952000D01*
X248915000Y-41951000D01*
X248917000Y-41951000D01*
X248920000Y-41950000D01*
X248922000Y-41950000D01*
X248925000Y-41950000D01*
X249075000Y-41950000D01*
X249078000Y-41950000D01*
X249080000Y-41950000D01*
X249083000Y-41951000D01*
G37*
X249583000Y-39551000D02*
X249585000Y-39551000D01*
X249588000Y-39552000D01*
X249590000Y-39552000D01*
X249593000Y-39553000D01*
X249595000Y-39554000D01*
X249598000Y-39555000D01*
X249600000Y-39557000D01*
X249602000Y-39558000D01*
X249604000Y-39560000D01*
X249606000Y-39561000D01*
X249608000Y-39563000D01*
X249610000Y-39565000D01*
X249612000Y-39567000D01*
X249614000Y-39569000D01*
X249615000Y-39571000D01*
X249617000Y-39573000D01*
X249618000Y-39575000D01*
X249620000Y-39577000D01*
X249621000Y-39580000D01*
X249622000Y-39582000D01*
X249623000Y-39585000D01*
X249623000Y-39587000D01*
X249624000Y-39590000D01*
X249624000Y-39592000D01*
X249625000Y-39595000D01*
X249625000Y-39597000D01*
X249625000Y-39600000D01*
X249625000Y-40500000D01*
X249625000Y-40503000D01*
X249625000Y-40505000D01*
X249624000Y-40508000D01*
X249624000Y-40510000D01*
X249623000Y-40513000D01*
X249623000Y-40515000D01*
X249622000Y-40518000D01*
X249621000Y-40520000D01*
X249620000Y-40523000D01*
X249618000Y-40525000D01*
X249617000Y-40527000D01*
X249615000Y-40529000D01*
X249614000Y-40531000D01*
X249612000Y-40533000D01*
X249610000Y-40535000D01*
X249608000Y-40537000D01*
X249606000Y-40539000D01*
X249604000Y-40540000D01*
X249602000Y-40542000D01*
X249600000Y-40543000D01*
X249598000Y-40545000D01*
X249595000Y-40546000D01*
X249593000Y-40547000D01*
X249590000Y-40548000D01*
X249588000Y-40548000D01*
X249585000Y-40549000D01*
X249583000Y-40549000D01*
X249580000Y-40550000D01*
X249578000Y-40550000D01*
X249575000Y-40550000D01*
X249425000Y-40550000D01*
X249422000Y-40550000D01*
X249420000Y-40550000D01*
X249417000Y-40549000D01*
X249415000Y-40549000D01*
X249412000Y-40548000D01*
X249410000Y-40548000D01*
X249407000Y-40547000D01*
X249405000Y-40546000D01*
X249402000Y-40545000D01*
X249400000Y-40543000D01*
X249398000Y-40542000D01*
X249396000Y-40540000D01*
X249394000Y-40539000D01*
X249392000Y-40537000D01*
X249390000Y-40535000D01*
X249388000Y-40533000D01*
X249386000Y-40531000D01*
X249385000Y-40529000D01*
X249383000Y-40527000D01*
X249382000Y-40525000D01*
X249380000Y-40523000D01*
X249379000Y-40520000D01*
X249378000Y-40518000D01*
X249377000Y-40515000D01*
X249377000Y-40513000D01*
X249376000Y-40510000D01*
X249376000Y-40508000D01*
X249375000Y-40505000D01*
X249375000Y-40503000D01*
X249375000Y-40500000D01*
X249375000Y-39600000D01*
X249375000Y-39597000D01*
X249375000Y-39595000D01*
X249376000Y-39592000D01*
X249376000Y-39590000D01*
X249377000Y-39587000D01*
X249377000Y-39585000D01*
X249378000Y-39582000D01*
X249379000Y-39580000D01*
X249380000Y-39577000D01*
X249382000Y-39575000D01*
X249383000Y-39573000D01*
X249385000Y-39571000D01*
X249386000Y-39569000D01*
X249388000Y-39567000D01*
X249390000Y-39565000D01*
X249392000Y-39563000D01*
X249394000Y-39561000D01*
X249396000Y-39560000D01*
X249398000Y-39558000D01*
X249400000Y-39557000D01*
X249402000Y-39555000D01*
X249405000Y-39554000D01*
X249407000Y-39553000D01*
X249410000Y-39552000D01*
X249412000Y-39552000D01*
X249415000Y-39551000D01*
X249417000Y-39551000D01*
X249420000Y-39550000D01*
X249422000Y-39550000D01*
X249425000Y-39550000D01*
X249575000Y-39550000D01*
X249578000Y-39550000D01*
X249580000Y-39550000D01*
X249583000Y-39551000D01*
G36*
X249583000Y-39551000D02*
G01*
X249585000Y-39551000D01*
X249588000Y-39552000D01*
X249590000Y-39552000D01*
X249593000Y-39553000D01*
X249595000Y-39554000D01*
X249598000Y-39555000D01*
X249600000Y-39557000D01*
X249602000Y-39558000D01*
X249604000Y-39560000D01*
X249606000Y-39561000D01*
X249608000Y-39563000D01*
X249610000Y-39565000D01*
X249612000Y-39567000D01*
X249614000Y-39569000D01*
X249615000Y-39571000D01*
X249617000Y-39573000D01*
X249618000Y-39575000D01*
X249620000Y-39577000D01*
X249621000Y-39580000D01*
X249622000Y-39582000D01*
X249623000Y-39585000D01*
X249623000Y-39587000D01*
X249624000Y-39590000D01*
X249624000Y-39592000D01*
X249625000Y-39595000D01*
X249625000Y-39597000D01*
X249625000Y-39600000D01*
X249625000Y-40500000D01*
X249625000Y-40503000D01*
X249625000Y-40505000D01*
X249624000Y-40508000D01*
X249624000Y-40510000D01*
X249623000Y-40513000D01*
X249623000Y-40515000D01*
X249622000Y-40518000D01*
X249621000Y-40520000D01*
X249620000Y-40523000D01*
X249618000Y-40525000D01*
X249617000Y-40527000D01*
X249615000Y-40529000D01*
X249614000Y-40531000D01*
X249612000Y-40533000D01*
X249610000Y-40535000D01*
X249608000Y-40537000D01*
X249606000Y-40539000D01*
X249604000Y-40540000D01*
X249602000Y-40542000D01*
X249600000Y-40543000D01*
X249598000Y-40545000D01*
X249595000Y-40546000D01*
X249593000Y-40547000D01*
X249590000Y-40548000D01*
X249588000Y-40548000D01*
X249585000Y-40549000D01*
X249583000Y-40549000D01*
X249580000Y-40550000D01*
X249578000Y-40550000D01*
X249575000Y-40550000D01*
X249425000Y-40550000D01*
X249422000Y-40550000D01*
X249420000Y-40550000D01*
X249417000Y-40549000D01*
X249415000Y-40549000D01*
X249412000Y-40548000D01*
X249410000Y-40548000D01*
X249407000Y-40547000D01*
X249405000Y-40546000D01*
X249402000Y-40545000D01*
X249400000Y-40543000D01*
X249398000Y-40542000D01*
X249396000Y-40540000D01*
X249394000Y-40539000D01*
X249392000Y-40537000D01*
X249390000Y-40535000D01*
X249388000Y-40533000D01*
X249386000Y-40531000D01*
X249385000Y-40529000D01*
X249383000Y-40527000D01*
X249382000Y-40525000D01*
X249380000Y-40523000D01*
X249379000Y-40520000D01*
X249378000Y-40518000D01*
X249377000Y-40515000D01*
X249377000Y-40513000D01*
X249376000Y-40510000D01*
X249376000Y-40508000D01*
X249375000Y-40505000D01*
X249375000Y-40503000D01*
X249375000Y-40500000D01*
X249375000Y-39600000D01*
X249375000Y-39597000D01*
X249375000Y-39595000D01*
X249376000Y-39592000D01*
X249376000Y-39590000D01*
X249377000Y-39587000D01*
X249377000Y-39585000D01*
X249378000Y-39582000D01*
X249379000Y-39580000D01*
X249380000Y-39577000D01*
X249382000Y-39575000D01*
X249383000Y-39573000D01*
X249385000Y-39571000D01*
X249386000Y-39569000D01*
X249388000Y-39567000D01*
X249390000Y-39565000D01*
X249392000Y-39563000D01*
X249394000Y-39561000D01*
X249396000Y-39560000D01*
X249398000Y-39558000D01*
X249400000Y-39557000D01*
X249402000Y-39555000D01*
X249405000Y-39554000D01*
X249407000Y-39553000D01*
X249410000Y-39552000D01*
X249412000Y-39552000D01*
X249415000Y-39551000D01*
X249417000Y-39551000D01*
X249420000Y-39550000D01*
X249422000Y-39550000D01*
X249425000Y-39550000D01*
X249575000Y-39550000D01*
X249578000Y-39550000D01*
X249580000Y-39550000D01*
X249583000Y-39551000D01*
G37*
X249583000Y-40751000D02*
X249585000Y-40751000D01*
X249588000Y-40752000D01*
X249590000Y-40752000D01*
X249593000Y-40753000D01*
X249595000Y-40754000D01*
X249598000Y-40755000D01*
X249600000Y-40757000D01*
X249602000Y-40758000D01*
X249604000Y-40760000D01*
X249606000Y-40761000D01*
X249608000Y-40763000D01*
X249610000Y-40765000D01*
X249612000Y-40767000D01*
X249614000Y-40769000D01*
X249615000Y-40771000D01*
X249617000Y-40773000D01*
X249618000Y-40775000D01*
X249620000Y-40777000D01*
X249621000Y-40780000D01*
X249622000Y-40782000D01*
X249623000Y-40785000D01*
X249623000Y-40787000D01*
X249624000Y-40790000D01*
X249624000Y-40792000D01*
X249625000Y-40795000D01*
X249625000Y-40797000D01*
X249625000Y-40800000D01*
X249625000Y-41700000D01*
X249625000Y-41703000D01*
X249625000Y-41705000D01*
X249624000Y-41708000D01*
X249624000Y-41710000D01*
X249623000Y-41713000D01*
X249623000Y-41715000D01*
X249622000Y-41718000D01*
X249621000Y-41720000D01*
X249620000Y-41723000D01*
X249618000Y-41725000D01*
X249617000Y-41727000D01*
X249615000Y-41729000D01*
X249614000Y-41731000D01*
X249612000Y-41733000D01*
X249610000Y-41735000D01*
X249608000Y-41737000D01*
X249606000Y-41739000D01*
X249604000Y-41740000D01*
X249602000Y-41742000D01*
X249600000Y-41743000D01*
X249598000Y-41745000D01*
X249595000Y-41746000D01*
X249593000Y-41747000D01*
X249590000Y-41748000D01*
X249588000Y-41748000D01*
X249585000Y-41749000D01*
X249583000Y-41749000D01*
X249580000Y-41750000D01*
X249578000Y-41750000D01*
X249575000Y-41750000D01*
X249425000Y-41750000D01*
X249422000Y-41750000D01*
X249420000Y-41750000D01*
X249417000Y-41749000D01*
X249415000Y-41749000D01*
X249412000Y-41748000D01*
X249410000Y-41748000D01*
X249407000Y-41747000D01*
X249405000Y-41746000D01*
X249402000Y-41745000D01*
X249400000Y-41743000D01*
X249398000Y-41742000D01*
X249396000Y-41740000D01*
X249394000Y-41739000D01*
X249392000Y-41737000D01*
X249390000Y-41735000D01*
X249388000Y-41733000D01*
X249386000Y-41731000D01*
X249385000Y-41729000D01*
X249383000Y-41727000D01*
X249382000Y-41725000D01*
X249380000Y-41723000D01*
X249379000Y-41720000D01*
X249378000Y-41718000D01*
X249377000Y-41715000D01*
X249377000Y-41713000D01*
X249376000Y-41710000D01*
X249376000Y-41708000D01*
X249375000Y-41705000D01*
X249375000Y-41703000D01*
X249375000Y-41700000D01*
X249375000Y-40800000D01*
X249375000Y-40797000D01*
X249375000Y-40795000D01*
X249376000Y-40792000D01*
X249376000Y-40790000D01*
X249377000Y-40787000D01*
X249377000Y-40785000D01*
X249378000Y-40782000D01*
X249379000Y-40780000D01*
X249380000Y-40777000D01*
X249382000Y-40775000D01*
X249383000Y-40773000D01*
X249385000Y-40771000D01*
X249386000Y-40769000D01*
X249388000Y-40767000D01*
X249390000Y-40765000D01*
X249392000Y-40763000D01*
X249394000Y-40761000D01*
X249396000Y-40760000D01*
X249398000Y-40758000D01*
X249400000Y-40757000D01*
X249402000Y-40755000D01*
X249405000Y-40754000D01*
X249407000Y-40753000D01*
X249410000Y-40752000D01*
X249412000Y-40752000D01*
X249415000Y-40751000D01*
X249417000Y-40751000D01*
X249420000Y-40750000D01*
X249422000Y-40750000D01*
X249425000Y-40750000D01*
X249575000Y-40750000D01*
X249578000Y-40750000D01*
X249580000Y-40750000D01*
X249583000Y-40751000D01*
G36*
X249583000Y-40751000D02*
G01*
X249585000Y-40751000D01*
X249588000Y-40752000D01*
X249590000Y-40752000D01*
X249593000Y-40753000D01*
X249595000Y-40754000D01*
X249598000Y-40755000D01*
X249600000Y-40757000D01*
X249602000Y-40758000D01*
X249604000Y-40760000D01*
X249606000Y-40761000D01*
X249608000Y-40763000D01*
X249610000Y-40765000D01*
X249612000Y-40767000D01*
X249614000Y-40769000D01*
X249615000Y-40771000D01*
X249617000Y-40773000D01*
X249618000Y-40775000D01*
X249620000Y-40777000D01*
X249621000Y-40780000D01*
X249622000Y-40782000D01*
X249623000Y-40785000D01*
X249623000Y-40787000D01*
X249624000Y-40790000D01*
X249624000Y-40792000D01*
X249625000Y-40795000D01*
X249625000Y-40797000D01*
X249625000Y-40800000D01*
X249625000Y-41700000D01*
X249625000Y-41703000D01*
X249625000Y-41705000D01*
X249624000Y-41708000D01*
X249624000Y-41710000D01*
X249623000Y-41713000D01*
X249623000Y-41715000D01*
X249622000Y-41718000D01*
X249621000Y-41720000D01*
X249620000Y-41723000D01*
X249618000Y-41725000D01*
X249617000Y-41727000D01*
X249615000Y-41729000D01*
X249614000Y-41731000D01*
X249612000Y-41733000D01*
X249610000Y-41735000D01*
X249608000Y-41737000D01*
X249606000Y-41739000D01*
X249604000Y-41740000D01*
X249602000Y-41742000D01*
X249600000Y-41743000D01*
X249598000Y-41745000D01*
X249595000Y-41746000D01*
X249593000Y-41747000D01*
X249590000Y-41748000D01*
X249588000Y-41748000D01*
X249585000Y-41749000D01*
X249583000Y-41749000D01*
X249580000Y-41750000D01*
X249578000Y-41750000D01*
X249575000Y-41750000D01*
X249425000Y-41750000D01*
X249422000Y-41750000D01*
X249420000Y-41750000D01*
X249417000Y-41749000D01*
X249415000Y-41749000D01*
X249412000Y-41748000D01*
X249410000Y-41748000D01*
X249407000Y-41747000D01*
X249405000Y-41746000D01*
X249402000Y-41745000D01*
X249400000Y-41743000D01*
X249398000Y-41742000D01*
X249396000Y-41740000D01*
X249394000Y-41739000D01*
X249392000Y-41737000D01*
X249390000Y-41735000D01*
X249388000Y-41733000D01*
X249386000Y-41731000D01*
X249385000Y-41729000D01*
X249383000Y-41727000D01*
X249382000Y-41725000D01*
X249380000Y-41723000D01*
X249379000Y-41720000D01*
X249378000Y-41718000D01*
X249377000Y-41715000D01*
X249377000Y-41713000D01*
X249376000Y-41710000D01*
X249376000Y-41708000D01*
X249375000Y-41705000D01*
X249375000Y-41703000D01*
X249375000Y-41700000D01*
X249375000Y-40800000D01*
X249375000Y-40797000D01*
X249375000Y-40795000D01*
X249376000Y-40792000D01*
X249376000Y-40790000D01*
X249377000Y-40787000D01*
X249377000Y-40785000D01*
X249378000Y-40782000D01*
X249379000Y-40780000D01*
X249380000Y-40777000D01*
X249382000Y-40775000D01*
X249383000Y-40773000D01*
X249385000Y-40771000D01*
X249386000Y-40769000D01*
X249388000Y-40767000D01*
X249390000Y-40765000D01*
X249392000Y-40763000D01*
X249394000Y-40761000D01*
X249396000Y-40760000D01*
X249398000Y-40758000D01*
X249400000Y-40757000D01*
X249402000Y-40755000D01*
X249405000Y-40754000D01*
X249407000Y-40753000D01*
X249410000Y-40752000D01*
X249412000Y-40752000D01*
X249415000Y-40751000D01*
X249417000Y-40751000D01*
X249420000Y-40750000D01*
X249422000Y-40750000D01*
X249425000Y-40750000D01*
X249575000Y-40750000D01*
X249578000Y-40750000D01*
X249580000Y-40750000D01*
X249583000Y-40751000D01*
G37*
X249583000Y-41951000D02*
X249585000Y-41951000D01*
X249588000Y-41952000D01*
X249590000Y-41952000D01*
X249593000Y-41953000D01*
X249595000Y-41954000D01*
X249598000Y-41955000D01*
X249600000Y-41957000D01*
X249602000Y-41958000D01*
X249604000Y-41960000D01*
X249606000Y-41961000D01*
X249608000Y-41963000D01*
X249610000Y-41965000D01*
X249612000Y-41967000D01*
X249614000Y-41969000D01*
X249615000Y-41971000D01*
X249617000Y-41973000D01*
X249618000Y-41975000D01*
X249620000Y-41977000D01*
X249621000Y-41980000D01*
X249622000Y-41982000D01*
X249623000Y-41985000D01*
X249623000Y-41987000D01*
X249624000Y-41990000D01*
X249624000Y-41992000D01*
X249625000Y-41995000D01*
X249625000Y-41997000D01*
X249625000Y-42000000D01*
X249625000Y-42900000D01*
X249625000Y-42903000D01*
X249625000Y-42905000D01*
X249624000Y-42908000D01*
X249624000Y-42910000D01*
X249623000Y-42913000D01*
X249623000Y-42915000D01*
X249622000Y-42918000D01*
X249621000Y-42920000D01*
X249620000Y-42923000D01*
X249618000Y-42925000D01*
X249617000Y-42927000D01*
X249615000Y-42929000D01*
X249614000Y-42931000D01*
X249612000Y-42933000D01*
X249610000Y-42935000D01*
X249608000Y-42937000D01*
X249606000Y-42939000D01*
X249604000Y-42940000D01*
X249602000Y-42942000D01*
X249600000Y-42943000D01*
X249598000Y-42945000D01*
X249595000Y-42946000D01*
X249593000Y-42947000D01*
X249590000Y-42948000D01*
X249588000Y-42948000D01*
X249585000Y-42949000D01*
X249583000Y-42949000D01*
X249580000Y-42950000D01*
X249578000Y-42950000D01*
X249575000Y-42950000D01*
X249425000Y-42950000D01*
X249422000Y-42950000D01*
X249420000Y-42950000D01*
X249417000Y-42949000D01*
X249415000Y-42949000D01*
X249412000Y-42948000D01*
X249410000Y-42948000D01*
X249407000Y-42947000D01*
X249405000Y-42946000D01*
X249402000Y-42945000D01*
X249400000Y-42943000D01*
X249398000Y-42942000D01*
X249396000Y-42940000D01*
X249394000Y-42939000D01*
X249392000Y-42937000D01*
X249390000Y-42935000D01*
X249388000Y-42933000D01*
X249386000Y-42931000D01*
X249385000Y-42929000D01*
X249383000Y-42927000D01*
X249382000Y-42925000D01*
X249380000Y-42923000D01*
X249379000Y-42920000D01*
X249378000Y-42918000D01*
X249377000Y-42915000D01*
X249377000Y-42913000D01*
X249376000Y-42910000D01*
X249376000Y-42908000D01*
X249375000Y-42905000D01*
X249375000Y-42903000D01*
X249375000Y-42900000D01*
X249375000Y-42000000D01*
X249375000Y-41997000D01*
X249375000Y-41995000D01*
X249376000Y-41992000D01*
X249376000Y-41990000D01*
X249377000Y-41987000D01*
X249377000Y-41985000D01*
X249378000Y-41982000D01*
X249379000Y-41980000D01*
X249380000Y-41977000D01*
X249382000Y-41975000D01*
X249383000Y-41973000D01*
X249385000Y-41971000D01*
X249386000Y-41969000D01*
X249388000Y-41967000D01*
X249390000Y-41965000D01*
X249392000Y-41963000D01*
X249394000Y-41961000D01*
X249396000Y-41960000D01*
X249398000Y-41958000D01*
X249400000Y-41957000D01*
X249402000Y-41955000D01*
X249405000Y-41954000D01*
X249407000Y-41953000D01*
X249410000Y-41952000D01*
X249412000Y-41952000D01*
X249415000Y-41951000D01*
X249417000Y-41951000D01*
X249420000Y-41950000D01*
X249422000Y-41950000D01*
X249425000Y-41950000D01*
X249575000Y-41950000D01*
X249578000Y-41950000D01*
X249580000Y-41950000D01*
X249583000Y-41951000D01*
G36*
X249583000Y-41951000D02*
G01*
X249585000Y-41951000D01*
X249588000Y-41952000D01*
X249590000Y-41952000D01*
X249593000Y-41953000D01*
X249595000Y-41954000D01*
X249598000Y-41955000D01*
X249600000Y-41957000D01*
X249602000Y-41958000D01*
X249604000Y-41960000D01*
X249606000Y-41961000D01*
X249608000Y-41963000D01*
X249610000Y-41965000D01*
X249612000Y-41967000D01*
X249614000Y-41969000D01*
X249615000Y-41971000D01*
X249617000Y-41973000D01*
X249618000Y-41975000D01*
X249620000Y-41977000D01*
X249621000Y-41980000D01*
X249622000Y-41982000D01*
X249623000Y-41985000D01*
X249623000Y-41987000D01*
X249624000Y-41990000D01*
X249624000Y-41992000D01*
X249625000Y-41995000D01*
X249625000Y-41997000D01*
X249625000Y-42000000D01*
X249625000Y-42900000D01*
X249625000Y-42903000D01*
X249625000Y-42905000D01*
X249624000Y-42908000D01*
X249624000Y-42910000D01*
X249623000Y-42913000D01*
X249623000Y-42915000D01*
X249622000Y-42918000D01*
X249621000Y-42920000D01*
X249620000Y-42923000D01*
X249618000Y-42925000D01*
X249617000Y-42927000D01*
X249615000Y-42929000D01*
X249614000Y-42931000D01*
X249612000Y-42933000D01*
X249610000Y-42935000D01*
X249608000Y-42937000D01*
X249606000Y-42939000D01*
X249604000Y-42940000D01*
X249602000Y-42942000D01*
X249600000Y-42943000D01*
X249598000Y-42945000D01*
X249595000Y-42946000D01*
X249593000Y-42947000D01*
X249590000Y-42948000D01*
X249588000Y-42948000D01*
X249585000Y-42949000D01*
X249583000Y-42949000D01*
X249580000Y-42950000D01*
X249578000Y-42950000D01*
X249575000Y-42950000D01*
X249425000Y-42950000D01*
X249422000Y-42950000D01*
X249420000Y-42950000D01*
X249417000Y-42949000D01*
X249415000Y-42949000D01*
X249412000Y-42948000D01*
X249410000Y-42948000D01*
X249407000Y-42947000D01*
X249405000Y-42946000D01*
X249402000Y-42945000D01*
X249400000Y-42943000D01*
X249398000Y-42942000D01*
X249396000Y-42940000D01*
X249394000Y-42939000D01*
X249392000Y-42937000D01*
X249390000Y-42935000D01*
X249388000Y-42933000D01*
X249386000Y-42931000D01*
X249385000Y-42929000D01*
X249383000Y-42927000D01*
X249382000Y-42925000D01*
X249380000Y-42923000D01*
X249379000Y-42920000D01*
X249378000Y-42918000D01*
X249377000Y-42915000D01*
X249377000Y-42913000D01*
X249376000Y-42910000D01*
X249376000Y-42908000D01*
X249375000Y-42905000D01*
X249375000Y-42903000D01*
X249375000Y-42900000D01*
X249375000Y-42000000D01*
X249375000Y-41997000D01*
X249375000Y-41995000D01*
X249376000Y-41992000D01*
X249376000Y-41990000D01*
X249377000Y-41987000D01*
X249377000Y-41985000D01*
X249378000Y-41982000D01*
X249379000Y-41980000D01*
X249380000Y-41977000D01*
X249382000Y-41975000D01*
X249383000Y-41973000D01*
X249385000Y-41971000D01*
X249386000Y-41969000D01*
X249388000Y-41967000D01*
X249390000Y-41965000D01*
X249392000Y-41963000D01*
X249394000Y-41961000D01*
X249396000Y-41960000D01*
X249398000Y-41958000D01*
X249400000Y-41957000D01*
X249402000Y-41955000D01*
X249405000Y-41954000D01*
X249407000Y-41953000D01*
X249410000Y-41952000D01*
X249412000Y-41952000D01*
X249415000Y-41951000D01*
X249417000Y-41951000D01*
X249420000Y-41950000D01*
X249422000Y-41950000D01*
X249425000Y-41950000D01*
X249575000Y-41950000D01*
X249578000Y-41950000D01*
X249580000Y-41950000D01*
X249583000Y-41951000D01*
G37*
%TD*%
D12*
%TO.C,F8*%
X233512500Y-28500000D03*
X236487500Y-28500000D03*
%TD*%
D13*
%TO.C,C38*%
X67000000Y-74925000D03*
X67000000Y-76475000D03*
%TD*%
D14*
%TO.C,C68*%
X252512500Y-45437500D03*
X254587500Y-45437500D03*
%TD*%
D15*
%TO.C,C60*%
X39400000Y-138925000D03*
X39400000Y-141000000D03*
%TD*%
D16*
%TO.C,SW7*%
X129750000Y-29365000D03*
X129750000Y-31865000D03*
X129750000Y-34365000D03*
%TD*%
D17*
%TO.C,R123*%
X76145000Y-117787500D03*
X76145000Y-115962500D03*
%TD*%
D18*
%TO.C,Y2*%
X71800000Y-70185000D03*
X74000000Y-70185000D03*
X74000000Y-68485000D03*
X71800000Y-68485000D03*
%TD*%
D19*
%TO.C,C111*%
X197112500Y-68250000D03*
X195387500Y-68250000D03*
%TD*%
D20*
%TO.C,C59*%
X36837500Y-136650000D03*
X34762500Y-136650000D03*
%TD*%
D21*
%TO.C,R72*%
X70000000Y-69885000D03*
X70000000Y-68235000D03*
%TD*%
D22*
%TO.C,SW5*%
X35370000Y-69850000D03*
X42100000Y-69850000D03*
%TD*%
D23*
%TO.C,R51*%
X190300000Y-71287500D03*
X190300000Y-73112500D03*
%TD*%
D24*
%TO.C,Q1*%
X52215000Y-42560000D03*
X52215000Y-43830000D03*
X52215000Y-45100000D03*
X52215000Y-46370000D03*
X57165000Y-46370000D03*
X57165000Y-45100000D03*
X57165000Y-43830000D03*
X57165000Y-42560000D03*
%TD*%
D17*
%TO.C,R128*%
X94495000Y-117825000D03*
X94495000Y-116000000D03*
%TD*%
D25*
%TO.C,Q26*%
X206950000Y-82550000D03*
X206950000Y-81850000D03*
D26*
X207925000Y-83125000D03*
D27*
X207925000Y-82160000D03*
D26*
X207925000Y-81275000D03*
%TD*%
D28*
%TO.C,U19*%
X198850000Y-76062500D03*
X199500000Y-76062500D03*
X200150000Y-76062500D03*
X200150000Y-74187500D03*
X199500000Y-74187500D03*
X198850000Y-74187500D03*
D29*
X199175000Y-75125000D03*
D30*
X200200000Y-75125000D03*
%TD*%
D17*
%TO.C,R29*%
X73000000Y-90897500D03*
X73000000Y-89072500D03*
%TD*%
D14*
%TO.C,C24*%
X59025000Y-122900000D03*
X61100000Y-122900000D03*
%TD*%
D17*
%TO.C,R101*%
X152087500Y-133450000D03*
X152087500Y-131625000D03*
%TD*%
%TO.C,R117*%
X186450000Y-100750000D03*
X186450000Y-98925000D03*
%TD*%
D31*
%TO.C,C27*%
X75907502Y-88982499D03*
X75907502Y-90707499D03*
%TD*%
D32*
%TO.C,C13*%
X252500000Y-53537500D03*
X252500000Y-51462500D03*
%TD*%
D23*
%TO.C,R85*%
X80795000Y-115962500D03*
X80795000Y-117787500D03*
%TD*%
D33*
%TO.C,C69*%
X92590000Y-39000000D03*
X92590000Y-30300000D03*
%TD*%
D19*
%TO.C,C32*%
X195762500Y-85287500D03*
X194037500Y-85287500D03*
%TD*%
D34*
%TO.C,U23*%
X56250000Y-124762500D03*
X55300000Y-124762500D03*
X54350000Y-124762500D03*
X54350000Y-127037500D03*
X56250000Y-127037500D03*
%TD*%
D31*
%TO.C,C65*%
X62690000Y-53202500D03*
X62690000Y-54927500D03*
%TD*%
D35*
%TO.C,R9*%
X139250000Y-77700000D03*
X139250000Y-75700000D03*
%TD*%
D36*
%TO.C,C94*%
X176950000Y-96700000D03*
X176950000Y-94975000D03*
%TD*%
D37*
%TO.C,U15*%
X57552500Y-52740000D03*
X57552500Y-52090000D03*
X57552500Y-51440000D03*
X57552500Y-50790000D03*
X57552500Y-50140000D03*
X57552500Y-49490000D03*
X57552500Y-48840000D03*
X57552500Y-48190000D03*
X51827500Y-48190000D03*
X51827500Y-48840000D03*
X51827500Y-49490000D03*
X51827500Y-50140000D03*
X51827500Y-50790000D03*
X51827500Y-51440000D03*
X51827500Y-52090000D03*
X51827500Y-52740000D03*
%TD*%
D17*
%TO.C,R113*%
X206450000Y-94087500D03*
X206450000Y-92262500D03*
%TD*%
D38*
%TO.C,C50*%
X75900000Y-69910000D03*
X75900000Y-68360000D03*
%TD*%
D39*
%TO.C,R30*%
X54100000Y-71025000D03*
X54100000Y-72675000D03*
%TD*%
%TO.C,R28*%
X50900000Y-67900000D03*
X50900000Y-69550000D03*
%TD*%
D40*
%TO.C,FB2*%
X73400000Y-76372500D03*
X73400000Y-74797500D03*
%TD*%
D34*
%TO.C,U16*%
X137087500Y-131625000D03*
X136137500Y-131625000D03*
X135187500Y-131625000D03*
X135187500Y-133900000D03*
X136137500Y-133900000D03*
X137087500Y-133900000D03*
%TD*%
D40*
%TO.C,D19*%
X68600000Y-76450000D03*
X68600000Y-74875000D03*
%TD*%
D41*
%TO.C,C73*%
X241187500Y-43400000D03*
X242912500Y-43400000D03*
%TD*%
D17*
%TO.C,R119*%
X185450000Y-96750000D03*
X185450000Y-94925000D03*
%TD*%
D41*
%TO.C,C26*%
X65737500Y-97785000D03*
X67462500Y-97785000D03*
%TD*%
D42*
%TO.C,J60*%
X131325000Y-39092500D03*
X131325000Y-39892500D03*
D43*
X131325000Y-41042500D03*
X131325000Y-42042500D03*
X131325000Y-42542500D03*
X131325000Y-43542500D03*
D42*
X131325000Y-44692500D03*
X131325000Y-45492500D03*
X131325000Y-45492500D03*
X131325000Y-44692500D03*
D43*
X131325000Y-44042500D03*
X131325000Y-43042500D03*
X131325000Y-41542500D03*
X131325000Y-40542500D03*
D42*
X131325000Y-39892500D03*
X131325000Y-39092500D03*
D44*
X130750000Y-37972500D03*
D45*
X126570000Y-37972500D03*
D44*
X130750000Y-46612500D03*
D45*
X126570000Y-46612500D03*
%TD*%
D36*
%TO.C,C101*%
X208950000Y-101200000D03*
X208950000Y-99475000D03*
%TD*%
D13*
%TO.C,C51*%
X74130000Y-81100000D03*
X74130000Y-82650000D03*
%TD*%
D16*
%TO.C,SW6*%
X129750000Y-70100000D03*
X129750000Y-72600000D03*
X129750000Y-75100000D03*
%TD*%
D39*
%TO.C,R71*%
X55700000Y-67925000D03*
X55700000Y-69575000D03*
%TD*%
D41*
%TO.C,C97*%
X190125000Y-74787500D03*
X191850000Y-74787500D03*
%TD*%
D46*
%TO.C,D8*%
X69125000Y-92617500D03*
X70875000Y-92617500D03*
%TD*%
D23*
%TO.C,R81*%
X82345000Y-115962500D03*
X82345000Y-117787500D03*
%TD*%
D47*
%TO.C,R104*%
X148837500Y-115450000D03*
X150662500Y-115450000D03*
%TD*%
D48*
%TO.C,D27*%
X56090000Y-25690000D03*
X56090000Y-23640000D03*
%TD*%
D39*
%TO.C,R66*%
X49300000Y-67950000D03*
X49300000Y-69600000D03*
%TD*%
D20*
%TO.C,C66*%
X254587500Y-43427500D03*
X252512500Y-43427500D03*
%TD*%
D35*
%TO.C,R63*%
X53890000Y-25665000D03*
X53890000Y-23665000D03*
%TD*%
D49*
%TO.C,R106*%
X157087500Y-126700000D03*
X157087500Y-128700000D03*
%TD*%
D38*
%TO.C,C16*%
X47730000Y-69550000D03*
X47730000Y-68000000D03*
%TD*%
D19*
%TO.C,C82*%
X131700000Y-105950000D03*
X129975000Y-105950000D03*
%TD*%
D49*
%TO.C,R91*%
X44290000Y-53665000D03*
X44290000Y-55665000D03*
%TD*%
D14*
%TO.C,C76*%
X140550000Y-125350000D03*
X142625000Y-125350000D03*
%TD*%
D50*
%TO.C,U1*%
X242500000Y-80700000D03*
D51*
X242400000Y-81750000D03*
X242400000Y-82200000D03*
X242400000Y-82650000D03*
X244100000Y-82650000D03*
X244100000Y-82200000D03*
X244100000Y-81750000D03*
D50*
X244000000Y-80700000D03*
D52*
X243250000Y-80562500D03*
%TD*%
D32*
%TO.C,C3*%
X254850000Y-83437500D03*
X254850000Y-81362500D03*
%TD*%
D47*
%TO.C,R56*%
X58487500Y-101385000D03*
X60312500Y-101385000D03*
%TD*%
%TO.C,R57*%
X54887500Y-101385000D03*
X56712500Y-101385000D03*
%TD*%
D13*
%TO.C,C47*%
X67700000Y-81100000D03*
X67700000Y-82650000D03*
%TD*%
D17*
%TO.C,R99*%
X150337500Y-133450000D03*
X150337500Y-131625000D03*
%TD*%
D31*
%TO.C,C34*%
X83907502Y-92285000D03*
X83907502Y-94010000D03*
%TD*%
D17*
%TO.C,R115*%
X207450000Y-97837500D03*
X207450000Y-96012500D03*
%TD*%
D53*
%TO.C,Q8*%
X100125000Y-88200000D03*
X100125000Y-90100000D03*
X102000000Y-89150000D03*
%TD*%
D21*
%TO.C,R73*%
X39500000Y-65425000D03*
X39500000Y-63775000D03*
%TD*%
D23*
%TO.C,R130*%
X89795000Y-116000000D03*
X89795000Y-117825000D03*
%TD*%
D30*
%TO.C,U11*%
X150762500Y-126725000D03*
X151412500Y-126725000D03*
X152062500Y-126725000D03*
X152712500Y-126725000D03*
X152712500Y-122275000D03*
X152062500Y-122275000D03*
X151412500Y-122275000D03*
X150762500Y-122275000D03*
%TD*%
D23*
%TO.C,R110*%
X191987500Y-71287500D03*
X191987500Y-73112500D03*
%TD*%
D15*
%TO.C,C1*%
X240400000Y-80287500D03*
X240400000Y-82362500D03*
%TD*%
D49*
%TO.C,R46*%
X127600000Y-49265000D03*
X127600000Y-51265000D03*
%TD*%
D41*
%TO.C,C100*%
X196587500Y-83687500D03*
X198312500Y-83687500D03*
%TD*%
D32*
%TO.C,C90*%
X205250000Y-69637500D03*
X205250000Y-67562500D03*
%TD*%
D54*
%TO.C,D31*%
X54000000Y-103575000D03*
X54000000Y-105625000D03*
%TD*%
D17*
%TO.C,R48*%
X180200000Y-100750000D03*
X180200000Y-98925000D03*
%TD*%
D21*
%TO.C,R80*%
X44300000Y-72650000D03*
X44300000Y-71000000D03*
%TD*%
%TO.C,R74*%
X42700000Y-65450000D03*
X42700000Y-63800000D03*
%TD*%
D54*
%TO.C,D9*%
X47290000Y-23640000D03*
X47290000Y-25690000D03*
%TD*%
D23*
%TO.C,R25*%
X82307502Y-92244999D03*
X82307502Y-94069999D03*
%TD*%
D55*
%TO.C,C71*%
X92590000Y-45000000D03*
X92590000Y-53700000D03*
%TD*%
D53*
%TO.C,Q17*%
X148837500Y-111750000D03*
X148837500Y-113650000D03*
X150712500Y-112700000D03*
%TD*%
D36*
%TO.C,C31*%
X79107502Y-90707499D03*
X79107502Y-88982499D03*
%TD*%
D56*
%TO.C,D10*%
X47890000Y-33065000D03*
X47890000Y-37065000D03*
%TD*%
D23*
%TO.C,R61*%
X103150000Y-134237500D03*
X103150000Y-136062500D03*
%TD*%
D32*
%TO.C,C12*%
X250500000Y-53537500D03*
X250500000Y-51462500D03*
%TD*%
D57*
%TO.C,R50*%
X191650000Y-69550000D03*
X193650000Y-69550000D03*
%TD*%
D48*
%TO.C,D3*%
X139250000Y-73950000D03*
X139250000Y-71900000D03*
%TD*%
D13*
%TO.C,C48*%
X75700000Y-81100000D03*
X75700000Y-82650000D03*
%TD*%
D20*
%TO.C,C85*%
X207600000Y-78100000D03*
X205525000Y-78100000D03*
%TD*%
D49*
%TO.C,R90*%
X46490000Y-53665000D03*
X46490000Y-55665000D03*
%TD*%
D31*
%TO.C,C81*%
X137087500Y-114200000D03*
X137087500Y-115925000D03*
%TD*%
D19*
%TO.C,C30*%
X200825000Y-85287500D03*
X199100000Y-85287500D03*
%TD*%
%TO.C,C123*%
X77325000Y-73700000D03*
X75600000Y-73700000D03*
%TD*%
D12*
%TO.C,F2*%
X138600000Y-29665000D03*
X141575000Y-29665000D03*
%TD*%
D20*
%TO.C,C113*%
X208000000Y-88400000D03*
X205925000Y-88400000D03*
%TD*%
D47*
%TO.C,R13*%
X65632500Y-95817500D03*
X67457500Y-95817500D03*
%TD*%
D36*
%TO.C,C63*%
X248387500Y-46362500D03*
X248387500Y-44637500D03*
%TD*%
D32*
%TO.C,C70*%
X248500000Y-53537500D03*
X248500000Y-51462500D03*
%TD*%
D15*
%TO.C,C8*%
X242500000Y-51425000D03*
X242500000Y-53500000D03*
%TD*%
D36*
%TO.C,C37*%
X195225000Y-41162500D03*
X195225000Y-39437500D03*
%TD*%
D31*
%TO.C,C35*%
X195225000Y-36075000D03*
X195225000Y-37800000D03*
%TD*%
D48*
%TO.C,D26*%
X198225000Y-45962500D03*
X198225000Y-43912500D03*
%TD*%
D35*
%TO.C,R107*%
X133187500Y-133762500D03*
X133187500Y-131762500D03*
%TD*%
D19*
%TO.C,C110*%
X197112500Y-69800000D03*
X195387500Y-69800000D03*
%TD*%
D23*
%TO.C,R114*%
X207950000Y-92262500D03*
X207950000Y-94087500D03*
%TD*%
D32*
%TO.C,C106*%
X183600000Y-69650000D03*
X183600000Y-67575000D03*
%TD*%
D49*
%TO.C,R15*%
X151500000Y-88450000D03*
X151500000Y-90450000D03*
%TD*%
D15*
%TO.C,C117*%
X41450000Y-138912500D03*
X41450000Y-140987500D03*
%TD*%
D56*
%TO.C,D1*%
X136500000Y-72700000D03*
X136500000Y-76700000D03*
%TD*%
D58*
%TO.C,SW1*%
X154687500Y-136950000D03*
X154687500Y-134450000D03*
X154687500Y-131950000D03*
X157087500Y-136950000D03*
X157087500Y-134450000D03*
X157087500Y-131950000D03*
%TD*%
D36*
%TO.C,C103*%
X207450000Y-101200000D03*
X207450000Y-99475000D03*
%TD*%
D59*
%TO.C,Q9*%
X99990000Y-49065000D03*
X101890000Y-49065000D03*
X100940000Y-47190000D03*
%TD*%
D32*
%TO.C,C105*%
X181550000Y-69650000D03*
X181550000Y-67575000D03*
%TD*%
D54*
%TO.C,D7*%
X42890000Y-23640000D03*
X42890000Y-25690000D03*
%TD*%
D59*
%TO.C,Q11*%
X100040000Y-45002500D03*
X101940000Y-45002500D03*
X100990000Y-43127500D03*
%TD*%
D60*
%TO.C,R95*%
X243050000Y-39400000D03*
X241050000Y-39400000D03*
%TD*%
D61*
%TO.C,U6*%
X81607502Y-90209999D03*
X82257501Y-90209999D03*
X82907500Y-90209999D03*
X83557502Y-90209999D03*
X84557501Y-90209999D03*
X85057500Y-90209999D03*
D62*
X85982500Y-89204999D03*
D63*
X85982500Y-88555001D03*
D64*
X85982500Y-87425001D03*
D62*
X85982500Y-86924999D03*
X85982500Y-86425000D03*
D65*
X85207500Y-85185002D03*
D66*
X84707501Y-85185005D03*
D67*
X84707499Y-85435001D03*
D68*
X84207502Y-85185000D03*
D69*
X83557501Y-85469001D03*
D61*
X83057501Y-85160001D03*
X82557500Y-85160001D03*
X82057501Y-85160001D03*
X81557502Y-85160001D03*
D70*
X80782502Y-85935001D03*
X80782502Y-86435000D03*
X80782502Y-86934999D03*
X80782502Y-87435000D03*
X80782502Y-87935000D03*
X80782502Y-88435001D03*
X80782502Y-88935000D03*
X80782502Y-89434999D03*
D71*
X82107501Y-87685000D03*
D72*
X84307501Y-88879999D03*
D73*
X83442502Y-87275000D03*
D74*
X84800000Y-86985000D03*
%TD*%
D60*
%TO.C,R60*%
X59000000Y-113500000D03*
X57000000Y-113500000D03*
%TD*%
D75*
%TO.C,Q23*%
X104637500Y-120262500D03*
X104637500Y-118362500D03*
X102762500Y-119312500D03*
%TD*%
D12*
%TO.C,F4*%
X176475000Y-69337500D03*
X179450000Y-69337500D03*
%TD*%
D57*
%TO.C,R92*%
X252500000Y-49500000D03*
X254500000Y-49500000D03*
%TD*%
D31*
%TO.C,C62*%
X48490000Y-53802500D03*
X48490000Y-55527500D03*
%TD*%
D17*
%TO.C,R7*%
X204300000Y-85800000D03*
X204300000Y-83975000D03*
%TD*%
D76*
%TO.C,U17*%
X196750000Y-88112500D03*
X196750000Y-89562500D03*
X198200000Y-88112500D03*
X198200000Y-89562500D03*
D77*
X195475000Y-87437500D03*
X195475000Y-87837500D03*
X195475000Y-88237500D03*
X195475000Y-88637500D03*
X195475000Y-89037500D03*
X195475000Y-89437500D03*
X195475000Y-89837500D03*
X195475000Y-90237500D03*
D78*
X196075000Y-90837500D03*
X196475000Y-90837500D03*
X196875000Y-90837500D03*
X197275000Y-90837500D03*
X197675000Y-90837500D03*
X198075000Y-90837500D03*
X198475000Y-90837500D03*
X198875000Y-90837500D03*
D77*
X199475000Y-90237500D03*
X199475000Y-89837500D03*
X199475000Y-89437500D03*
X199475000Y-89037500D03*
X199475000Y-88637500D03*
X199475000Y-88237500D03*
X199475000Y-87837500D03*
X199475000Y-87437500D03*
D78*
X198875000Y-86837500D03*
X198475000Y-86837500D03*
X198075000Y-86837500D03*
X197675000Y-86837500D03*
X197275000Y-86837500D03*
X196875000Y-86837500D03*
X196475000Y-86837500D03*
X196075000Y-86837500D03*
%TD*%
D79*
%TO.C,U20*%
X193925000Y-72875000D03*
X193925000Y-73525000D03*
X193925000Y-74175000D03*
X195800000Y-74175000D03*
X195800000Y-73525000D03*
X195800000Y-72875000D03*
D80*
X194862500Y-73200000D03*
D81*
X194862500Y-74225000D03*
%TD*%
D17*
%TO.C,R100*%
X150337500Y-130112500D03*
X150337500Y-128287500D03*
%TD*%
D82*
%TO.C,L5*%
X141587500Y-133900000D03*
X141587500Y-130925000D03*
%TD*%
D39*
%TO.C,R22*%
X52500000Y-67900000D03*
X52500000Y-69550000D03*
%TD*%
D17*
%TO.C,R120*%
X188700000Y-100750000D03*
X188700000Y-98925000D03*
%TD*%
D83*
%TO.C,R55*%
X56712500Y-99785000D03*
X54887500Y-99785000D03*
%TD*%
D35*
%TO.C,R82*%
X42700000Y-105700000D03*
X42700000Y-103700000D03*
%TD*%
D17*
%TO.C,R78*%
X50750000Y-141412500D03*
X50750000Y-139587500D03*
%TD*%
D31*
%TO.C,C104*%
X205950000Y-96112500D03*
X205950000Y-97837500D03*
%TD*%
D16*
%TO.C,SW8*%
X38040000Y-29765000D03*
X38040000Y-32265000D03*
X38040000Y-34765000D03*
%TD*%
D75*
%TO.C,Q19*%
X156837500Y-117850000D03*
X156837500Y-115950000D03*
X154962500Y-116900000D03*
%TD*%
%TO.C,Q7*%
X101975000Y-83100000D03*
X101975000Y-81200000D03*
X100100000Y-82150000D03*
%TD*%
D49*
%TO.C,R43*%
X154000000Y-48865000D03*
X154000000Y-50865000D03*
%TD*%
D17*
%TO.C,R65*%
X52300000Y-141412500D03*
X52300000Y-139587500D03*
%TD*%
D84*
%TO.C,U10*%
X246060000Y-40500000D03*
X246060000Y-41000000D03*
X246060000Y-41500000D03*
X246060000Y-42000000D03*
D85*
X246420000Y-42625000D03*
D86*
X246920000Y-42650000D03*
X250000000Y-42650000D03*
D85*
X250500000Y-42625000D03*
D84*
X250860000Y-42000000D03*
X250860000Y-41500000D03*
X250860000Y-41000000D03*
X250860000Y-40500000D03*
D85*
X250500000Y-39875000D03*
D86*
X250000000Y-39850000D03*
X246920000Y-39850000D03*
D85*
X246420000Y-39875000D03*
%TD*%
D48*
%TO.C,D13*%
X139600000Y-36665000D03*
X139600000Y-34615000D03*
%TD*%
D87*
%TO.C,U14*%
X138587500Y-111800000D03*
X138587500Y-111300000D03*
X138587500Y-110800000D03*
X138587500Y-110300000D03*
X138587500Y-109800000D03*
X138587500Y-109300000D03*
X138587500Y-108800000D03*
D88*
X137637500Y-107850000D03*
X137137500Y-107850000D03*
X136637500Y-107850000D03*
X136137500Y-107850000D03*
X135637500Y-107850000D03*
X135137500Y-107850000D03*
X134637500Y-107850000D03*
D87*
X133687500Y-108800000D03*
X133687500Y-109300000D03*
X133687500Y-109800000D03*
X133687500Y-110300000D03*
X133687500Y-110800000D03*
X133687500Y-111300000D03*
X133687500Y-111800000D03*
D88*
X134637500Y-112750000D03*
X135137500Y-112750000D03*
X135637500Y-112750000D03*
X136137500Y-112750000D03*
X136637500Y-112750000D03*
X137137500Y-112750000D03*
X137637500Y-112750000D03*
%TD*%
D14*
%TO.C,C25*%
X59025000Y-124950000D03*
X61100000Y-124950000D03*
%TD*%
D48*
%TO.C,D16*%
X146800000Y-36665000D03*
X146800000Y-34615000D03*
%TD*%
D19*
%TO.C,C22*%
X56262500Y-119100000D03*
X54537500Y-119100000D03*
%TD*%
D23*
%TO.C,R129*%
X91345000Y-116000000D03*
X91345000Y-117825000D03*
%TD*%
D35*
%TO.C,R86*%
X49400000Y-105700000D03*
X49400000Y-103700000D03*
%TD*%
D57*
%TO.C,R98*%
X241050000Y-45400000D03*
X243050000Y-45400000D03*
%TD*%
D15*
%TO.C,C9*%
X244500000Y-51462500D03*
X244500000Y-53537500D03*
%TD*%
D17*
%TO.C,R102*%
X152087500Y-136862500D03*
X152087500Y-135037500D03*
%TD*%
D23*
%TO.C,R35*%
X99950000Y-91887500D03*
X99950000Y-93712500D03*
%TD*%
D17*
%TO.C,R20*%
X79107502Y-94069999D03*
X79107502Y-92244999D03*
%TD*%
D39*
%TO.C,R17*%
X68600000Y-77937500D03*
X68600000Y-79587500D03*
%TD*%
D49*
%TO.C,R23*%
X149500000Y-88450000D03*
X149500000Y-90450000D03*
%TD*%
D35*
%TO.C,R2*%
X248600000Y-83400000D03*
X248600000Y-81400000D03*
%TD*%
D20*
%TO.C,C55*%
X49127500Y-43265000D03*
X47052500Y-43265000D03*
%TD*%
D35*
%TO.C,TH2*%
X65840000Y-55250000D03*
X65840000Y-53250000D03*
%TD*%
D89*
%TO.C,D28*%
X61090000Y-38865000D03*
D90*
X61090000Y-44665000D03*
%TD*%
D36*
%TO.C,C95*%
X189987500Y-78400000D03*
X189987500Y-76675000D03*
%TD*%
D91*
%TO.C,D29*%
X61090000Y-34265000D03*
X61090000Y-29265000D03*
%TD*%
D17*
%TO.C,R27*%
X73000000Y-87497500D03*
X73000000Y-85672500D03*
%TD*%
D75*
%TO.C,Q5*%
X151437500Y-86400000D03*
X151437500Y-84500000D03*
X149562500Y-85450000D03*
%TD*%
D21*
%TO.C,R75*%
X41100000Y-65450000D03*
X41100000Y-63800000D03*
%TD*%
D47*
%TO.C,R14*%
X65700000Y-92617500D03*
X67525000Y-92617500D03*
%TD*%
%TO.C,R54*%
X54887500Y-98185000D03*
X56712500Y-98185000D03*
%TD*%
D12*
%TO.C,F5*%
X235212500Y-68687500D03*
X238187500Y-68687500D03*
%TD*%
D46*
%TO.C,D6*%
X69082500Y-95817500D03*
X70832500Y-95817500D03*
%TD*%
D23*
%TO.C,R38*%
X100050000Y-134237500D03*
X100050000Y-136062500D03*
%TD*%
D21*
%TO.C,R69*%
X50900000Y-72675000D03*
X50900000Y-71025000D03*
%TD*%
D14*
%TO.C,C77*%
X140550000Y-127390000D03*
X142625000Y-127390000D03*
%TD*%
D54*
%TO.C,D25*%
X51690000Y-23640000D03*
X51690000Y-25690000D03*
%TD*%
D32*
%TO.C,C5*%
X252850000Y-83437500D03*
X252850000Y-81362500D03*
%TD*%
D49*
%TO.C,R126*%
X102700000Y-129000000D03*
X102700000Y-131000000D03*
%TD*%
D46*
%TO.C,D5*%
X69082500Y-94217500D03*
X70832500Y-94217500D03*
%TD*%
D57*
%TO.C,R96*%
X241050000Y-37400000D03*
X243050000Y-37400000D03*
%TD*%
D12*
%TO.C,F6*%
X190162500Y-34662500D03*
X193137500Y-34662500D03*
%TD*%
D35*
%TO.C,R1*%
X240150000Y-86937500D03*
X240150000Y-84937500D03*
%TD*%
D92*
%TO.C,L1*%
X243850000Y-77362500D03*
X249825000Y-77362500D03*
%TD*%
D32*
%TO.C,C92*%
X203200000Y-69637500D03*
X203200000Y-67562500D03*
%TD*%
D19*
%TO.C,C49*%
X247300000Y-38500000D03*
X245575000Y-38500000D03*
%TD*%
D17*
%TO.C,R124*%
X88195000Y-117875000D03*
X88195000Y-116050000D03*
%TD*%
D48*
%TO.C,D4*%
X145750000Y-73975000D03*
X145750000Y-71925000D03*
%TD*%
D17*
%TO.C,R116*%
X205950000Y-101250000D03*
X205950000Y-99425000D03*
%TD*%
D93*
%TO.C,C36*%
X94600000Y-79050000D03*
X94600000Y-75925000D03*
%TD*%
D36*
%TO.C,C98*%
X182200000Y-100700000D03*
X182200000Y-98975000D03*
%TD*%
D20*
%TO.C,C87*%
X207587500Y-74000000D03*
X205512500Y-74000000D03*
%TD*%
D32*
%TO.C,C107*%
X185650000Y-69650000D03*
X185650000Y-67575000D03*
%TD*%
D17*
%TO.C,R49*%
X179200000Y-96750000D03*
X179200000Y-94925000D03*
%TD*%
D35*
%TO.C,R88*%
X250137500Y-46500000D03*
X250137500Y-44500000D03*
%TD*%
D23*
%TO.C,R121*%
X79245000Y-115962500D03*
X79245000Y-117787500D03*
%TD*%
D35*
%TO.C,R87*%
X56100000Y-105600000D03*
X56100000Y-103600000D03*
%TD*%
D13*
%TO.C,C20*%
X52500000Y-71075000D03*
X52500000Y-72625000D03*
%TD*%
D94*
%TO.C,L4*%
X53875000Y-121600000D03*
X56850000Y-121600000D03*
%TD*%
D28*
%TO.C,U12*%
X198850000Y-73225000D03*
X199500000Y-73225000D03*
X200150000Y-73225000D03*
X200150000Y-71350000D03*
X199500000Y-71350000D03*
X198850000Y-71350000D03*
D29*
X199175000Y-72287500D03*
D30*
X200200000Y-72287500D03*
%TD*%
D20*
%TO.C,C56*%
X49127500Y-45465000D03*
X47052500Y-45465000D03*
%TD*%
D35*
%TO.C,R3*%
X248600000Y-87200000D03*
X248600000Y-85200000D03*
%TD*%
D15*
%TO.C,C114*%
X43487500Y-138912500D03*
X43487500Y-140987500D03*
%TD*%
D19*
%TO.C,C72*%
X254672500Y-39500000D03*
X252947500Y-39500000D03*
%TD*%
D32*
%TO.C,C4*%
X250850000Y-83437500D03*
X250850000Y-81362500D03*
%TD*%
D35*
%TO.C,R41*%
X143200000Y-40440000D03*
X143200000Y-38440000D03*
%TD*%
D36*
%TO.C,C91*%
X206100000Y-86500000D03*
X206100000Y-84775000D03*
%TD*%
D49*
%TO.C,R84*%
X62590000Y-48500000D03*
X62590000Y-50500000D03*
%TD*%
%TO.C,R5*%
X207900000Y-84500000D03*
X207900000Y-86500000D03*
%TD*%
D23*
%TO.C,R34*%
X98300000Y-91887500D03*
X98300000Y-93712500D03*
%TD*%
D39*
%TO.C,R67*%
X47730000Y-71000000D03*
X47730000Y-72650000D03*
%TD*%
D35*
%TO.C,R10*%
X142500000Y-77700000D03*
X142500000Y-75700000D03*
%TD*%
D60*
%TO.C,R94*%
X254587500Y-41437500D03*
X252587500Y-41437500D03*
%TD*%
D12*
%TO.C,F3*%
X48402500Y-29065000D03*
X51377500Y-29065000D03*
%TD*%
D15*
%TO.C,C44*%
X45550000Y-138925000D03*
X45550000Y-141000000D03*
%TD*%
D16*
%TO.C,SW9*%
X38050000Y-110200000D03*
X38050000Y-112700000D03*
X38050000Y-115200000D03*
%TD*%
D36*
%TO.C,C96*%
X191987500Y-78400000D03*
X191987500Y-76675000D03*
%TD*%
D48*
%TO.C,D24*%
X200225000Y-45962500D03*
X200225000Y-43912500D03*
%TD*%
D32*
%TO.C,C108*%
X187700000Y-69650000D03*
X187700000Y-67575000D03*
%TD*%
D39*
%TO.C,R70*%
X54100000Y-67900000D03*
X54100000Y-69550000D03*
%TD*%
D95*
%TO.C,U18*%
X140490968Y-123463500D03*
X141440968Y-123463500D03*
X142390968Y-123463500D03*
X142390968Y-121188500D03*
X140490968Y-121188500D03*
%TD*%
D19*
%TO.C,C46*%
X251225000Y-38500000D03*
X249500000Y-38500000D03*
%TD*%
D96*
%TO.C,SW3*%
X73195000Y-120985000D03*
X73195000Y-123525000D03*
X73195000Y-126065000D03*
X73195000Y-128605000D03*
X81805000Y-128605000D03*
X81805000Y-126065000D03*
X81805000Y-123525000D03*
X81805000Y-120985000D03*
%TD*%
D31*
%TO.C,C93*%
X204300000Y-80562500D03*
X204300000Y-82287500D03*
%TD*%
D49*
%TO.C,R33*%
X99640000Y-51765000D03*
X99640000Y-53765000D03*
%TD*%
D48*
%TO.C,D2*%
X142400000Y-73975000D03*
X142400000Y-71925000D03*
%TD*%
D35*
%TO.C,R36*%
X40690000Y-25665000D03*
X40690000Y-23665000D03*
%TD*%
D97*
%TO.C,U7*%
X56500000Y-117450000D03*
X56500000Y-116500000D03*
X56500000Y-115550000D03*
X54225000Y-115550000D03*
X54225000Y-116500000D03*
X54225000Y-117450000D03*
%TD*%
D98*
%TO.C,C52*%
X73700000Y-71885000D03*
X72150000Y-71885000D03*
%TD*%
D39*
%TO.C,R68*%
X49300000Y-71000000D03*
X49300000Y-72650000D03*
%TD*%
D90*
%TO.C,D23*%
X52290000Y-39365000D03*
D89*
X52290000Y-33565000D03*
%TD*%
D31*
%TO.C,C2*%
X245650000Y-80237500D03*
X245650000Y-81962500D03*
%TD*%
D13*
%TO.C,C53*%
X72500000Y-81100000D03*
X72500000Y-82650000D03*
%TD*%
%TO.C,C33*%
X65450000Y-76450000D03*
X65450000Y-78000000D03*
%TD*%
D32*
%TO.C,C88*%
X209350000Y-69625000D03*
X209350000Y-67550000D03*
%TD*%
D99*
%TO.C,U4*%
X58412500Y-65700000D03*
X58412500Y-66200000D03*
X58412500Y-66700000D03*
X58412500Y-67200000D03*
X58412500Y-67700000D03*
X58412500Y-68200000D03*
X58412500Y-68700000D03*
X58412500Y-69200000D03*
X58412500Y-69700000D03*
X58412500Y-70200000D03*
X58412500Y-70700000D03*
X58412500Y-71200000D03*
D100*
X59825000Y-72612500D03*
X60325000Y-72612500D03*
X60825000Y-72612500D03*
X61325000Y-72612500D03*
X61825000Y-72612500D03*
X62325000Y-72612500D03*
X62825000Y-72612500D03*
X63325000Y-72612500D03*
X63825000Y-72612500D03*
X64325000Y-72612500D03*
X64825000Y-72612500D03*
X65325000Y-72612500D03*
D99*
X66737500Y-71200000D03*
X66737500Y-70700000D03*
X66737500Y-70200000D03*
X66737500Y-69700000D03*
X66737500Y-69200000D03*
X66737500Y-68700000D03*
X66737500Y-68200000D03*
X66737500Y-67700000D03*
X66737500Y-67200000D03*
X66737500Y-66700000D03*
X66737500Y-66200000D03*
X66737500Y-65700000D03*
D100*
X65325000Y-64287500D03*
X64825000Y-64287500D03*
X64325000Y-64287500D03*
X63825000Y-64287500D03*
X63325000Y-64287500D03*
X62825000Y-64287500D03*
X62325000Y-64287500D03*
X61825000Y-64287500D03*
X61325000Y-64287500D03*
X60825000Y-64287500D03*
X60325000Y-64287500D03*
X59825000Y-64287500D03*
%TD*%
D54*
%TO.C,D12*%
X47200000Y-103675000D03*
X47200000Y-105725000D03*
%TD*%
D75*
%TO.C,Q13*%
X153600000Y-39765000D03*
X153600000Y-37865000D03*
X151725000Y-38815000D03*
%TD*%
D31*
%TO.C,C64*%
X46490000Y-48202500D03*
X46490000Y-49927500D03*
%TD*%
D75*
%TO.C,Q14*%
X153675000Y-47015000D03*
X153675000Y-45115000D03*
X151800000Y-46065000D03*
%TD*%
D101*
%TO.C,L3*%
X86400000Y-82300000D03*
X86400000Y-71200000D03*
%TD*%
D32*
%TO.C,C89*%
X207300000Y-69625000D03*
X207300000Y-67550000D03*
%TD*%
D102*
%TO.C,F9*%
X127362500Y-140450000D03*
X129412500Y-140450000D03*
%TD*%
D60*
%TO.C,R89*%
X254500000Y-47500000D03*
X252500000Y-47500000D03*
%TD*%
D41*
%TO.C,C28*%
X77845002Y-84335000D03*
X79570002Y-84335000D03*
%TD*%
D56*
%TO.C,D21*%
X47200000Y-114800000D03*
X47200000Y-118800000D03*
%TD*%
D35*
%TO.C,R64*%
X58290000Y-25665000D03*
X58290000Y-23665000D03*
%TD*%
D12*
%TO.C,F7*%
X47200000Y-110000000D03*
X50175000Y-110000000D03*
%TD*%
D17*
%TO.C,R26*%
X85507502Y-94069999D03*
X85507502Y-92244999D03*
%TD*%
D32*
%TO.C,C14*%
X254500000Y-53537500D03*
X254500000Y-51462500D03*
%TD*%
D17*
%TO.C,R79*%
X53900000Y-141412500D03*
X53900000Y-139587500D03*
%TD*%
D31*
%TO.C,C83*%
X140837500Y-113587500D03*
X140837500Y-115312500D03*
%TD*%
D53*
%TO.C,Q20*%
X154962500Y-123000000D03*
X154962500Y-124900000D03*
X156837500Y-123950000D03*
%TD*%
D31*
%TO.C,C74*%
X137537500Y-136750000D03*
X137537500Y-138475000D03*
%TD*%
D103*
%TO.C,R24*%
X65375000Y-87585000D03*
X67025000Y-87585000D03*
%TD*%
D19*
%TO.C,C80*%
X131700000Y-104200000D03*
X129975000Y-104200000D03*
%TD*%
%TO.C,C116*%
X36912500Y-129200000D03*
X35187500Y-129200000D03*
%TD*%
D49*
%TO.C,R44*%
X151800000Y-48865000D03*
X151800000Y-50865000D03*
%TD*%
D31*
%TO.C,C102*%
X208950000Y-96087500D03*
X208950000Y-97812500D03*
%TD*%
D97*
%TO.C,U24*%
X77587500Y-77612500D03*
X77587500Y-76662500D03*
X77587500Y-75712500D03*
X75312500Y-75712500D03*
X75312500Y-77612500D03*
%TD*%
D54*
%TO.C,D11*%
X40600000Y-103675000D03*
X40600000Y-105725000D03*
%TD*%
D35*
%TO.C,R37*%
X45090000Y-25665000D03*
X45090000Y-23665000D03*
%TD*%
D104*
%TO.C,SW2*%
X157202500Y-107950000D03*
X150472500Y-107950000D03*
%TD*%
D53*
%TO.C,Q12*%
X151800000Y-41665000D03*
X151800000Y-43565000D03*
X153675000Y-42615000D03*
%TD*%
D75*
%TO.C,Q6*%
X102000000Y-86600000D03*
X102000000Y-84700000D03*
X100125000Y-85650000D03*
%TD*%
D31*
%TO.C,C75*%
X138837500Y-131925000D03*
X138837500Y-133650000D03*
%TD*%
D57*
%TO.C,R58*%
X52200000Y-113500000D03*
X54200000Y-113500000D03*
%TD*%
D31*
%TO.C,C21*%
X52300000Y-116387500D03*
X52300000Y-118112500D03*
%TD*%
D12*
%TO.C,F1*%
X136500000Y-69700000D03*
X139475000Y-69700000D03*
%TD*%
D105*
%TO.C,L7*%
X65690000Y-42265000D03*
X81040000Y-42265000D03*
%TD*%
D36*
%TO.C,C7*%
X244150000Y-86912500D03*
X244150000Y-85187500D03*
%TD*%
D35*
%TO.C,R11*%
X145750000Y-77700000D03*
X145750000Y-75700000D03*
%TD*%
D17*
%TO.C,R122*%
X77695000Y-117787500D03*
X77695000Y-115962500D03*
%TD*%
D39*
%TO.C,R19*%
X71800000Y-78012500D03*
X71800000Y-79662500D03*
%TD*%
D13*
%TO.C,C17*%
X46130000Y-71125000D03*
X46130000Y-72675000D03*
%TD*%
D106*
%TO.C,U13*%
X199725000Y-38337500D03*
X198075000Y-38337500D03*
X199725000Y-39537500D03*
X198075000Y-39537500D03*
D107*
X200805000Y-36462500D03*
X199535000Y-36462500D03*
X198265000Y-36462500D03*
X196995000Y-36462500D03*
X196995000Y-41412500D03*
X198265000Y-41412500D03*
X199535000Y-41412500D03*
X200805000Y-41412500D03*
%TD*%
D36*
%TO.C,C61*%
X57490000Y-55865000D03*
X57490000Y-54140000D03*
%TD*%
D56*
%TO.C,D15*%
X136200000Y-35665000D03*
X136200000Y-39665000D03*
%TD*%
D20*
%TO.C,C118*%
X36837500Y-132550000D03*
X34762500Y-132550000D03*
%TD*%
D108*
%TO.C,C57*%
X65700000Y-80275000D03*
X65700000Y-83225000D03*
%TD*%
D53*
%TO.C,Q18*%
X154962500Y-119500000D03*
X154962500Y-121400000D03*
X156837500Y-120450000D03*
%TD*%
D96*
%TO.C,SW4*%
X85145000Y-121035000D03*
X85145000Y-123575000D03*
X85145000Y-126115000D03*
X85145000Y-128655000D03*
X93755000Y-128655000D03*
X93755000Y-126115000D03*
X93755000Y-123575000D03*
X93755000Y-121035000D03*
%TD*%
D40*
%TO.C,D20*%
X71800000Y-76437500D03*
X71800000Y-74862500D03*
%TD*%
D19*
%TO.C,C79*%
X138700000Y-121400000D03*
X136975000Y-121400000D03*
%TD*%
D15*
%TO.C,C43*%
X47600000Y-138925000D03*
X47600000Y-141000000D03*
%TD*%
D92*
%TO.C,L2*%
X245512500Y-34450000D03*
X251487500Y-34450000D03*
%TD*%
D60*
%TO.C,R52*%
X200225000Y-33937500D03*
X198225000Y-33937500D03*
%TD*%
D109*
%TO.C,U5*%
X45200000Y-94085000D03*
D110*
X45200000Y-97570000D03*
D109*
X47280000Y-94085000D03*
D110*
X47280000Y-97570000D03*
D111*
X43320000Y-93395000D03*
D112*
X43600000Y-93395000D03*
D111*
X43320000Y-93895000D03*
D112*
X43600000Y-93895000D03*
D111*
X43320000Y-94395000D03*
D112*
X43600000Y-94395000D03*
D111*
X43320000Y-95395000D03*
D112*
X43600000Y-95395000D03*
D111*
X43320000Y-95895000D03*
D112*
X43600000Y-95895000D03*
D111*
X43320000Y-96395000D03*
D112*
X43600000Y-96395000D03*
D111*
X43320000Y-96895000D03*
D112*
X43600000Y-96895000D03*
D111*
X43320000Y-97895000D03*
D112*
X43600000Y-97895000D03*
D111*
X43320000Y-98395000D03*
D112*
X43600000Y-98395000D03*
D111*
X43320000Y-98895000D03*
D112*
X43600000Y-98895000D03*
X44490000Y-99790000D03*
D113*
X44490000Y-100070000D03*
D112*
X44990000Y-99790000D03*
D113*
X44990000Y-100070000D03*
D112*
X45990000Y-99790000D03*
D113*
X45990000Y-100070000D03*
D112*
X46490000Y-99790000D03*
D113*
X46490000Y-100070000D03*
D112*
X47490000Y-99790000D03*
D113*
X47490000Y-100070000D03*
D112*
X47990000Y-99790000D03*
D113*
X47990000Y-100070000D03*
D112*
X48880000Y-98895000D03*
D111*
X49160000Y-98895000D03*
D112*
X48880000Y-98395000D03*
D111*
X49160000Y-98395000D03*
D112*
X48880000Y-97895000D03*
D111*
X49160000Y-97895000D03*
D112*
X48880000Y-96895000D03*
D111*
X49160000Y-96895000D03*
D112*
X48880000Y-96395000D03*
D111*
X49160000Y-96395000D03*
D112*
X48880000Y-95895000D03*
D111*
X49160000Y-95895000D03*
D112*
X48880000Y-95395000D03*
D111*
X49160000Y-95395000D03*
D112*
X48880000Y-94395000D03*
D111*
X49160000Y-94395000D03*
D112*
X48880000Y-93895000D03*
D111*
X49160000Y-93895000D03*
D112*
X48880000Y-93395000D03*
D111*
X49160000Y-93395000D03*
D113*
X47990000Y-92220000D03*
D112*
X47990000Y-92500000D03*
D113*
X47490000Y-92220000D03*
D112*
X47490000Y-92500000D03*
D113*
X46490000Y-92220000D03*
D112*
X46490000Y-92500000D03*
D113*
X45990000Y-92220000D03*
D112*
X45990000Y-92500000D03*
D113*
X44990000Y-92220000D03*
D112*
X44990000Y-92500000D03*
D113*
X44490000Y-92220000D03*
D112*
X44490000Y-92500000D03*
%TD*%
D47*
%TO.C,R12*%
X65687500Y-94185000D03*
X67512500Y-94185000D03*
%TD*%
D20*
%TO.C,C86*%
X207600000Y-76050000D03*
X205525000Y-76050000D03*
%TD*%
D38*
%TO.C,C23*%
X55700000Y-72625000D03*
X55700000Y-71075000D03*
%TD*%
D83*
%TO.C,R47*%
X193862500Y-90337500D03*
X192037500Y-90337500D03*
%TD*%
D36*
%TO.C,C11*%
X135137500Y-138550000D03*
X135137500Y-136825000D03*
%TD*%
D49*
%TO.C,R45*%
X129800000Y-49265000D03*
X129800000Y-51265000D03*
%TD*%
D114*
%TO.C,Q15*%
X65050000Y-108850000D03*
X65700000Y-108850000D03*
X65050000Y-109500000D03*
X65700000Y-109500000D03*
X65050000Y-110150000D03*
X65700000Y-110150000D03*
X65050000Y-110800000D03*
X65700000Y-110800000D03*
X65050000Y-111450000D03*
X65700000Y-111450000D03*
%TD*%
D35*
%TO.C,R108*%
X137087500Y-129400000D03*
X137087500Y-127400000D03*
%TD*%
D20*
%TO.C,C58*%
X36837500Y-134600000D03*
X34762500Y-134600000D03*
%TD*%
D14*
%TO.C,C41*%
X59025000Y-120850000D03*
X61100000Y-120850000D03*
%TD*%
D53*
%TO.C,Q3*%
X149562500Y-81000000D03*
X149562500Y-82900000D03*
X151437500Y-81950000D03*
%TD*%
D17*
%TO.C,R6*%
X204300000Y-89112500D03*
X204300000Y-87287500D03*
%TD*%
D41*
%TO.C,C124*%
X75600000Y-79550000D03*
X77325000Y-79550000D03*
%TD*%
D15*
%TO.C,C10*%
X246500000Y-51462500D03*
X246500000Y-53537500D03*
%TD*%
D49*
%TO.C,R105*%
X154837500Y-126700000D03*
X154837500Y-128700000D03*
%TD*%
D23*
%TO.C,R31*%
X80707502Y-92244999D03*
X80707502Y-94069999D03*
%TD*%
%TO.C,R112*%
X181200000Y-94925000D03*
X181200000Y-96750000D03*
%TD*%
D35*
%TO.C,R59*%
X58900000Y-117800000D03*
X58900000Y-115800000D03*
%TD*%
D103*
%TO.C,R18*%
X65350000Y-85985000D03*
X67000000Y-85985000D03*
%TD*%
D20*
%TO.C,C112*%
X207987500Y-90450000D03*
X205912500Y-90450000D03*
%TD*%
D92*
%TO.C,L6*%
X194462500Y-80837500D03*
X200437500Y-80837500D03*
%TD*%
D47*
%TO.C,R8*%
X148425000Y-135200000D03*
X150250000Y-135200000D03*
%TD*%
%TO.C,R53*%
X54887500Y-96585000D03*
X56712500Y-96585000D03*
%TD*%
D17*
%TO.C,R111*%
X184200000Y-100750000D03*
X184200000Y-98925000D03*
%TD*%
D115*
%TO.C,U22*%
X43025000Y-132475000D03*
X44475000Y-132475000D03*
X43025000Y-131025000D03*
X44475000Y-131025000D03*
D116*
X42350000Y-133750000D03*
X42750000Y-133750000D03*
X43150000Y-133750000D03*
X43550000Y-133750000D03*
X43950000Y-133750000D03*
X44350000Y-133750000D03*
X44750000Y-133750000D03*
X45150000Y-133750000D03*
D117*
X45750000Y-133150000D03*
X45750000Y-132750000D03*
X45750000Y-132350000D03*
X45750000Y-131950000D03*
X45750000Y-131550000D03*
X45750000Y-131150000D03*
X45750000Y-130750000D03*
X45750000Y-130350000D03*
D116*
X45150000Y-129750000D03*
X44750000Y-129750000D03*
X44350000Y-129750000D03*
X43950000Y-129750000D03*
X43550000Y-129750000D03*
X43150000Y-129750000D03*
X42750000Y-129750000D03*
X42350000Y-129750000D03*
D117*
X41750000Y-130350000D03*
X41750000Y-130750000D03*
X41750000Y-131150000D03*
X41750000Y-131550000D03*
X41750000Y-131950000D03*
X41750000Y-132350000D03*
X41750000Y-132750000D03*
X41750000Y-133150000D03*
%TD*%
D32*
%TO.C,C109*%
X189750000Y-69637500D03*
X189750000Y-67562500D03*
%TD*%
D49*
%TO.C,R125*%
X104750000Y-129000000D03*
X104750000Y-131000000D03*
%TD*%
D48*
%TO.C,D14*%
X143200000Y-36640000D03*
X143200000Y-34590000D03*
%TD*%
D13*
%TO.C,C54*%
X70900000Y-81100000D03*
X70900000Y-82650000D03*
%TD*%
D60*
%TO.C,R97*%
X243050000Y-41400000D03*
X241050000Y-41400000D03*
%TD*%
D35*
%TO.C,R109*%
X135087500Y-129400000D03*
X135087500Y-127400000D03*
%TD*%
D75*
%TO.C,Q4*%
X151437500Y-79350000D03*
X151437500Y-77450000D03*
X149562500Y-78400000D03*
%TD*%
D118*
%TO.C,Y1*%
X143137500Y-111400000D03*
X143137500Y-108500000D03*
X140837500Y-108500000D03*
X140837500Y-111400000D03*
%TD*%
D42*
%TO.C,J31*%
X40580000Y-119700000D03*
X40580000Y-120500000D03*
D43*
X40580000Y-121650000D03*
X40580000Y-122650000D03*
X40580000Y-123150000D03*
X40580000Y-124150000D03*
D42*
X40580000Y-125300000D03*
X40580000Y-126100000D03*
X40580000Y-126100000D03*
X40580000Y-125300000D03*
D43*
X40580000Y-124650000D03*
X40580000Y-123650000D03*
X40580000Y-122150000D03*
X40580000Y-121150000D03*
D42*
X40580000Y-120500000D03*
X40580000Y-119700000D03*
D44*
X40005000Y-118580000D03*
D45*
X35825000Y-118580000D03*
D44*
X40005000Y-127220000D03*
D45*
X35825000Y-127220000D03*
%TD*%
D35*
%TO.C,R62*%
X49490000Y-25665000D03*
X49490000Y-23665000D03*
%TD*%
D36*
%TO.C,C84*%
X143087500Y-115312500D03*
X143087500Y-113587500D03*
%TD*%
D41*
%TO.C,C78*%
X140725000Y-129150000D03*
X142450000Y-129150000D03*
%TD*%
D93*
%TO.C,C39*%
X97100000Y-79050000D03*
X97100000Y-75925000D03*
%TD*%
D19*
%TO.C,C115*%
X36900000Y-130750000D03*
X35175000Y-130750000D03*
%TD*%
D35*
%TO.C,R77*%
X60490000Y-55065000D03*
X60490000Y-53065000D03*
%TD*%
D119*
%TO.C,U3*%
X60520000Y-95985000D03*
X60520000Y-97665000D03*
X62200000Y-95985000D03*
X62200000Y-97665000D03*
D120*
X58910000Y-95525000D03*
X58910000Y-96175000D03*
X58910000Y-96825000D03*
X58910000Y-97475000D03*
X58910000Y-98125000D03*
D121*
X60060000Y-99275000D03*
X60710000Y-99275000D03*
X61360000Y-99275000D03*
X62010000Y-99275000D03*
X62660000Y-99275000D03*
D120*
X63810000Y-98125000D03*
X63810000Y-97475000D03*
X63810000Y-96825000D03*
X63810000Y-96175000D03*
X63810000Y-95525000D03*
D121*
X62660000Y-94375000D03*
X62010000Y-94375000D03*
X61360000Y-94375000D03*
X60710000Y-94375000D03*
X60060000Y-94375000D03*
%TD*%
D35*
%TO.C,R76*%
X60490000Y-50500000D03*
X60490000Y-48500000D03*
%TD*%
D36*
%TO.C,C40*%
X71400000Y-90847500D03*
X71400000Y-89122500D03*
%TD*%
D17*
%TO.C,R16*%
X77507502Y-90757499D03*
X77507502Y-88932499D03*
%TD*%
D48*
%TO.C,D30*%
X60490000Y-25665000D03*
X60490000Y-23615000D03*
%TD*%
D49*
%TO.C,R83*%
X44290000Y-48065000D03*
X44290000Y-50065000D03*
%TD*%
D75*
%TO.C,Q24*%
X104637500Y-127250000D03*
X104637500Y-125350000D03*
X102762500Y-126300000D03*
%TD*%
D59*
%TO.C,Q10*%
X100040000Y-40802500D03*
X101940000Y-40802500D03*
X100990000Y-38927500D03*
%TD*%
D39*
%TO.C,R21*%
X70200000Y-74825000D03*
X70200000Y-76475000D03*
%TD*%
D28*
%TO.C,U21*%
X195650000Y-75325000D03*
X195000000Y-75325000D03*
X194350000Y-75325000D03*
X194350000Y-77200000D03*
X195000000Y-77200000D03*
X195650000Y-77200000D03*
D29*
X195325000Y-76262500D03*
D30*
X194300000Y-76262500D03*
%TD*%
D122*
%TO.C,R93*%
X83940000Y-42265000D03*
X87040000Y-42265000D03*
%TD*%
D36*
%TO.C,C67*%
X44290000Y-59190000D03*
X44290000Y-57465000D03*
%TD*%
D47*
%TO.C,R103*%
X148425000Y-136787500D03*
X150250000Y-136787500D03*
%TD*%
D13*
%TO.C,C45*%
X69300000Y-81075000D03*
X69300000Y-82625000D03*
%TD*%
D36*
%TO.C,C6*%
X245900000Y-86912500D03*
X245900000Y-85187500D03*
%TD*%
D35*
%TO.C,R42*%
X146800000Y-40440000D03*
X146800000Y-38440000D03*
%TD*%
D14*
%TO.C,C42*%
X59012500Y-127000000D03*
X61087500Y-127000000D03*
%TD*%
D49*
%TO.C,R32*%
X102590000Y-51765000D03*
X102590000Y-53765000D03*
%TD*%
D35*
%TO.C,R40*%
X139600000Y-40440000D03*
X139600000Y-38440000D03*
%TD*%
D23*
%TO.C,R118*%
X187700000Y-94925000D03*
X187700000Y-96750000D03*
%TD*%
%TO.C,R39*%
X101600000Y-134237500D03*
X101600000Y-136062500D03*
%TD*%
D35*
%TO.C,R4*%
X242150000Y-86937500D03*
X242150000Y-84937500D03*
%TD*%
D36*
%TO.C,C99*%
X183200000Y-96700000D03*
X183200000Y-94975000D03*
%TD*%
D23*
%TO.C,R127*%
X92945000Y-116000000D03*
X92945000Y-117825000D03*
%TD*%
D53*
%TO.C,Q22*%
X102775000Y-121850000D03*
X102775000Y-123750000D03*
X104650000Y-122800000D03*
%TD*%
M02*
