M48
; DRILL file {KiCad 9.0.2} date 2025-05-17T12:02:25-0400
; FORMAT={-:-/ absolute / metric / decimal}
; #@! TF.CreationDate,2025-05-17T12:02:25-04:00
; #@! TF.GenerationSoftware,Kicad,Pcbnew,9.0.2
; #@! TF.FileFunction,Plated,1,2,PTH
FMAT,2
METRIC
; #@! TA.AperFunction,Plated,PTH,ComponentDrill
T1C0.200
; #@! TA.AperFunction,Plated,PTH,ViaDrill
T2C0.300
; #@! TA.AperFunction,Plated,PTH,ComponentDrill
T3C0.300
; #@! TA.AperFunction,Plated,PTH,ComponentDrill
T4C0.600
; #@! TA.AperFunction,Plated,PTH,ComponentDrill
T5C0.750
; #@! TA.AperFunction,Plated,PTH,ComponentDrill
T6C1.000
; #@! TA.AperFunction,Plated,PTH,ComponentDrill
T7C1.016
; #@! TA.AperFunction,Plated,PTH,ComponentDrill
T8C1.143
; #@! TA.AperFunction,Plated,PTH,ComponentDrill
T9C1.200
; #@! TA.AperFunction,Plated,PTH,ComponentDrill
T10C1.500
; #@! TA.AperFunction,Plated,PTH,ComponentDrill
T11C1.575
; #@! TA.AperFunction,Plated,PTH,ComponentDrill
T12C2.200
%
G90
G05
T1
X197.7Y-38.237
X197.7Y-39.637
X198.9Y-38.237
X198.9Y-39.637
X200.1Y-38.237
X200.1Y-39.637
T2
X34.3Y-130.0
X35.75Y-132.55
X35.75Y-134.6
X35.75Y-136.65
X38.05Y-132.15
X39.5Y-131.0
X39.507Y-121.021
X39.55Y-66.435
X39.897Y-132.62
X40.249Y-90.042
X40.65Y-132.35
X40.7Y-26.75
X40.9Y-133.115
X41.15Y-66.485
X41.2Y-93.185
X41.4Y-90.185
X41.655Y-121.134
X41.8Y-90.985
X41.8Y-93.185
X41.8Y-97.985
X41.8Y-98.785
X42.2Y-90.185
X42.4Y-93.185
X42.7Y-106.8
X42.75Y-66.485
X43.1Y-130.6
X43.1Y-131.15
X43.1Y-131.7
X43.4Y-137.15
X43.4Y-127.15
X43.75Y-130.6
X43.75Y-131.15
X43.75Y-131.75
X44.25Y-127.2
X44.29Y-51.265
X44.4Y-130.6
X44.4Y-131.15
X44.4Y-131.75
X44.439Y-136.613
X44.85Y-89.5
X44.927Y-137.247
X45.048Y-127.147
X45.1Y-26.75
X46.49Y-50.865
X46.945Y-70.315
X47.1Y-42.05
X47.1Y-44.35
X47.1Y-46.7
X47.1Y-133.2
X47.1Y-134.0
X47.15Y-68.875
X47.2Y-116.9
X47.746Y-71.907
X47.89Y-38.865
X48.182Y-130.233
X48.45Y-24.615
X48.45Y-80.185
X48.49Y-56.665
X48.5Y-82.235
X48.515Y-71.685
X48.65Y-26.6
X49.0Y-138.9
X49.05Y-135.746
X49.4Y-106.8
X49.5Y-26.65
X49.507Y-67.092
X49.524Y-68.85
X49.549Y-130.9
X49.742Y-136.147
X49.75Y-140.5
X50.2Y-90.785
X50.2Y-93.185
X50.25Y-82.235
X50.4Y-26.65
X50.467Y-136.996
X50.475Y-130.098
X50.6Y-97.985
X50.6Y-98.785
X50.69Y-56.865
X50.69Y-58.065
X50.8Y-90.785
X50.8Y-93.185
X50.824Y-71.751
X50.857Y-67.042
X51.09Y-55.0
X51.4Y-90.785
X51.4Y-93.185
X51.45Y-140.5
X51.6Y-68.785
X52.3Y-120.4
X52.3Y-121.2
X52.3Y-122.05
X53.177Y-73.149
X53.59Y-55.0
X53.6Y-70.385
X53.685Y-71.911
X53.9Y-125.9
X54.0Y-101.385
X54.6Y-94.185
X54.6Y-94.985
X54.69Y-47.5
X55.15Y-51.8
X55.3Y-125.9
X55.3Y-126.6
X55.3Y-127.3
X55.6Y-94.185
X55.6Y-94.985
X55.8Y-98.985
X55.8Y-100.585
X56.1Y-24.615
X56.1Y-106.65
X56.25Y-51.8
X56.34Y-47.5
X56.521Y-71.951
X56.6Y-94.185
X56.6Y-94.985
X56.9Y-65.05
X56.9Y-68.8
X57.25Y-135.793
X57.6Y-94.185
X57.6Y-94.985
X58.351Y-65.05
X58.912Y-100.585
X59.05Y-63.601
X59.175Y-71.987
X59.709Y-135.793
X60.2Y-65.95
X60.2Y-95.585
X60.2Y-97.985
X60.223Y-66.76
X60.5Y-24.59
X60.5Y-56.2
X60.517Y-69.289
X60.75Y-73.935
X61.09Y-31.765
X61.15Y-68.485
X61.3Y-70.974
X61.36Y-96.825
X61.36Y-96.825
X61.7Y-73.935
X62.0Y-100.385
X62.05Y-69.1
X62.1Y-66.685
X62.6Y-95.585
X62.6Y-97.985
X62.7Y-56.15
X62.8Y-100.385
X62.834Y-69.258
X62.9Y-121.05
X62.9Y-122.05
X62.9Y-123.05
X62.9Y-124.1
X62.9Y-125.1
X62.9Y-126.1
X63.634Y-68.4
X63.8Y-65.35
X64.3Y-68.844
X64.35Y-110.15
X64.9Y-69.373
X64.95Y-112.4
X65.511Y-69.889
X65.75Y-112.4
X65.85Y-56.2
X66.174Y-128.174
X66.2Y-110.15
X67.0Y-83.685
X67.25Y-77.635
X67.25Y-78.635
X67.25Y-79.585
X68.526Y-69.3
X69.0Y-121.05
X69.0Y-122.05
X69.0Y-123.05
X69.0Y-124.1
X69.0Y-125.1
X69.0Y-126.1
X69.25Y-72.887
X69.3Y-83.485
X69.65Y-71.635
X70.2Y-77.535
X70.2Y-78.485
X70.2Y-79.685
X70.75Y-69.085
X70.85Y-71.635
X70.85Y-72.764
X70.95Y-83.585
X71.85Y-94.185
X72.5Y-83.585
X74.2Y-83.585
X75.3Y-76.65
X75.308Y-86.985
X76.145Y-114.925
X76.25Y-74.75
X76.35Y-76.662
X76.508Y-86.985
X77.35Y-80.6
X77.55Y-137.251
X77.695Y-114.925
X78.015Y-90.767
X78.7Y-72.1
X78.7Y-73.1
X78.7Y-83.585
X78.92Y-74.3
X79.694Y-74.055
X79.8Y-83.07
X79.935Y-85.927
X79.938Y-88.924
X80.75Y-90.985
X81.5Y-95.085
X82.228Y-87.565
X83.443Y-87.275
X83.89Y-56.265
X83.89Y-57.465
X84.8Y-86.985
X85.59Y-46.0
X85.59Y-48.25
X85.59Y-50.25
X85.59Y-52.5
X87.3Y-91.385
X88.0Y-91.385
X88.016Y-50.195
X88.09Y-46.0
X88.09Y-48.25
X88.09Y-52.5
X88.195Y-115.125
X88.7Y-91.385
X89.45Y-91.385
X90.2Y-91.385
X94.495Y-115.025
X94.6Y-80.185
X97.2Y-80.185
X98.2Y-94.785
X99.6Y-54.85
X100.8Y-92.785
X102.55Y-54.9
X127.087Y-134.45
X127.337Y-130.45
X128.588Y-114.45
X128.838Y-104.2
X128.838Y-105.95
X132.788Y-108.7
X132.938Y-112.899
X133.338Y-107.774
X133.338Y-113.67
X134.838Y-109.95
X135.137Y-139.55
X136.0Y-50.065
X136.0Y-51.065
X136.0Y-52.065
X136.0Y-53.065
X136.0Y-54.065
X136.0Y-55.065
X136.088Y-130.4
X136.588Y-122.2
X136.737Y-108.95
X137.0Y-50.065
X137.0Y-51.065
X137.0Y-52.065
X137.0Y-53.065
X137.0Y-54.065
X137.0Y-55.065
X137.037Y-106.2
X137.338Y-122.2
X137.537Y-139.35
X137.696Y-110.961
X137.838Y-113.7
X137.838Y-119.95
X138.0Y-50.065
X138.0Y-51.065
X138.0Y-52.065
X138.0Y-53.065
X138.0Y-54.065
X138.0Y-55.065
X138.262Y-112.425
X138.438Y-106.8
X138.588Y-108.2
X138.588Y-115.7
X138.588Y-116.7
X139.0Y-50.065
X139.0Y-51.065
X139.0Y-52.065
X139.0Y-53.065
X139.0Y-54.065
X139.0Y-55.065
X139.438Y-107.7
X139.588Y-115.7
X139.588Y-116.7
X139.6Y-41.665
X140.0Y-50.065
X140.0Y-51.065
X140.0Y-52.065
X140.0Y-53.065
X140.0Y-54.065
X140.0Y-55.065
X141.0Y-50.065
X141.0Y-51.065
X141.0Y-52.065
X141.0Y-53.065
X141.0Y-54.065
X141.0Y-55.065
X141.588Y-124.9
X142.0Y-50.065
X142.0Y-51.065
X142.0Y-52.065
X142.0Y-53.065
X142.0Y-54.065
X142.0Y-55.065
X142.088Y-115.2
X142.338Y-116.93
X142.588Y-118.951
X143.0Y-50.065
X143.0Y-51.065
X143.0Y-52.065
X143.0Y-53.065
X143.0Y-54.065
X143.0Y-55.065
X143.2Y-41.665
X143.25Y-129.15
X143.55Y-125.3
X143.55Y-127.35
X144.537Y-110.0
X146.8Y-41.665
X149.4Y-42.865
X149.5Y-91.7
X149.838Y-118.95
X150.0Y-124.05
X150.0Y-124.9
X150.0Y-125.7
X150.0Y-126.5
X151.5Y-91.7
X151.5Y-123.8
X151.5Y-125.0
X151.8Y-42.865
X152.088Y-130.713
X152.45Y-123.8
X152.45Y-125.05
X152.588Y-129.512
X153.338Y-126.7
X153.385Y-129.446
X154.588Y-132.95
X154.835Y-127.8
X155.388Y-132.95
X155.838Y-135.7
X157.088Y-127.8
X176.6Y-55.265
X176.6Y-56.265
X177.2Y-87.05
X177.2Y-89.7
X177.25Y-84.4
X177.728Y-55.241
X177.728Y-56.241
X178.0Y-94.688
X178.728Y-55.241
X178.728Y-56.241
X179.728Y-55.241
X179.728Y-56.241
X179.728Y-57.241
X179.728Y-58.241
X179.728Y-59.241
X179.728Y-60.241
X179.728Y-61.241
X180.1Y-64.35
X180.1Y-66.35
X180.6Y-23.775
X180.6Y-25.775
X180.85Y-135.6
X180.85Y-136.6
X180.85Y-137.6
X181.2Y-97.837
X181.45Y-101.55
X181.85Y-135.6
X181.85Y-136.6
X181.85Y-137.6
X181.85Y-137.6
X181.95Y-84.45
X181.95Y-87.05
X182.0Y-89.55
X182.1Y-66.35
X182.6Y-23.775
X182.6Y-25.775
X182.725Y-53.938
X182.85Y-135.6
X182.85Y-136.6
X182.85Y-137.6
X183.45Y-101.55
X183.853Y-53.913
X184.1Y-66.35
X184.1Y-96.688
X184.853Y-53.913
X185.853Y-53.913
X186.1Y-66.35
X188.1Y-66.35
X189.485Y-91.35
X189.6Y-83.487
X189.6Y-95.237
X189.6Y-97.688
X189.725Y-43.438
X189.725Y-44.438
X189.725Y-45.438
X189.725Y-46.438
X189.725Y-47.438
X189.725Y-48.438
X189.8Y-78.487
X189.8Y-79.487
X189.8Y-80.388
X189.85Y-92.738
X190.1Y-66.35
X190.1Y-89.688
X190.1Y-90.837
X190.725Y-43.438
X190.725Y-44.438
X190.725Y-45.438
X190.725Y-46.438
X190.725Y-47.438
X190.725Y-48.438
X191.725Y-43.438
X191.725Y-44.438
X191.725Y-45.438
X191.725Y-46.438
X191.725Y-47.438
X191.725Y-48.438
X191.9Y-78.587
X191.9Y-79.487
X191.9Y-80.388
X192.1Y-66.35
X192.2Y-89.638
X192.4Y-93.987
X192.4Y-95.188
X192.697Y-91.438
X193.0Y-84.312
X193.0Y-85.787
X193.519Y-91.308
X194.0Y-97.688
X194.024Y-91.928
X194.1Y-66.35
X194.275Y-78.45
X194.3Y-77.75
X194.63Y-90.11
X194.9Y-86.008
X195.566Y-84.312
X196.5Y-88.775
X196.5Y-89.475
X196.512Y-88.037
X196.6Y-23.765
X196.631Y-92.038
X196.95Y-68.087
X196.95Y-69.837
X197.2Y-88.787
X197.2Y-89.487
X197.212Y-88.05
X197.4Y-82.888
X197.5Y-93.987
X197.5Y-95.188
X197.6Y-78.587
X197.6Y-79.987
X197.626Y-84.565
X197.725Y-38.938
X197.85Y-106.6
X197.85Y-107.6
X197.85Y-108.6
X197.9Y-88.787
X197.9Y-89.487
X197.912Y-88.05
X198.275Y-92.003
X198.6Y-23.765
X198.6Y-29.2
X198.6Y-30.5
X198.6Y-88.787
X198.6Y-89.487
X198.612Y-88.05
X198.725Y-38.938
X198.85Y-106.6
X198.85Y-107.6
X198.85Y-108.6
X199.35Y-83.496
X199.475Y-86.313
X199.725Y-38.938
X199.85Y-106.6
X199.85Y-107.6
X199.85Y-108.6
X199.9Y-29.2
X199.9Y-30.5
X200.6Y-23.765
X200.7Y-96.587
X200.85Y-106.6
X200.85Y-107.6
X200.85Y-108.6
X201.2Y-74.188
X201.2Y-75.188
X201.2Y-76.188
X201.2Y-91.688
X201.225Y-46.938
X201.225Y-51.4
X201.7Y-83.487
X201.85Y-106.6
X201.85Y-107.6
X201.85Y-108.6
X201.9Y-86.389
X202.225Y-37.938
X202.225Y-38.938
X202.225Y-39.938
X202.225Y-40.938
X202.225Y-41.938
X202.225Y-42.938
X202.225Y-43.938
X202.225Y-44.938
X202.225Y-45.938
X202.3Y-91.688
X202.6Y-23.765
X203.1Y-76.087
X203.1Y-77.688
X203.225Y-37.938
X203.225Y-38.938
X203.225Y-39.938
X203.225Y-40.938
X203.225Y-41.938
X203.225Y-42.938
X203.225Y-43.938
X203.225Y-44.938
X203.225Y-45.938
X204.1Y-66.35
X204.6Y-23.765
X204.85Y-124.6
X204.85Y-125.6
X204.85Y-126.6
X204.85Y-134.6
X204.85Y-135.6
X204.85Y-136.6
X204.9Y-76.087
X204.9Y-77.688
X205.2Y-80.587
X205.35Y-89.4
X205.85Y-124.6
X205.85Y-125.6
X205.85Y-126.6
X205.85Y-134.6
X205.85Y-135.6
X205.85Y-136.6
X205.9Y-83.4
X206.1Y-66.35
X206.5Y-93.388
X206.6Y-23.765
X206.65Y-89.4
X206.751Y-96.894
X206.85Y-124.6
X206.85Y-125.6
X206.85Y-126.6
X206.85Y-134.6
X206.85Y-135.6
X206.85Y-136.6
X207.7Y-87.337
X207.812Y-89.45
X208.1Y-64.35
X208.1Y-66.35
X208.2Y-100.337
X208.254Y-83.362
X208.6Y-23.765
X209.034Y-94.021
X209.1Y-55.765
X209.1Y-56.765
X209.1Y-57.765
X209.1Y-58.765
X209.1Y-59.765
X209.1Y-60.765
X209.1Y-91.688
X209.1Y-92.787
X209.7Y-100.337
X209.95Y-97.837
X210.472Y-55.789
X210.472Y-56.789
X211.6Y-55.765
X211.6Y-56.765
X212.6Y-55.765
X212.6Y-56.765
X213.6Y-55.765
X213.6Y-56.765
X229.35Y-135.588
X229.35Y-136.588
X229.35Y-137.588
X230.35Y-135.588
X230.35Y-136.588
X230.35Y-137.588
X231.35Y-135.588
X231.35Y-136.588
X231.35Y-137.588
X232.75Y-41.75
X233.376Y-42.35
X240.4Y-83.438
X241.0Y-44.25
X241.05Y-34.8
X241.05Y-35.95
X241.222Y-42.6
X244.15Y-88.188
X244.2Y-69.55
X244.2Y-70.55
X244.2Y-71.55
X244.375Y-30.025
X244.7Y-30.8
X244.93Y-81.1
X245.2Y-69.55
X245.2Y-70.55
X245.2Y-71.55
X245.497Y-31.1
X245.9Y-88.188
X246.2Y-69.55
X246.2Y-70.55
X246.2Y-71.55
X246.656Y-41.0
X248.46Y-39.11
X249.35Y-135.588
X249.35Y-136.588
X249.35Y-137.588
X250.15Y-87.188
X250.35Y-135.588
X250.35Y-136.588
X250.35Y-137.588
X250.75Y-54.637
X250.9Y-84.438
X251.35Y-135.588
X251.35Y-136.588
X251.35Y-137.588
X251.709Y-40.448
X252.75Y-54.637
X252.9Y-84.438
X253.5Y-44.5
X253.5Y-48.5
X254.5Y-38.5
X254.75Y-54.637
X254.9Y-84.438
T3
X44.56Y-93.525
X44.56Y-94.645
X44.56Y-96.45
X44.56Y-97.57
X44.56Y-98.69
X45.68Y-93.525
X45.68Y-94.645
X45.68Y-96.45
X45.68Y-97.57
X45.68Y-98.69
X46.8Y-93.525
X46.8Y-94.645
X46.8Y-96.45
X46.8Y-97.57
X46.8Y-98.69
X47.92Y-93.525
X47.92Y-94.645
X47.92Y-96.45
X47.92Y-97.57
X47.92Y-98.69
T5
X206.275Y-30.938
X206.275Y-32.938
X206.275Y-34.938
T6
X58.55Y-135.1
X61.09Y-135.1
X62.7Y-76.0
X62.7Y-78.54
X62.7Y-81.08
X62.7Y-83.62
X62.7Y-86.16
X62.7Y-88.7
X63.63Y-135.1
X66.17Y-135.1
X68.71Y-135.1
X71.25Y-135.1
X73.79Y-135.1
X77.54Y-135.1
X80.08Y-135.1
X82.62Y-135.1
X84.03Y-101.1
X84.03Y-103.8
X84.07Y-60.865
X84.08Y-63.7
X84.08Y-141.3
X84.09Y-23.665
X85.16Y-135.1
X86.57Y-101.1
X86.57Y-103.8
X86.61Y-60.865
X86.62Y-63.7
X86.62Y-141.3
X86.63Y-23.665
X88.8Y-135.1
X89.11Y-101.1
X89.11Y-103.8
X89.15Y-60.865
X89.16Y-63.7
X89.16Y-141.3
X89.17Y-23.665
X89.5Y-92.885
X91.34Y-135.1
X91.65Y-101.1
X91.65Y-103.8
X91.69Y-60.865
X91.7Y-63.7
X91.7Y-141.3
X91.71Y-23.665
X93.88Y-135.1
X94.5Y-92.885
X95.29Y-23.665
X95.3Y-60.865
X95.3Y-63.7
X95.3Y-101.1
X95.3Y-141.3
X95.33Y-103.7
X96.42Y-135.1
X97.83Y-23.665
X97.84Y-60.865
X97.84Y-63.7
X97.84Y-101.1
X97.84Y-141.3
X97.87Y-103.7
X100.37Y-23.665
X100.38Y-60.865
X100.38Y-63.7
X100.38Y-101.1
X100.38Y-141.3
X100.41Y-103.7
X102.91Y-23.665
X102.92Y-60.865
X102.92Y-63.7
X102.92Y-101.1
X102.92Y-141.3
X102.95Y-103.7
X109.31Y-72.3
X109.31Y-74.84
X109.31Y-77.38
X109.31Y-79.92
X109.31Y-84.55
X109.31Y-87.09
X109.31Y-89.63
X109.31Y-92.17
X109.475Y-112.78
X109.475Y-115.32
X109.475Y-117.86
X109.475Y-120.4
X109.475Y-124.78
X109.475Y-127.32
X109.475Y-129.86
X109.475Y-132.4
X109.55Y-32.445
X109.55Y-34.985
X109.55Y-37.525
X109.55Y-40.065
X109.55Y-44.465
X109.55Y-47.005
X109.55Y-49.545
X109.55Y-52.085
X111.85Y-72.3
X111.85Y-74.84
X111.85Y-77.38
X111.85Y-79.92
X111.85Y-84.55
X111.85Y-87.09
X111.85Y-89.63
X111.85Y-92.17
X112.015Y-112.78
X112.015Y-115.32
X112.015Y-117.86
X112.015Y-120.4
X112.015Y-124.78
X112.015Y-127.32
X112.015Y-129.86
X112.015Y-132.4
X112.09Y-32.445
X112.09Y-34.985
X112.09Y-37.525
X112.09Y-40.065
X112.09Y-44.465
X112.09Y-47.005
X112.09Y-49.545
X112.09Y-52.085
X135.718Y-103.75
X135.718Y-141.3
X135.78Y-23.665
X135.78Y-60.9
X135.78Y-63.75
X135.78Y-101.0
X138.257Y-103.75
X138.257Y-141.3
X138.32Y-23.665
X138.32Y-60.9
X138.32Y-63.75
X138.32Y-101.0
X140.797Y-103.75
X140.797Y-141.3
X140.86Y-23.665
X140.86Y-60.9
X140.86Y-63.75
X140.86Y-101.0
X143.338Y-103.75
X143.338Y-141.3
X143.4Y-23.665
X143.4Y-60.9
X143.4Y-63.75
X143.4Y-101.0
X146.037Y-107.37
X146.037Y-109.91
X146.037Y-112.45
X146.037Y-114.99
X146.037Y-117.53
X146.037Y-120.07
X146.037Y-122.61
X146.037Y-125.15
X147.0Y-23.665
X147.0Y-60.9
X147.0Y-63.75
X147.0Y-101.0
X147.047Y-103.75
X147.088Y-141.3
X149.54Y-23.665
X149.54Y-60.9
X149.54Y-63.75
X149.54Y-101.0
X149.588Y-103.75
X149.627Y-141.3
X152.08Y-23.665
X152.08Y-60.9
X152.08Y-63.75
X152.08Y-101.0
X152.127Y-103.75
X152.167Y-141.3
X154.62Y-23.665
X154.62Y-60.9
X154.62Y-63.75
X154.62Y-101.0
X154.667Y-103.75
X154.707Y-141.3
X160.8Y-44.4
X160.8Y-46.94
X160.8Y-49.48
X160.8Y-52.02
X160.86Y-32.26
X160.86Y-34.8
X160.86Y-37.34
X160.86Y-39.88
X161.175Y-72.63
X161.175Y-75.17
X161.175Y-77.71
X161.175Y-80.25
X161.175Y-84.63
X161.175Y-87.17
X161.175Y-89.71
X161.175Y-92.25
X161.262Y-112.66
X161.262Y-115.2
X161.262Y-117.74
X161.262Y-120.28
X161.262Y-124.66
X161.262Y-127.2
X161.262Y-129.74
X161.262Y-132.28
X163.34Y-44.4
X163.34Y-46.94
X163.34Y-49.48
X163.34Y-52.02
X163.4Y-32.26
X163.4Y-34.8
X163.4Y-37.34
X163.4Y-39.88
X163.715Y-72.63
X163.715Y-75.17
X163.715Y-77.71
X163.715Y-80.25
X163.715Y-84.63
X163.715Y-87.17
X163.715Y-89.71
X163.715Y-92.25
X163.802Y-112.66
X163.802Y-115.2
X163.802Y-117.74
X163.802Y-120.28
X163.802Y-124.66
X163.802Y-127.2
X163.802Y-129.74
X163.802Y-132.28
X184.715Y-44.307
X184.715Y-46.847
X184.715Y-49.387
X184.715Y-51.927
X184.75Y-32.042
X184.75Y-34.582
X184.75Y-37.122
X184.75Y-39.663
X184.76Y-72.517
X184.76Y-75.057
X184.76Y-77.597
X184.76Y-80.138
X184.76Y-84.517
X184.76Y-87.057
X184.76Y-89.597
X184.76Y-92.138
X184.76Y-112.58
X184.76Y-115.12
X184.76Y-117.66
X184.76Y-120.2
X184.76Y-124.58
X184.76Y-127.12
X184.76Y-129.66
X184.76Y-132.2
X185.08Y-60.512
X185.16Y-63.837
X185.16Y-103.812
X185.18Y-23.512
X185.23Y-141.0
X187.255Y-44.307
X187.255Y-46.847
X187.255Y-49.387
X187.255Y-51.927
X187.29Y-32.042
X187.29Y-34.582
X187.29Y-37.122
X187.29Y-39.663
X187.3Y-72.517
X187.3Y-75.057
X187.3Y-77.597
X187.3Y-80.138
X187.3Y-84.517
X187.3Y-87.057
X187.3Y-89.597
X187.3Y-92.138
X187.3Y-112.58
X187.3Y-115.12
X187.3Y-117.66
X187.3Y-120.2
X187.3Y-124.58
X187.3Y-127.12
X187.3Y-129.66
X187.3Y-132.2
X187.62Y-60.512
X187.7Y-63.837
X187.7Y-103.812
X187.72Y-23.512
X187.77Y-141.0
X190.16Y-60.512
X190.24Y-63.837
X190.24Y-103.812
X190.26Y-23.512
X190.31Y-141.0
X191.1Y-93.337
X192.7Y-60.512
X192.78Y-63.837
X192.78Y-103.812
X192.8Y-23.512
X192.85Y-141.0
X193.64Y-93.337
X196.18Y-93.337
X196.4Y-23.512
X196.4Y-63.837
X196.43Y-60.55
X196.45Y-103.8
X196.45Y-141.0
X198.72Y-93.337
X198.94Y-23.512
X198.94Y-63.837
X198.97Y-60.55
X198.99Y-103.8
X198.99Y-141.0
X201.26Y-93.337
X201.48Y-23.512
X201.48Y-63.837
X201.51Y-60.55
X201.53Y-103.8
X201.53Y-141.0
X203.8Y-93.337
X204.02Y-23.512
X204.02Y-63.837
X204.05Y-60.55
X204.07Y-103.8
X204.07Y-141.0
X210.51Y-112.55
X210.51Y-115.09
X210.51Y-117.63
X210.51Y-120.17
X210.51Y-124.8
X210.51Y-127.34
X210.51Y-129.88
X210.51Y-132.42
X210.58Y-32.457
X210.58Y-34.997
X210.58Y-37.538
X210.58Y-40.078
X210.58Y-44.605
X210.58Y-47.145
X210.58Y-49.685
X210.58Y-52.225
X210.7Y-72.425
X210.7Y-74.965
X210.7Y-77.505
X210.7Y-80.045
X210.7Y-84.735
X210.7Y-87.275
X210.7Y-89.815
X210.7Y-92.355
X213.05Y-112.55
X213.05Y-115.09
X213.05Y-117.63
X213.05Y-120.17
X213.05Y-124.8
X213.05Y-127.34
X213.05Y-129.88
X213.05Y-132.42
X213.12Y-32.457
X213.12Y-34.997
X213.12Y-37.538
X213.12Y-40.078
X213.12Y-44.605
X213.12Y-47.145
X213.12Y-49.685
X213.12Y-52.225
X213.24Y-72.425
X213.24Y-74.965
X213.24Y-77.505
X213.24Y-80.045
X213.24Y-84.735
X213.24Y-87.275
X213.24Y-89.815
X213.24Y-92.355
X234.35Y-112.517
X234.35Y-115.057
X234.35Y-117.597
X234.35Y-120.137
X234.35Y-124.837
X234.35Y-127.377
X234.35Y-129.917
X234.35Y-132.457
X234.36Y-32.417
X234.36Y-34.957
X234.36Y-37.497
X234.36Y-40.038
X234.36Y-44.417
X234.36Y-46.957
X234.36Y-49.497
X234.36Y-52.037
X234.5Y-55.725
X234.68Y-23.7
X234.68Y-60.5
X234.7Y-64.15
X234.73Y-101.0
X234.75Y-141.15
X234.81Y-72.13
X234.81Y-74.67
X234.81Y-77.21
X234.81Y-79.75
X234.81Y-83.33
X234.81Y-85.87
X234.81Y-88.41
X234.81Y-90.95
X234.85Y-94.625
X236.89Y-112.517
X236.89Y-115.057
X236.89Y-117.597
X236.89Y-120.137
X236.89Y-124.837
X236.89Y-127.377
X236.89Y-129.917
X236.89Y-132.457
X236.9Y-32.417
X236.9Y-34.957
X236.9Y-37.497
X236.9Y-40.038
X236.9Y-44.417
X236.9Y-46.957
X236.9Y-49.497
X236.9Y-52.037
X237.04Y-55.725
X237.22Y-23.7
X237.22Y-60.5
X237.24Y-64.15
X237.27Y-101.0
X237.29Y-141.15
X237.35Y-72.13
X237.35Y-74.67
X237.35Y-77.21
X237.35Y-79.75
X237.35Y-83.33
X237.35Y-85.87
X237.35Y-88.41
X237.35Y-90.95
X237.39Y-94.625
X239.76Y-23.7
X239.76Y-60.5
X239.78Y-64.15
X239.81Y-101.0
X239.83Y-141.15
X242.3Y-23.7
X242.3Y-60.5
X242.32Y-64.15
X242.35Y-101.0
X242.37Y-141.15
X245.44Y-104.337
X245.44Y-106.877
X245.9Y-23.7
X245.9Y-60.5
X245.9Y-64.15
X245.95Y-101.0
X246.0Y-141.15
X247.98Y-104.337
X247.98Y-106.877
X248.44Y-23.7
X248.44Y-60.5
X248.44Y-64.15
X248.49Y-101.0
X248.54Y-141.15
X250.52Y-104.337
X250.52Y-106.877
X250.98Y-23.7
X250.98Y-60.5
X250.98Y-64.15
X251.03Y-101.0
X251.08Y-141.15
X253.06Y-104.337
X253.06Y-106.877
X253.52Y-23.7
X253.52Y-60.5
X253.52Y-64.15
X253.57Y-101.0
X253.62Y-141.15
X255.6Y-104.337
X255.6Y-106.877
X259.96Y-72.15
X259.96Y-74.69
X259.96Y-77.23
X259.96Y-79.77
X259.96Y-83.35
X259.96Y-85.89
X259.96Y-88.43
X259.96Y-90.97
X260.06Y-112.587
X260.06Y-115.127
X260.06Y-117.667
X260.06Y-120.207
X260.06Y-124.837
X260.06Y-127.377
X260.06Y-129.917
X260.06Y-132.457
X260.1Y-44.5
X260.1Y-47.04
X260.1Y-49.58
X260.1Y-52.12
X260.185Y-32.53
X260.185Y-35.07
X260.185Y-37.61
X260.185Y-40.15
X262.5Y-72.15
X262.5Y-74.69
X262.5Y-77.23
X262.5Y-79.77
X262.5Y-83.35
X262.5Y-85.89
X262.5Y-88.43
X262.5Y-90.97
X262.6Y-112.587
X262.6Y-115.127
X262.6Y-117.667
X262.6Y-120.207
X262.6Y-124.837
X262.6Y-127.377
X262.6Y-129.917
X262.6Y-132.457
X262.64Y-44.5
X262.64Y-47.04
X262.64Y-49.58
X262.64Y-52.12
X262.725Y-32.53
X262.725Y-35.07
X262.725Y-37.61
X262.725Y-40.15
T7
X45.129Y-76.776
X45.129Y-87.953
X46.653Y-76.776
X46.653Y-87.953
X53.765Y-77.284
X53.765Y-79.316
X53.765Y-81.349
X56.305Y-76.269
X56.305Y-78.3
X56.305Y-80.332
T8
X58.845Y-76.269
X58.845Y-78.808
X58.845Y-85.92
X58.845Y-88.46
T9
X192.2Y-99.337
X195.7Y-99.337
X199.2Y-99.337
X202.7Y-99.337
T10
X127.037Y-108.55
X127.037Y-112.55
X127.037Y-116.55
X127.037Y-120.55
X127.037Y-124.55
X127.037Y-128.55
X127.037Y-132.55
X127.037Y-136.55
X130.037Y-108.55
X130.037Y-112.55
X130.037Y-116.55
X130.037Y-120.55
X130.037Y-124.55
X130.037Y-128.55
X130.037Y-132.55
X130.037Y-136.55
T11
X35.35Y-74.3
X35.35Y-90.429
T12
X35.89Y-24.665
X35.89Y-59.865
X35.9Y-64.8
X35.9Y-100.0
X35.9Y-104.9
X35.9Y-140.05
X71.09Y-24.665
X71.09Y-59.865
X71.1Y-64.8
X71.1Y-100.0
X71.2Y-104.8
X72.0Y-140.0
X75.89Y-24.665
X75.89Y-59.865
X75.9Y-64.8
X75.9Y-100.0
X76.0Y-104.8
X76.6Y-140.0
X111.0Y-105.05
X111.0Y-140.05
X111.09Y-24.665
X111.09Y-59.865
X111.1Y-64.8
X111.1Y-100.0
X127.6Y-24.665
X127.6Y-59.865
X127.6Y-64.8
X127.6Y-100.0
X162.737Y-140.1
X162.8Y-24.665
X162.8Y-59.865
X162.8Y-64.8
X162.8Y-100.0
X162.838Y-104.9
X177.05Y-104.8
X177.05Y-140.0
X177.1Y-24.765
X177.1Y-59.765
X177.1Y-64.85
X177.1Y-99.85
X212.1Y-24.765
X212.1Y-59.765
X212.1Y-64.85
X212.1Y-99.85
X212.25Y-104.8
X212.25Y-140.0
X226.5Y-24.7
X226.5Y-59.9
X226.5Y-64.75
X226.5Y-99.95
X226.55Y-104.837
X226.55Y-140.037
X261.7Y-24.7
X261.7Y-59.9
X261.7Y-64.75
X261.7Y-99.95
X261.75Y-104.837
X261.75Y-140.037
T4
G00X36.225Y-118.58
M15
G01X35.425Y-118.58
M16
G05
G00X36.225Y-127.22
M15
G01X35.425Y-127.22
M16
G05
G00X40.555Y-118.58
M15
G01X39.455Y-118.58
M16
G05
G00X40.555Y-127.22
M15
G01X39.455Y-127.22
M16
G05
G00X126.97Y-37.972
M15
G01X126.17Y-37.972
M16
G05
G00X126.97Y-46.612
M15
G01X126.17Y-46.612
M16
G05
G00X131.3Y-37.972
M15
G01X130.2Y-37.972
M16
G05
G00X131.3Y-46.612
M15
G01X130.2Y-46.612
M16
G05
T6
G00X37.69Y-41.465
M15
G01X37.69Y-43.465
M16
G05
G00X39.69Y-47.165
M15
G01X41.69Y-47.165
M16
G05
G00X43.69Y-41.465
M15
G01X43.69Y-43.465
M16
G05
G00X130.7Y-82.55
M15
G01X130.7Y-84.55
M16
G05
G00X132.7Y-88.25
M15
G01X134.7Y-88.25
M16
G05
G00X136.7Y-82.55
M15
G01X136.7Y-84.55
M16
G05
M30
